<?xml version="1.0" encoding="UTF-8"?>
<svg id="Layer_1" data-name="Layer 1" xmlns="http://www.w3.org/2000/svg" viewBox="0 0 65 63.75">
  <defs>
    <style>
      .cls-1 {
        fill: none;
      }

      .cls-1, .cls-2 {
        stroke: #000;
        stroke-miterlimit: 10;
      }

      .cls-2 {
        fill: #ffb600;
      }
    </style>
  </defs>
  <path class="cls-1" d="m-12.55-44.24c.68,19.92,1.05,39.85,1.1,59.78.04,14.7-.08,29.48,2.24,44C-6.43,76.79-.23,93.54.22,111"/>
  <path class="cls-2" d="m18.63,20.2l2.64,27.67c.08.81.26,1.77,1.01,2.08.69.29,1.45-.16,2.07-.59,7.21-5.03,14.42-10.06,21.63-15.09.41-.29.86-.64.9-1.14.05-.62-.57-1.07-1.11-1.39-11.62-6.76-23.49-13.09-35.58-18.97"/>
</svg>