<?xml version="1.0" encoding="UTF-8"?>
<svg id="Layer_1" data-name="Layer 1" xmlns="http://www.w3.org/2000/svg" viewBox="0 0 239 219.25">
  <defs>
    <style>
      .cls-1 {
        fill: none;
        stroke: #000;
        stroke-miterlimit: 10;
        stroke-width: 2px;
      }
    </style>
  </defs>
  <path class="cls-1" d="m41.91,78.24c2.33-.03,4.91.03,6.62,1.61,1.25,1.15,1.78,3.03,1.32,4.66-.07.24-.16.48-.33.66-.29.3-.74.36-1.16.32-1.53-.15-2.69-1.46-3.41-2.82-.72-1.36-1.17-2.88-2.11-4.09"/>
  <path class="cls-1" d="m82.31,86.43c-.78-2.12-1.55-4.49-.68-6.57.85-2.03,3.04-3.16,5.17-3.7.83-.21,1.79-.33,2.46.2.36.29.57.73.66,1.18.35,1.9-1.33,3.54-2.97,4.56s-3.56,2.03-4.12,3.88"/>
  <path class="cls-1" d="m65.22,105.12c-1-.27-2.04-.54-3.06-.35s-1.99,1.01-2.01,2.04c-.01.84.57,1.55,1.14,2.18,1.39,1.54,3.3,3.17,5.28,2.56,1.41-.44,2.25-1.9,2.64-3.32.28-1.01.38-2.15-.13-3.07s-1.8-1.46-2.66-.86"/>
  <path class="cls-1" d="m41.21,102.91c-.26,4.27-.14,8.56.38,12.81.32,2.66.82,5.38,2.24,7.65,1.41,2.28,3.93,4.04,6.6,3.87,5.39-.34,8.07-7.66,13.41-8.47"/>
  <path class="cls-1" d="m64.59,118.94c4.2.04,8.38,1.5,11.69,4.1,1.59,1.24,3.05,2.78,4.98,3.35,2.69.79,5.71-.6,7.32-2.89,1.59-2.26,1.98-5.13,2.31-7.87.44-3.57.88-7.14,1.31-10.71"/>
  <path class="cls-1" d="m92.42,104.35c5.07-7.72,9.91-16.43,9-25.62-.24-2.39-.87-4.73-1.19-7.11-.65-4.75-.08-9.57-.11-14.37-.01-2.42-.19-4.92-1.3-7.07s-3.36-3.87-5.77-3.68c-.72.06-1.5.33-1.84.97-.22.41-.23.91-.22,1.38.01,2.32.02,4.63.03,6.95"/>
  <path class="cls-1" d="m90.93,56.97c-8.37-1.32-16.79-2.64-25.26-2.7-5.46-.03-10.93.46-16.29,1.47"/>
  <path class="cls-1" d="m39.33,108.41c-4.21-4.23-8.61-8.76-10-14.57-.47-1.96-.58-4-.64-6.02-.12-3.69-.12-7.4.51-11.04.51-2.97,1.43-5.85,2.35-8.73.87-2.72,1.74-5.43,2.61-8.15.85-2.64,1.7-5.31,3.11-7.7,2.04-3.45,5.12-6.14,8.14-8.77-.39,3.32-.79,6.64-1.18,9.96-.08.63-.11,1.38.37,1.8.35.31.86.33,1.33.33,1.57,0,3.14.02,4.7.03"/>
  <path class="cls-1" d="m65.83,69.26c.08,2.89-.43,5.79-1.49,8.48"/>
  <path class="cls-1" d="m72.26,65.26c-.83,4.1-1.14,8.3-.92,12.47"/>
  <path class="cls-1" d="m53.93,132.09c1.5,10.23,5.09,20.36,11.68,28.32,6.6,7.96,16.44,13.55,26.78,13.62,12.45.08,24.43-7.54,36.71-5.47"/>
  <path class="cls-1" d="m121.73,155.45c5.87,6.81,9.02,15.59,10.64,24.42s1.84,17.86,2.56,26.82c.05.64.13,1.33.57,1.79.27.29.66.44,1.04.55,2.47.68,5.07-.56,7.05-2.18,6.91-5.7,8.61-15.56,8.55-24.51-.1-14.62-3.6-29.09-3.37-43.71"/>
  <path class="cls-1" d="m49.2,127.2c-3.07,13.89,1.15,29.19,10.91,39.54,3.9,4.14,8.74,7.69,10.96,12.93,1.82,4.29,1.62,9.21.47,13.72-.25.97-.4,2.26.49,2.71.31.15.66.15,1,.15,2.04-.03,4.08-.06,6.12-.09,1.4-.02,2.93-.09,3.99-1.01,1.17-1.03,1.35-2.75,1.43-4.3.31-6.19.25-12.4-.19-18.59"/>
  <path class="cls-1" d="m103.22,79.71c2.51,5.7,5.1,11.52,9.43,16,2.89,2.99,6.43,5.26,10.03,7.35,9.01,5.23,18.59,9.56,28.68,12.16,7.16,1.85,14.55,2.83,21.62,5s14.01,5.71,18.52,11.58c4.06,5.3,5.78,11.99,7.4,18.47,1.61,6.45,3.23,12.97,3.27,19.62.03,5.14-.98,10.5-4.15,14.54-3.17,4.04-8.87,6.38-13.65,4.52-.65-2.04.32-4.25,1.6-5.96,1.28-1.72,2.9-3.2,3.86-5.11,1.25-2.47,1.23-5.54-.05-8-2.77-5.32-10-6.5-13.97-10.99-2.76-3.12-3.84-7.71-7.33-9.98"/>
  <path class="cls-1" d="m150.6,165.39c3.84,1.29,7.96-.4,11.84-1.56,5.49-1.64,11.3-2.23,17.01-1.73"/>
  <path class="cls-1" d="m173.63,120.65c-.32-4.09,2.75-7.85,6.48-9.56s7.98-1.76,12.08-1.57c.31.01.63.03.91.15,1.16.48,1.03,2.34.05,3.12s-2.36.77-3.61.71c-2.19-.11-4.45-.28-6.52.46s-3.88,2.69-3.68,4.88c.17,1.88,1.7,3.31,3.13,4.54"/>
</svg>