<?xml version="1.0" encoding="UTF-8"?>
<svg id="Layer_1" data-name="Layer 1" xmlns="http://www.w3.org/2000/svg" viewBox="0 0 226.5 215.75">
  <defs>
    <style>
      .cls-1 {
        fill: none;
        stroke: #000;
        stroke-miterlimit: 10;
        stroke-width: 2px;
      }
    </style>
  </defs>
  <path class="cls-1" d="m70.21,46.75c-.21-3.45-2.87-6.2-5.35-8.6-1.04-1-2.09-2.02-3.38-2.67-1.43-.72-3.05-.95-4.62-1.24-5.61-1.05-11.03-3.13-15.9-6.1-.26,4.94-.53,9.92.17,14.82.7,4.9,2.43,9.77,5.72,13.47,3.29,3.7,8.29,6.06,13.2,5.41"/>
  <path class="cls-1" d="m71.13,46.75c3.73-6.09,10.34-10.33,17.44-11.17s14.52,1.73,19.57,6.78"/>
  <path class="cls-1" d="m108.45,43.02c.97-5.39,5.13-9.66,9.59-12.84,4.46-3.18,9.45-5.67,13.43-9.44.58,2.29.61,4.68.65,7.04.07,4.84.13,9.71-.66,14.48-.8,4.77-2.52,9.49-5.65,13.18-1.91,2.25-4.71,4.18-7.62,3.67"/>
  <path class="cls-1" d="m97.9,73.32c-.79.29-1.6.6-2.2,1.18-.6.58-.95,1.52-.6,2.28.41.88,1.51,1.17,2.47,1.28,2.29.26,4.62.12,6.87-.4.4-.09.8-.2,1.13-.44,1.02-.74.85-2.44-.06-3.31-.91-.87-2.27-1.07-3.53-1.04-1.26.03-2.53.23-3.77.01"/>
  <path class="cls-1" d="m117.96,58.77c-1.78,4.95-2.22,10.27-3.41,15.4-1.19,5.12-3.35,10.34-7.59,13.46-4.45,3.27-10.87,3.57-15.6.73-4.94-2.97-8.32-9.03-14.06-9.6"/>
  <path class="cls-1" d="m83.47,61.54c-.46,1.05.19,2.43,1.3,2.75.4.11.88.07,1.13-.26.3-.41.05-1.03-.39-1.29s-.97-.26-1.48-.25"/>
  <path class="cls-1" d="m107.35,62.22c1.2.23,2.43.3,3.65.19.58-.05,1.28-.25,1.42-.82.08-.33-.08-.67-.29-.93-.54-.67-1.5-.97-2.33-.73s-1.48.99-1.59,1.85"/>
  <path class="cls-1" d="m59.58,62.78c2.99,7.74,4.58,16.01,4.68,24.3.09,7.41-1,14.78-1.2,22.19-.2,7.41.56,15.07,4.07,21.59,4.47,8.32,12.78,13.75,20.75,18.83"/>
  <path class="cls-1" d="m65.76,128.59c-.63,7.95.61,15.92,1.01,23.88s-.12,16.29-3.94,23.29c-1.03,1.9-2.31,3.7-2.94,5.76s-.48,4.56,1.05,6.08c1.95,1.92,5.38,1.47,7.46-.31s3.1-4.48,3.86-7.11c3.69-12.77,3.16-26.33,2.6-39.61"/>
  <path class="cls-1" d="m101.1,129.9c9.75,14.68,13.73,33.09,10.92,50.49-.29,1.79-.47,4.01,1.05,5,1.56,1.01,3.61-.15,4.92-1.47,3.76-3.78,5.83-8.98,6.71-14.23s.69-10.63.49-15.95c-.31-8.28-.63-16.57-.94-24.85"/>
  <path class="cls-1" d="m113.14,78.39c1.3,10.08,7.04,19.08,13.76,26.71,6.73,7.62,14.55,14.23,21.23,21.88,3.22,3.69,6.17,7.61,8.81,11.73,1.24,1.93,2.42,3.92,3.15,6.1.79,2.36,1.01,4.87,1.17,7.35.32,4.78.44,9.58.36,14.37-.04,2.17-.13,4.42-1.08,6.37-1.5,3.07-4.87,4.84-8.23,5.45s-6.81.27-10.22.26c-7.32-.02-14.64,1.49-21.35,4.4"/>
  <path class="cls-1" d="m125.31,158.99c1.66,2.33,3.43,4.74,5.97,6.04,1.67.85,3.56,1.16,5.39,1.58,1.79.42,3.56.96,5.28,1.62.48.19,1.07.64.8,1.09-2.77.45-5.59.1-8.39.1s-5.76.43-7.96,2.16"/>
  <path class="cls-1" d="m87.34,148.94c3.02,1.96,6.65,2.66,10.1,3.7,5.79,1.75,11.26,4.57,16.04,8.28"/>
  <path class="cls-1" d="m112.53,161.21c-8.74,4.47-17.48,8.93-26.22,13.4-1.54.79-3.14,1.62-4.22,2.97s-1.51,3.4-.52,4.83c.97,1.42,3,1.76,4.66,1.3s3.06-1.55,4.46-2.54c6.1-4.29,13.61-7.22,20.97-5.98"/>
  <path class="cls-1" d="m115.49,49.54c-1.11-4.93.88-10.42,4.88-13.49"/>
  <path class="cls-1" d="m64.9,50.43c-.86-3.09-3.22-5.73-6.19-6.93"/>
</svg>