<?xml version="1.0" encoding="UTF-8"?>
<svg id="Layer_1" data-name="Layer 1" xmlns="http://www.w3.org/2000/svg" viewBox="0 0 420 187.75">
  <defs>
    <style>
      .cls-1 {
        fill: none;
        stroke: #000;
        stroke-miterlimit: 10;
        stroke-width: 3px;
      }
    </style>
  </defs>
  <path class="cls-1" d="m15.7,18.01l1.68,153.6"/>
  <path class="cls-1" d="m16.19,19.06c57.33-3.59,114.88-3.6,172.21-.05"/>
  <path class="cls-1" d="m189.79,19.24c4.42,50.36,8.84,100.71,13.26,151.07"/>
  <path class="cls-1" d="m202.06,171.39c-58.1-6.85-117.2-5.13-174.81,5.08-3.39.6-7.06,1.19-10.12-.38s-4.58-6.33-1.9-8.48"/>
  <path class="cls-1" d="m73.12,98.28c-2.58-19.44-5.16-38.97-4.81-58.58,4.95,10.66,8.77,21.86,11.36,33.32"/>
  <path class="cls-1" d="m79.36,73.92c12.38-.28,24.75-1.18,37.03-2.7"/>
  <path class="cls-1" d="m117.55,71.19c2.16-12.07,4.32-24.14,6.47-36.21,5.38,14.69,9.04,30.01,10.89,45.54"/>
  <path class="cls-1" d="m134.97,82.15c1.04,7.21,1.05,14.58.05,21.8-.49,3.57-1.29,7.23-3.42,10.13-3.31,4.53-9.15,6.36-14.67,7.33-4.94.87-9.95,1.29-14.97,1.24-3.3-.03-6.68-.29-9.72-1.58-4.9-2.09-8.31-6.6-11.07-11.15s-5.21-9.43-9.11-13.06"/>
  <path class="cls-1" d="m92.04,90.32c-.39-.44-1.03-.63-1.6-.46.58-.29.26-1.39-.39-1.32"/>
  <path class="cls-1" d="m118.83,84.88c-.7.43-.75,1.62-.07,2.07s1.79-.14,1.75-.97-1.28-1.27-1.81-.64"/>
  <path class="cls-1" d="m108.7,115.93c-3.43-.71-6.46-3.13-7.89-6.32-.09-.2-.17-.41-.13-.62.05-.29.31-.48.56-.64,4.14-2.73,9.16-4.1,14.11-3.87.68.03,1.37.1,1.96.44.9.51,1.37,1.58,1.44,2.61s-.2,2.06-.48,3.06c-.29,1.05-.6,2.13-1.28,2.99-1.55,1.94-4.4,2.06-6.88,2.01"/>
  <path class="cls-1" d="m86.09,116.6c-4.96,7.41-7.65,16.16-8.97,24.99s-1.34,17.78-1.35,26.7"/>
  <path class="cls-1" d="m135.48,106.97c13.51,17.05,21.73,38.24,23.25,59.94"/>
  <path class="cls-1" d="m81.62,125.12c12.3,7.99,29.01,8.63,41.89,1.6,6.16-3.36,11.34-8.23,16.21-13.29"/>
  <path class="cls-1" d="m96.24,122.17c-.54,2.43-.67,4.95-.38,7.43"/>
  <path class="cls-1" d="m105.32,122.16c-.96,2.72-1.32,5.65-1.04,8.51"/>
  <path class="cls-1" d="m127.56,44.82c-2.62,8.55-3.87,17.51-3.71,26.44,0,.34.03.71.27.95.23.23.58.27.9.29,2.8.18,5.62.01,8.37-.51"/>
  <path class="cls-1" d="m69.77,76.4l4.91-3.35c.2-.14.42-.29.49-.53.07-.24-.03-.5-.13-.73-1.1-2.36-3.03-4.23-4.24-6.53-1.63-3.11-1.82-6.75-1.98-10.26"/>
  <path class="cls-1" d="m220.09,18.52c-.11,37.07-.21,74.29,5.12,110.98,2.32,16,5.68,31.94,5.92,48.11"/>
  <path class="cls-1" d="m219.79,18.52c30.19-.61,60.38-1.22,90.56-1.83,28.94-.59,57.99-1.18,86.61-5.55"/>
  <path class="cls-1" d="m231.04,177.27c24.46.33,48.99.25,73.31-2.47,29.22-3.26,58.01-10.31,87.38-11.61,7.63-.34,15.38-.27,22.76,1.7"/>
  <path class="cls-1" d="m397.45,12.76c.68,19.92,1.05,39.85,1.1,59.78.04,14.7-.08,29.48,2.24,44,2.76,17.24,8.97,34,9.42,51.45"/>
  <path class="cls-1" d="m300.93,57.69c4.28-6.42,8.97-12.56,14.03-18.38.21-.24.5-.51.81-.43.3.08.41.43.48.73,1.36,5.92,1.83,12.04,1.39,18.1"/>
  <path class="cls-1" d="m300.43,56.42c-12.85,2.01-25.7,6.28-35.55,14.77-9.85,8.49-16.22,21.73-14.09,34.55.04.26.1.53.27.73.32.37.89.33,1.37.26,22.38-3.09,44.91-5.06,67.48-5.91"/>
  <path class="cls-1" d="m251.68,91.05c3.89-2.07,8.5-2.11,12.9-2.1.95,0,1.94.02,2.76.5,1.12.66,1.6,2.06,1.68,3.36.14,2.55-.95,5.04-2.53,7.05s-3.6,3.61-5.6,5.19"/>
  <path class="cls-1" d="m286.99,72.56c-.02.55,0,1.18.4,1.55s1.29.03,1.12-.49c-.21-.62-1.55-.77-1.19-1.32"/>
  <path class="cls-1" d="m319.1,52.53c11.9,3.08,21.98,11.23,29.59,20.88,7.61,9.65,13.03,20.81,18.38,31.87,6.44,13.3,12.88,26.6,19.32,39.9,2.74,5.67,5.5,11.36,8.97,16.61"/>
  <path class="cls-1" d="m311.31,101.51c3.02,5.95,6.04,11.9,8.8,17.97,1,2.19,1.98,4.47,1.98,6.87,0,2.86-1.37,5.51-2.69,8.05-6.14,11.88-11.78,25-9.74,38.22"/>
  <path class="cls-1" d="m320.73,119.75c3.16.23,6.27-.73,9.29-1.67,6.55-2.05,13.13-4.12,19.27-7.18s11.87-7.2,15.92-12.74"/>
  <path class="cls-1" d="m317.73,111.96c13.12-.89,25.9-6.32,35.65-15.15,2.05-1.86,4.02-3.93,5.11-6.47"/>
  <path class="cls-1" d="m332.27,109.3c-.27,2.14.16,4.36,1.21,6.23"/>
  <path class="cls-1" d="m336.62,108.49l2.47,4.11"/>
  <path class="cls-1" d="m302.16,58.33c3.28,1.14,7.29-.55,8.76-3.7,1.59-3.41.28-7.43.79-11.16"/>
  <path class="cls-1" d="m92.65,91.3c-1.07.04-2.16.08-3.18-.27s-1.94-1.16-2.09-2.22c-.03-.21-.03-.43.06-.62.07-.14.18-.25.29-.35.86-.73,2.18-.87,3.16-.32s1.57,1.74,1.41,2.85c-.03.21-.1.45-.28.56-.35.23-.8-.11-1.06-.45-.26-.35-.49-.73-.56-1.16s.05-.91.4-1.17c.3-.23.73-.26,1.06-.07s.51.58.46.95c-.07.48-.51.85-.99.94s-.97-.04-1.41-.25c-.53-.25-1.02-.61-1.41-1.05-.16-.18-.32-.41-.28-.65.04-.26.3-.43.54-.53.85-.35,1.96-.16,2.49.6s.15,2.03-.75,2.22c-.89.18-1.68-.67-1.96-1.54-.09-.28-.14-.62.03-.86.28-.4.89-.29,1.35-.12.84.3,1.8.72,2.02,1.59.02.09.04.19-.01.27-.05.08-.15.12-.24.15-1.24.35-2.7-.29-3.26-1.46-.19-.4-.28-.91-.02-1.27.1-.14.25-.24.4-.32,1.22-.65,2.82.14,3.48,1.36s.61,2.69.41,4.05"/>
</svg>