<svg width="1350" height="587" viewBox="0 0 1350 587" fill="none" xmlns="http://www.w3.org/2000/svg">
<circle cx="166" cy="421" r="166" fill="#F94143"/>
<circle cx="675" cy="421" r="166" fill="#F94143"/>
<circle cx="1184" cy="421" r="166" fill="#F94143"/>
<path d="M67.2422 53.4609C67.2422 52.7578 67.4505 52.2891 67.8672 52.0547C68.2839 51.7943 68.8047 51.638 69.4297 51.5859C70.0807 51.5078 70.7708 51.4688 71.5 51.4688C72.2292 51.4427 72.9062 51.3125 73.5312 51.0781C74.1823 50.8438 74.7161 50.4531 75.1328 49.9062C75.5495 49.3594 75.7578 48.513 75.7578 47.3672C75.7578 44.112 75.5755 41.3776 75.2109 39.1641C74.8724 36.9505 74.1693 35.1927 73.1016 33.8906C72.0599 32.5885 70.6016 31.7031 68.7266 31.2344C66.8776 30.7656 64.4557 30.6484 61.4609 30.8828C61.3828 30.8568 61.2526 30.7656 61.0703 30.6094C60.9141 30.4531 60.7448 30.2839 60.5625 30.1016C60.3802 29.9193 60.2109 29.75 60.0547 29.5938C59.9245 29.4115 59.8333 29.2812 59.7812 29.2031C59.7552 29.151 59.7422 29.099 59.7422 29.0469C59.7161 28.9688 59.7031 28.8776 59.7031 28.7734C59.7031 28.7214 59.7161 28.6562 59.7422 28.5781C59.7422 28.526 59.7552 28.474 59.7812 28.4219C59.8594 28.3438 59.9635 28.2526 60.0938 28.1484C60.25 28.0443 60.4193 27.9531 60.6016 27.875C60.8099 27.7708 60.9792 27.6927 61.1094 27.6406C61.2656 27.5625 61.3828 27.5234 61.4609 27.5234C61.9557 27.4974 62.6979 27.4583 63.6875 27.4062C64.7031 27.3542 65.849 27.3021 67.125 27.25C68.401 27.1719 69.7682 27.0938 71.2266 27.0156C72.7109 26.9375 74.1823 26.8724 75.6406 26.8203C77.125 26.7422 78.5312 26.6901 79.8594 26.6641C81.2135 26.638 82.4245 26.625 83.4922 26.625C83.4922 27.4323 83.3359 28.0573 83.0234 28.5C82.7109 28.9167 82.3203 29.2422 81.8516 29.4766C81.4089 29.6849 80.9141 29.8411 80.3672 29.9453C79.8464 30.0495 79.3516 30.1927 78.8828 30.375C78.4401 30.5312 78.0625 30.7917 77.75 31.1562C77.4375 31.4948 77.2812 32.0026 77.2812 32.6797C77.2812 34.0339 77.4115 35.349 77.6719 36.625C77.9583 37.901 78.2708 39.1771 78.6094 40.4531C78.9479 41.7031 79.2474 42.9661 79.5078 44.2422C79.7943 45.5182 79.9375 46.8073 79.9375 48.1094C79.9375 49.2812 79.6771 50.349 79.1562 51.3125C78.6354 52.276 77.9453 53.1094 77.0859 53.8125C76.2526 54.5156 75.3021 55.0755 74.2344 55.4922C73.1927 55.8828 72.151 56.0781 71.1094 56.0781C70.6927 56.0781 70.25 56.0391 69.7812 55.9609C69.3385 55.8828 68.9219 55.7396 68.5312 55.5312C68.1667 55.2969 67.8542 55.0234 67.5938 54.7109C67.3594 54.3724 67.2422 53.9557 67.2422 53.4609ZM94.1172 21.7031C94.2734 21.2344 94.4948 20.9609 94.7812 20.8828C95.0938 20.8047 95.4453 20.7656 95.8359 20.7656C96.4349 20.7656 97.099 21.1693 97.8281 21.9766C98.5833 22.7578 99.3516 23.8125 100.133 25.1406C100.914 26.4688 101.695 27.9922 102.477 29.7109C103.284 31.4297 104.052 33.2135 104.781 35.0625C105.536 36.8854 106.24 38.7083 106.891 40.5312C107.542 42.3542 108.102 44.0339 108.57 45.5703C109.065 47.0807 109.443 48.3958 109.703 49.5156C109.964 50.6354 110.094 51.4036 110.094 51.8203C110.094 52.237 109.99 52.6406 109.781 53.0312C109.599 53.3958 109.26 53.5781 108.766 53.5781C108.453 53.5781 108.18 53.487 107.945 53.3047C107.737 53.0964 107.555 52.849 107.398 52.5625C107.242 52.276 107.099 51.9896 106.969 51.7031C106.839 51.4167 106.721 51.1693 106.617 50.9609C106.513 50.6745 106.292 50.1276 105.953 49.3203C105.641 48.513 105.302 47.6667 104.938 46.7812C104.599 45.8958 104.273 45.0625 103.961 44.2812C103.648 43.5 103.427 42.9401 103.297 42.6016C101.474 42.2891 99.638 42.0026 97.7891 41.7422C95.9661 41.4557 94.0391 41.1823 92.0078 40.9219H91.5781C90.6406 44.9583 89.8073 48.1484 89.0781 50.4922C88.375 52.8359 87.776 54.5026 87.2812 55.4922C86.8125 56.4818 86.4349 56.8854 86.1484 56.7031C85.888 56.5469 85.7057 55.9609 85.6016 54.9453C85.5234 53.9036 85.5365 52.5234 85.6406 50.8047C85.7708 49.0859 85.9922 47.1979 86.3047 45.1406C86.6432 43.0573 87.0469 40.8828 87.5156 38.6172C87.9844 36.3516 88.5443 34.1641 89.1953 32.0547C89.8724 29.9453 90.6146 27.9922 91.4219 26.1953C92.2552 24.3724 93.1536 22.875 94.1172 21.7031ZM93.1797 35.4531C93.1797 36.4167 93.4922 37.1328 94.1172 37.6016C94.7422 38.0443 95.4974 38.3307 96.3828 38.4609C97.2682 38.5911 98.1927 38.6432 99.1562 38.6172C100.146 38.5911 100.992 38.5781 101.695 38.5781C101.695 37.5365 101.526 36.4167 101.188 35.2188C100.849 33.9948 100.419 32.7839 99.8984 31.5859C99.3776 30.388 98.8177 29.2292 98.2188 28.1094C97.6458 26.9635 97.112 25.9349 96.6172 25.0234C96.3307 25.3099 96.0182 25.8438 95.6797 26.625C95.3672 27.3802 95.0417 28.2396 94.7031 29.2031C94.3906 30.1406 94.1042 31.0651 93.8438 31.9766C93.5833 32.888 93.388 33.6302 93.2578 34.2031C93.2578 34.2812 93.2448 34.4896 93.2188 34.8281C93.1927 35.1406 93.1797 35.349 93.1797 35.4531ZM114.234 54.3203C114.13 53.9036 113.987 53.3047 113.805 52.5234C113.648 51.7422 113.466 50.8828 113.258 49.9453C113.076 49.0078 112.893 48.0312 112.711 47.0156C112.529 45.974 112.359 44.9714 112.203 44.0078C112.047 43.0182 111.917 42.1198 111.812 41.3125C111.734 40.4792 111.695 39.8021 111.695 39.2812C111.695 39.0469 111.721 38.6432 111.773 38.0703C111.826 37.4974 111.904 36.8984 112.008 36.2734C112.112 35.6484 112.203 35.0625 112.281 34.5156C112.385 33.9688 112.477 33.5911 112.555 33.3828C112.633 33.3568 112.763 33.3438 112.945 33.3438C113.154 33.3438 113.362 33.3307 113.57 33.3047C113.805 33.2786 114.013 33.2656 114.195 33.2656C114.404 33.2396 114.547 33.2266 114.625 33.2266C115.875 33.2266 117.06 33.474 118.18 33.9688C119.299 34.4635 120.367 35.0885 121.383 35.8438C122.398 36.599 123.388 37.4453 124.352 38.3828C125.315 39.3203 126.279 40.2318 127.242 41.1172C128.232 42.0026 129.234 42.8099 130.25 43.5391C131.266 44.2422 132.346 44.776 133.492 45.1406C133.492 45.0104 133.492 44.8151 133.492 44.5547C133.518 44.2682 133.531 43.9688 133.531 43.6562C133.531 43.3438 133.531 43.0573 133.531 42.7969C133.557 42.5104 133.57 42.3021 133.57 42.1719C133.57 40.5312 133.466 38.9297 133.258 37.3672C133.049 35.8047 132.815 34.2422 132.555 32.6797C132.294 31.1172 132.06 29.5547 131.852 27.9922C131.643 26.4036 131.539 24.776 131.539 23.1094C131.721 23.1094 131.943 23.1224 132.203 23.1484C132.49 23.1484 132.776 23.1875 133.062 23.2656C133.349 23.3177 133.609 23.4219 133.844 23.5781C134.078 23.7083 134.234 23.9167 134.312 24.2031C134.417 26.0781 134.651 27.9661 135.016 29.8672C135.38 31.7422 135.758 33.6302 136.148 35.5312C136.539 37.4062 136.878 39.2943 137.164 41.1953C137.477 43.0703 137.633 44.9323 137.633 46.7812C137.633 47.1198 137.62 47.4844 137.594 47.875C137.594 48.2656 137.542 48.6432 137.438 49.0078C137.359 49.3464 137.216 49.6328 137.008 49.8672C136.799 50.1016 136.487 50.2188 136.07 50.2188C134.716 50.2188 133.466 49.9193 132.32 49.3203C131.174 48.6953 130.055 47.9271 128.961 47.0156C127.893 46.1042 126.839 45.1016 125.797 44.0078C124.781 42.9141 123.727 41.9115 122.633 41C121.565 40.0885 120.445 39.3203 119.273 38.6953C118.128 38.0703 116.891 37.7578 115.562 37.7578C115.562 39.2161 115.667 40.6224 115.875 41.9766C116.083 43.3047 116.305 44.6328 116.539 45.9609C116.799 47.2891 117.034 48.6172 117.242 49.9453C117.451 51.2474 117.555 52.5755 117.555 53.9297C117.555 54.4245 117.372 54.763 117.008 54.9453C116.669 55.1276 116.292 55.2188 115.875 55.2188C115.536 55.2188 115.211 55.1927 114.898 55.1406C114.612 55.0625 114.391 54.7891 114.234 54.3203ZM159.469 43.3047C159.469 43.2266 159.482 43.0833 159.508 42.875C159.534 42.6406 159.547 42.5104 159.547 42.4844C159.964 42.4844 160.523 42.4583 161.227 42.4062C161.956 42.3281 162.75 42.263 163.609 42.2109C164.469 42.1328 165.354 42.0547 166.266 41.9766C167.203 41.8984 168.089 41.8464 168.922 41.8203C169.755 41.7943 170.523 41.7812 171.227 41.7812C171.93 41.7812 172.477 41.8203 172.867 41.8984C173.336 41.8984 173.661 41.9505 173.844 42.0547C174.052 42.1589 174.156 42.5104 174.156 43.1094C173.375 43.6302 172.398 44.0208 171.227 44.2812C170.055 44.5156 168.857 44.6849 167.633 44.7891C166.409 44.8932 165.211 44.9453 164.039 44.9453C162.893 44.9453 161.956 44.9583 161.227 44.9844C160.523 45.0365 160.055 44.8932 159.82 44.5547C159.586 44.2161 159.469 43.7995 159.469 43.3047ZM203.805 21.7031C203.961 21.2344 204.182 20.9609 204.469 20.8828C204.781 20.8047 205.133 20.7656 205.523 20.7656C206.122 20.7656 206.786 21.1693 207.516 21.9766C208.271 22.7578 209.039 23.8125 209.82 25.1406C210.602 26.4688 211.383 27.9922 212.164 29.7109C212.971 31.4297 213.74 33.2135 214.469 35.0625C215.224 36.8854 215.927 38.7083 216.578 40.5312C217.229 42.3542 217.789 44.0339 218.258 45.5703C218.753 47.0807 219.13 48.3958 219.391 49.5156C219.651 50.6354 219.781 51.4036 219.781 51.8203C219.781 52.237 219.677 52.6406 219.469 53.0312C219.286 53.3958 218.948 53.5781 218.453 53.5781C218.141 53.5781 217.867 53.487 217.633 53.3047C217.424 53.0964 217.242 52.849 217.086 52.5625C216.93 52.276 216.786 51.9896 216.656 51.7031C216.526 51.4167 216.409 51.1693 216.305 50.9609C216.201 50.6745 215.979 50.1276 215.641 49.3203C215.328 48.513 214.99 47.6667 214.625 46.7812C214.286 45.8958 213.961 45.0625 213.648 44.2812C213.336 43.5 213.115 42.9401 212.984 42.6016C211.161 42.2891 209.326 42.0026 207.477 41.7422C205.654 41.4557 203.727 41.1823 201.695 40.9219H201.266C200.328 44.9583 199.495 48.1484 198.766 50.4922C198.062 52.8359 197.464 54.5026 196.969 55.4922C196.5 56.4818 196.122 56.8854 195.836 56.7031C195.576 56.5469 195.393 55.9609 195.289 54.9453C195.211 53.9036 195.224 52.5234 195.328 50.8047C195.458 49.0859 195.68 47.1979 195.992 45.1406C196.331 43.0573 196.734 40.8828 197.203 38.6172C197.672 36.3516 198.232 34.1641 198.883 32.0547C199.56 29.9453 200.302 27.9922 201.109 26.1953C201.943 24.3724 202.841 22.875 203.805 21.7031ZM202.867 35.4531C202.867 36.4167 203.18 37.1328 203.805 37.6016C204.43 38.0443 205.185 38.3307 206.07 38.4609C206.956 38.5911 207.88 38.6432 208.844 38.6172C209.833 38.5911 210.68 38.5781 211.383 38.5781C211.383 37.5365 211.214 36.4167 210.875 35.2188C210.536 33.9948 210.107 32.7839 209.586 31.5859C209.065 30.388 208.505 29.2292 207.906 28.1094C207.333 26.9635 206.799 25.9349 206.305 25.0234C206.018 25.3099 205.706 25.8438 205.367 26.625C205.055 27.3802 204.729 28.2396 204.391 29.2031C204.078 30.1406 203.792 31.0651 203.531 31.9766C203.271 32.888 203.076 33.6302 202.945 34.2031C202.945 34.2812 202.932 34.4896 202.906 34.8281C202.88 35.1406 202.867 35.349 202.867 35.4531ZM221.773 25.1406C221.773 24.3333 221.917 23.6693 222.203 23.1484C222.516 22.6276 222.932 22.2109 223.453 21.8984C223.974 21.5599 224.547 21.3125 225.172 21.1562C225.823 21 226.487 20.8958 227.164 20.8438C227.867 20.7656 228.544 20.7396 229.195 20.7656C229.846 20.7656 230.445 20.7656 230.992 20.7656C232.06 20.7656 233.128 20.8698 234.195 21.0781C235.263 21.2865 236.201 21.651 237.008 22.1719C237.841 22.6927 238.518 23.3958 239.039 24.2812C239.56 25.1406 239.82 26.2214 239.82 27.5234C239.82 28.6693 239.586 29.8151 239.117 30.9609C238.674 32.0807 238.089 33.1615 237.359 34.2031C236.656 35.2188 235.849 36.1562 234.938 37.0156C234.026 37.849 233.115 38.5651 232.203 39.1641C231.318 39.763 230.458 40.2318 229.625 40.5703C228.818 40.9089 228.141 41.0391 227.594 40.9609C227.281 41.9766 227.086 43.0703 227.008 44.2422C226.956 45.388 226.943 46.5208 226.969 47.6406C226.995 48.7344 227.034 49.7891 227.086 50.8047C227.138 51.7943 227.086 52.6536 226.93 53.3828C226.799 54.0859 226.539 54.6198 226.148 54.9844C225.758 55.3229 225.159 55.4271 224.352 55.2969C224.117 53.4479 223.935 51.5729 223.805 49.6719C223.701 47.7708 223.609 45.8828 223.531 44.0078C223.453 42.1328 223.375 40.3099 223.297 38.5391C223.245 36.7422 223.154 35.0365 223.023 33.4219C222.919 31.8073 222.763 30.2969 222.555 28.8906C222.346 27.4844 222.086 26.2344 221.773 25.1406ZM231.422 24.125C231.031 24.125 230.549 24.138 229.977 24.1641C229.404 24.1901 228.844 24.2812 228.297 24.4375C227.776 24.5677 227.333 24.8151 226.969 25.1797C226.604 25.5182 226.422 26.013 226.422 26.6641V36.8984C227.49 36.8984 228.622 36.612 229.82 36.0391C231.018 35.4661 232.112 34.737 233.102 33.8516C234.091 32.9661 234.911 31.9635 235.562 30.8438C236.214 29.724 236.539 28.6172 236.539 27.5234C236.539 26.7161 236.383 26.0911 236.07 25.6484C235.784 25.2057 235.393 24.8672 234.898 24.6328C234.43 24.3984 233.896 24.2552 233.297 24.2031C232.698 24.151 232.073 24.125 231.422 24.125ZM240.562 28.4219C240.562 28.2135 240.576 27.875 240.602 27.4062C240.602 26.9115 240.602 26.4036 240.602 25.8828C240.602 25.3359 240.615 24.8281 240.641 24.3594C240.641 23.8646 240.641 23.526 240.641 23.3438C240.927 22.7969 241.37 22.4062 241.969 22.1719C242.594 21.9115 243.258 21.7422 243.961 21.6641C244.69 21.5599 245.393 21.5208 246.07 21.5469C246.773 21.5729 247.346 21.5859 247.789 21.5859C248.362 21.5859 249.026 21.612 249.781 21.6641C250.562 21.7161 251.331 21.8203 252.086 21.9766C252.867 22.1068 253.635 22.3151 254.391 22.6016C255.146 22.862 255.81 23.2135 256.383 23.6562C256.982 24.0729 257.451 24.5938 257.789 25.2188C258.154 25.8177 258.336 26.5339 258.336 27.3672C258.336 28.3568 258.102 29.2552 257.633 30.0625C257.164 30.8438 256.578 31.5859 255.875 32.2891C255.198 32.9661 254.443 33.6042 253.609 34.2031C252.802 34.8021 252.047 35.388 251.344 35.9609C250.667 36.5339 250.094 37.1198 249.625 37.7188C249.156 38.3177 248.922 38.9688 248.922 39.6719C248.922 39.724 248.935 39.8021 248.961 39.9062C249.013 39.9844 249.039 40.0365 249.039 40.0625C252.112 40.974 255.094 42.0807 257.984 43.3828C260.901 44.6849 263.766 46.0911 266.578 47.6016C266.656 47.6536 266.734 47.7578 266.812 47.9141C266.917 48.0443 267.008 48.2135 267.086 48.4219C267.164 48.6042 267.242 48.7734 267.32 48.9297C267.398 49.0859 267.438 49.2161 267.438 49.3203C267.438 49.5547 267.372 49.737 267.242 49.8672C267.112 49.9714 266.956 50.0625 266.773 50.1406C266.591 50.1927 266.409 50.2188 266.227 50.2188C266.044 50.2188 265.888 50.2188 265.758 50.2188C264.352 50.2188 262.945 49.9193 261.539 49.3203C260.159 48.6953 258.766 48.0052 257.359 47.25C255.953 46.4948 254.521 45.8047 253.062 45.1797C251.63 44.5547 250.133 44.2422 248.57 44.2422H247.32C247.737 45.2057 248.102 46.0651 248.414 46.8203C248.753 47.5755 249.026 48.3047 249.234 49.0078C249.469 49.7109 249.638 50.4271 249.742 51.1562C249.872 51.8594 249.938 52.6276 249.938 53.4609C249.938 53.6432 249.938 53.8646 249.938 54.125C249.938 54.3594 249.924 54.6068 249.898 54.8672C249.872 55.1276 249.794 55.362 249.664 55.5703C249.534 55.7786 249.326 55.9219 249.039 56C247.971 55.375 247.008 54.4115 246.148 53.1094C245.315 51.7812 244.586 50.2708 243.961 48.5781C243.336 46.8854 242.802 45.0885 242.359 43.1875C241.943 41.2865 241.591 39.4245 241.305 37.6016C241.044 35.7526 240.849 34.0339 240.719 32.4453C240.615 30.8307 240.562 29.4896 240.562 28.4219ZM243.922 30.8828C243.922 31.2214 243.896 31.6641 243.844 32.2109C243.818 32.7318 243.818 33.2786 243.844 33.8516C243.87 34.3984 243.948 34.9323 244.078 35.4531C244.234 35.9479 244.482 36.3776 244.82 36.7422C244.872 36.7682 244.924 36.7812 244.977 36.7812C245.003 36.8073 245.068 36.8203 245.172 36.8203C245.641 36.8203 246.201 36.6771 246.852 36.3906C247.529 36.1042 248.232 35.7266 248.961 35.2578C249.69 34.7891 250.406 34.2552 251.109 33.6562C251.839 33.0312 252.49 32.3932 253.062 31.7422C253.635 31.0911 254.091 30.4401 254.43 29.7891C254.794 29.112 254.977 28.5 254.977 27.9531C254.977 27.4323 254.781 26.9896 254.391 26.625C254 26.2344 253.531 25.9219 252.984 25.6875C252.438 25.4531 251.865 25.2839 251.266 25.1797C250.693 25.0755 250.224 25.0234 249.859 25.0234C249.417 25.0234 248.896 25.0234 248.297 25.0234C247.698 24.9974 247.099 25.0365 246.5 25.1406C245.927 25.2188 245.406 25.375 244.938 25.6094C244.469 25.8438 244.143 26.1953 243.961 26.6641C243.961 26.8203 243.961 27.0938 243.961 27.4844C243.961 27.875 243.961 28.3047 243.961 28.7734C243.961 29.2161 243.948 29.6328 243.922 30.0234C243.922 30.4141 243.922 30.7005 243.922 30.8828ZM130.016 141.211C130.016 139.779 130.146 138.372 130.406 136.992C130.693 135.586 131.005 134.18 131.344 132.773C131.682 131.367 131.982 129.948 132.242 128.516C132.529 127.057 132.672 125.586 132.672 124.102C132.672 123.893 132.659 123.555 132.633 123.086C132.633 122.591 132.633 122.083 132.633 121.562C132.633 121.042 132.62 120.547 132.594 120.078C132.594 119.583 132.594 119.245 132.594 119.062C132.542 118.958 132.411 118.802 132.203 118.594C131.995 118.385 131.852 118.255 131.773 118.203H131.344C130.484 118.203 129.768 118.398 129.195 118.789C128.622 119.154 128.128 119.609 127.711 120.156C127.32 120.703 126.956 121.315 126.617 121.992C126.279 122.643 125.901 123.242 125.484 123.789C125.094 124.336 124.638 124.805 124.117 125.195C123.622 125.56 122.997 125.742 122.242 125.742C122.242 124.362 122.477 123.021 122.945 121.719C123.414 120.391 124.078 119.219 124.938 118.203C125.823 117.161 126.865 116.328 128.062 115.703C129.286 115.078 130.628 114.766 132.086 114.766C132.711 114.766 133.219 114.792 133.609 114.844C134 114.896 134.339 115.013 134.625 115.195C134.911 115.378 135.146 115.651 135.328 116.016C135.51 116.354 135.719 116.823 135.953 117.422C135.953 117.63 135.953 118.008 135.953 118.555C135.953 119.076 135.953 119.648 135.953 120.273C135.979 120.898 135.992 121.497 135.992 122.07C136.018 122.617 136.031 122.995 136.031 123.203C136.031 124.583 135.953 125.938 135.797 127.266C135.641 128.594 135.445 129.909 135.211 131.211C135.003 132.513 134.82 133.828 134.664 135.156C134.508 136.458 134.43 137.786 134.43 139.141H135.133L144.352 134.961C144.378 134.961 144.43 134.961 144.508 134.961C144.612 134.935 144.729 134.922 144.859 134.922C144.99 134.922 145.107 134.922 145.211 134.922C145.341 134.896 145.432 134.883 145.484 134.883C145.719 134.883 145.966 134.896 146.227 134.922C146.487 134.948 146.721 135 146.93 135.078C147.164 135.156 147.359 135.286 147.516 135.469C147.672 135.651 147.75 135.898 147.75 136.211C147.75 136.758 147.581 137.188 147.242 137.5C146.904 137.812 146.5 138.06 146.031 138.242C145.589 138.424 145.12 138.581 144.625 138.711C144.156 138.841 143.766 138.984 143.453 139.141C143.219 139.271 142.841 139.466 142.32 139.727C141.826 139.987 141.24 140.286 140.562 140.625C139.885 140.938 139.182 141.276 138.453 141.641C137.724 142.005 137.034 142.357 136.383 142.695C135.732 143.034 135.146 143.333 134.625 143.594C134.104 143.854 133.714 144.036 133.453 144.141C133.401 144.141 133.31 144.154 133.18 144.18C133.076 144.18 132.945 144.18 132.789 144.18C132.659 144.18 132.529 144.193 132.398 144.219C132.294 144.219 132.216 144.219 132.164 144.219C131.643 144.219 131.227 144.167 130.914 144.062C130.628 143.932 130.419 143.75 130.289 143.516C130.159 143.255 130.081 142.943 130.055 142.578C130.029 142.214 130.016 141.758 130.016 141.211ZM148.453 130.273C148.453 129.206 148.544 128.073 148.727 126.875C148.909 125.677 149.195 124.505 149.586 123.359C149.977 122.214 150.471 121.12 151.07 120.078C151.669 119.036 152.372 118.125 153.18 117.344C153.987 116.536 154.898 115.911 155.914 115.469C156.956 115 158.115 114.766 159.391 114.766C161.161 114.766 162.724 115.052 164.078 115.625C165.458 116.198 166.604 117.005 167.516 118.047C168.453 119.089 169.156 120.339 169.625 121.797C170.094 123.229 170.328 124.805 170.328 126.523C170.328 127.721 170.211 129.023 169.977 130.43C169.742 131.836 169.365 133.229 168.844 134.609C168.349 135.964 167.724 137.266 166.969 138.516C166.214 139.766 165.341 140.872 164.352 141.836C163.362 142.799 162.229 143.568 160.953 144.141C159.703 144.714 158.349 145 156.891 145C155.589 145 154.469 144.766 153.531 144.297C152.62 143.828 151.852 143.203 151.227 142.422C150.602 141.641 150.107 140.742 149.742 139.727C149.378 138.685 149.091 137.63 148.883 136.562C148.701 135.469 148.583 134.375 148.531 133.281C148.479 132.188 148.453 131.185 148.453 130.273ZM151.773 132.031C151.773 133.073 151.826 134.167 151.93 135.312C152.034 136.432 152.294 137.474 152.711 138.438C153.128 139.375 153.727 140.156 154.508 140.781C155.289 141.38 156.357 141.68 157.711 141.68C158.831 141.68 159.833 141.419 160.719 140.898C161.604 140.352 162.385 139.648 163.062 138.789C163.74 137.93 164.326 136.966 164.82 135.898C165.341 134.805 165.758 133.698 166.07 132.578C166.383 131.458 166.617 130.378 166.773 129.336C166.93 128.294 167.008 127.37 167.008 126.562C167.008 125.391 166.917 124.284 166.734 123.242C166.552 122.201 166.227 121.302 165.758 120.547C165.289 119.792 164.638 119.206 163.805 118.789C162.971 118.346 161.865 118.125 160.484 118.125C159.339 118.125 158.323 118.346 157.438 118.789C156.578 119.232 155.823 119.818 155.172 120.547C154.521 121.276 153.974 122.122 153.531 123.086C153.115 124.023 152.776 125.013 152.516 126.055C152.255 127.096 152.06 128.138 151.93 129.18C151.826 130.195 151.773 131.146 151.773 132.031ZM179.391 141.211C179.391 139.779 179.521 138.372 179.781 136.992C180.068 135.586 180.38 134.18 180.719 132.773C181.057 131.367 181.357 129.948 181.617 128.516C181.904 127.057 182.047 125.586 182.047 124.102C182.047 123.893 182.034 123.555 182.008 123.086C182.008 122.591 182.008 122.083 182.008 121.562C182.008 121.042 181.995 120.547 181.969 120.078C181.969 119.583 181.969 119.245 181.969 119.062C181.917 118.958 181.786 118.802 181.578 118.594C181.37 118.385 181.227 118.255 181.148 118.203H180.719C179.859 118.203 179.143 118.398 178.57 118.789C177.997 119.154 177.503 119.609 177.086 120.156C176.695 120.703 176.331 121.315 175.992 121.992C175.654 122.643 175.276 123.242 174.859 123.789C174.469 124.336 174.013 124.805 173.492 125.195C172.997 125.56 172.372 125.742 171.617 125.742C171.617 124.362 171.852 123.021 172.32 121.719C172.789 120.391 173.453 119.219 174.312 118.203C175.198 117.161 176.24 116.328 177.438 115.703C178.661 115.078 180.003 114.766 181.461 114.766C182.086 114.766 182.594 114.792 182.984 114.844C183.375 114.896 183.714 115.013 184 115.195C184.286 115.378 184.521 115.651 184.703 116.016C184.885 116.354 185.094 116.823 185.328 117.422C185.328 117.63 185.328 118.008 185.328 118.555C185.328 119.076 185.328 119.648 185.328 120.273C185.354 120.898 185.367 121.497 185.367 122.07C185.393 122.617 185.406 122.995 185.406 123.203C185.406 124.583 185.328 125.938 185.172 127.266C185.016 128.594 184.82 129.909 184.586 131.211C184.378 132.513 184.195 133.828 184.039 135.156C183.883 136.458 183.805 137.786 183.805 139.141H184.508L193.727 134.961C193.753 134.961 193.805 134.961 193.883 134.961C193.987 134.935 194.104 134.922 194.234 134.922C194.365 134.922 194.482 134.922 194.586 134.922C194.716 134.896 194.807 134.883 194.859 134.883C195.094 134.883 195.341 134.896 195.602 134.922C195.862 134.948 196.096 135 196.305 135.078C196.539 135.156 196.734 135.286 196.891 135.469C197.047 135.651 197.125 135.898 197.125 136.211C197.125 136.758 196.956 137.188 196.617 137.5C196.279 137.812 195.875 138.06 195.406 138.242C194.964 138.424 194.495 138.581 194 138.711C193.531 138.841 193.141 138.984 192.828 139.141C192.594 139.271 192.216 139.466 191.695 139.727C191.201 139.987 190.615 140.286 189.938 140.625C189.26 140.938 188.557 141.276 187.828 141.641C187.099 142.005 186.409 142.357 185.758 142.695C185.107 143.034 184.521 143.333 184 143.594C183.479 143.854 183.089 144.036 182.828 144.141C182.776 144.141 182.685 144.154 182.555 144.18C182.451 144.18 182.32 144.18 182.164 144.18C182.034 144.18 181.904 144.193 181.773 144.219C181.669 144.219 181.591 144.219 181.539 144.219C181.018 144.219 180.602 144.167 180.289 144.062C180.003 143.932 179.794 143.75 179.664 143.516C179.534 143.255 179.456 142.943 179.43 142.578C179.404 142.214 179.391 141.758 179.391 141.211ZM197.828 119.883C197.828 119.544 197.828 119.049 197.828 118.398C197.828 117.721 197.893 117.057 198.023 116.406C198.154 115.729 198.362 115.143 198.648 114.648C198.935 114.154 199.378 113.906 199.977 113.906C200.315 113.906 200.589 114.206 200.797 114.805C201.031 115.378 201.214 116.107 201.344 116.992C201.5 117.852 201.604 118.815 201.656 119.883C201.734 120.924 201.786 121.914 201.812 122.852C201.865 123.789 201.904 124.609 201.93 125.312C201.956 125.99 201.995 126.406 202.047 126.562C202.125 126.979 202.268 127.604 202.477 128.438C202.711 129.271 202.958 130.221 203.219 131.289C203.479 132.331 203.766 133.424 204.078 134.57C204.391 135.716 204.677 136.81 204.938 137.852C205.224 138.893 205.484 139.831 205.719 140.664C205.953 141.497 206.135 142.096 206.266 142.461C206.266 142.513 206.279 142.591 206.305 142.695C206.331 142.799 206.344 142.878 206.344 142.93C206.344 143.216 206.24 143.451 206.031 143.633C205.849 143.789 205.615 143.919 205.328 144.023C205.068 144.102 204.794 144.154 204.508 144.18C204.221 144.206 203.961 144.219 203.727 144.219C203.622 144.219 203.466 144.206 203.258 144.18C203.076 144.154 202.958 144.141 202.906 144.141C202.359 142.318 201.773 140.404 201.148 138.398C200.549 136.367 200.003 134.31 199.508 132.227C199.013 130.143 198.609 128.06 198.297 125.977C197.984 123.867 197.828 121.836 197.828 119.883Z" fill="black"/>
<path d="M565.312 39.2812C565.312 38.9688 565.312 38.4609 565.312 37.7578C565.339 37.0286 565.352 36.2734 565.352 35.4922C565.352 34.6849 565.352 33.9297 565.352 33.2266C565.378 32.5234 565.391 32.0286 565.391 31.7422C565.417 31.5599 565.482 31.2865 565.586 30.9219C565.69 30.5312 565.807 30.1536 565.938 29.7891C566.094 29.4245 566.289 29.112 566.523 28.8516C566.784 28.5651 567.096 28.4219 567.461 28.4219C568.32 28.4219 569.128 28.6562 569.883 29.125C570.638 29.5938 571.367 30.2188 572.07 31C572.773 31.7552 573.438 32.6016 574.062 33.5391C574.714 34.4766 575.352 35.4141 575.977 36.3516C576.602 37.263 577.214 38.1354 577.812 38.9688C578.411 39.776 579.01 40.4271 579.609 40.9219C580.26 40.6354 580.768 40.1146 581.133 39.3594C581.497 38.5781 581.797 37.6927 582.031 36.7031C582.266 35.6875 582.474 34.6458 582.656 33.5781C582.865 32.4844 583.138 31.4818 583.477 30.5703C583.815 29.6589 584.258 28.9167 584.805 28.3438C585.378 27.7448 586.159 27.4453 587.148 27.4453C588.32 27.4453 589.375 27.901 590.312 28.8125C591.276 29.724 592.135 30.8828 592.891 32.2891C593.646 33.6953 594.284 35.2578 594.805 36.9766C595.352 38.6953 595.807 40.349 596.172 41.9375C596.536 43.526 596.81 44.9583 596.992 46.2344C597.174 47.5104 597.266 48.4219 597.266 48.9688C597.266 49.2031 597.253 49.4635 597.227 49.75C597.201 50.0104 597.135 50.2578 597.031 50.4922C596.927 50.7005 596.758 50.8698 596.523 51C596.289 51.1042 595.951 51.0911 595.508 50.9609C595.378 50.9349 595.221 50.8698 595.039 50.7656C594.883 50.6354 594.714 50.4792 594.531 50.2969C594.349 50.1146 594.193 49.9453 594.062 49.7891C593.932 49.6068 593.867 49.4505 593.867 49.3203C593.633 48.0443 593.372 46.625 593.086 45.0625C592.799 43.5 592.435 41.9245 591.992 40.3359C591.576 38.7214 591.042 37.1589 590.391 35.6484C589.74 34.138 588.932 32.8359 587.969 31.7422C587.214 32.1589 586.615 32.7969 586.172 33.6562C585.755 34.4896 585.404 35.4141 585.117 36.4297C584.831 37.4193 584.57 38.4349 584.336 39.4766C584.102 40.5182 583.789 41.4688 583.398 42.3281C583.008 43.1615 582.513 43.8516 581.914 44.3984C581.315 44.9453 580.508 45.2188 579.492 45.2188C578.789 45.2188 578.099 44.9974 577.422 44.5547C576.771 44.0859 576.133 43.487 575.508 42.7578C574.883 42.0026 574.271 41.1823 573.672 40.2969C573.099 39.3854 572.526 38.5 571.953 37.6406C571.406 36.7552 570.859 35.9349 570.312 35.1797C569.792 34.4245 569.258 33.8255 568.711 33.3828C568.503 34.1901 568.333 34.9062 568.203 35.5312C568.099 36.1302 568.008 36.7161 567.93 37.2891C567.878 37.862 567.839 38.4479 567.812 39.0469C567.812 39.6458 567.812 40.3099 567.812 41.0391C567.812 42.1328 567.904 43.2266 568.086 44.3203C568.268 45.388 568.464 46.4557 568.672 47.5234C568.88 48.5911 569.076 49.6719 569.258 50.7656C569.466 51.8333 569.57 52.9141 569.57 54.0078V54.3203C569.518 54.3984 569.414 54.5286 569.258 54.7109C569.102 54.8672 568.932 55.0365 568.75 55.2188C568.594 55.401 568.424 55.5703 568.242 55.7266C568.06 55.8568 567.93 55.9479 567.852 56C567.826 56.026 567.773 56.0391 567.695 56.0391C567.617 56.0651 567.539 56.0781 567.461 56.0781C567.409 56.0781 567.344 56.0651 567.266 56.0391C567.188 56.013 567.122 56 567.07 56C566.888 54.4896 566.693 53.0573 566.484 51.7031C566.276 50.349 566.081 49.0078 565.898 47.6797C565.742 46.3516 565.599 45.0104 565.469 43.6562C565.365 42.3021 565.312 40.8438 565.312 39.2812ZM608.047 21.7031C608.203 21.2344 608.424 20.9609 608.711 20.8828C609.023 20.8047 609.375 20.7656 609.766 20.7656C610.365 20.7656 611.029 21.1693 611.758 21.9766C612.513 22.7578 613.281 23.8125 614.062 25.1406C614.844 26.4688 615.625 27.9922 616.406 29.7109C617.214 31.4297 617.982 33.2135 618.711 35.0625C619.466 36.8854 620.169 38.7083 620.82 40.5312C621.471 42.3542 622.031 44.0339 622.5 45.5703C622.995 47.0807 623.372 48.3958 623.633 49.5156C623.893 50.6354 624.023 51.4036 624.023 51.8203C624.023 52.237 623.919 52.6406 623.711 53.0312C623.529 53.3958 623.19 53.5781 622.695 53.5781C622.383 53.5781 622.109 53.487 621.875 53.3047C621.667 53.0964 621.484 52.849 621.328 52.5625C621.172 52.276 621.029 51.9896 620.898 51.7031C620.768 51.4167 620.651 51.1693 620.547 50.9609C620.443 50.6745 620.221 50.1276 619.883 49.3203C619.57 48.513 619.232 47.6667 618.867 46.7812C618.529 45.8958 618.203 45.0625 617.891 44.2812C617.578 43.5 617.357 42.9401 617.227 42.6016C615.404 42.2891 613.568 42.0026 611.719 41.7422C609.896 41.4557 607.969 41.1823 605.938 40.9219H605.508C604.57 44.9583 603.737 48.1484 603.008 50.4922C602.305 52.8359 601.706 54.5026 601.211 55.4922C600.742 56.4818 600.365 56.8854 600.078 56.7031C599.818 56.5469 599.635 55.9609 599.531 54.9453C599.453 53.9036 599.466 52.5234 599.57 50.8047C599.701 49.0859 599.922 47.1979 600.234 45.1406C600.573 43.0573 600.977 40.8828 601.445 38.6172C601.914 36.3516 602.474 34.1641 603.125 32.0547C603.802 29.9453 604.544 27.9922 605.352 26.1953C606.185 24.3724 607.083 22.875 608.047 21.7031ZM607.109 35.4531C607.109 36.4167 607.422 37.1328 608.047 37.6016C608.672 38.0443 609.427 38.3307 610.312 38.4609C611.198 38.5911 612.122 38.6432 613.086 38.6172C614.076 38.5911 614.922 38.5781 615.625 38.5781C615.625 37.5365 615.456 36.4167 615.117 35.2188C614.779 33.9948 614.349 32.7839 613.828 31.5859C613.307 30.388 612.747 29.2292 612.148 28.1094C611.576 26.9635 611.042 25.9349 610.547 25.0234C610.26 25.3099 609.948 25.8438 609.609 26.625C609.297 27.3802 608.971 28.2396 608.633 29.2031C608.32 30.1406 608.034 31.0651 607.773 31.9766C607.513 32.888 607.318 33.6302 607.188 34.2031C607.188 34.2812 607.174 34.4896 607.148 34.8281C607.122 35.1406 607.109 35.349 607.109 35.4531ZM639.023 34.2031C638.008 33.9948 636.992 33.526 635.977 32.7969C634.961 32.0677 633.984 31.1823 633.047 30.1406C632.135 29.099 631.263 27.9401 630.43 26.6641C629.622 25.388 628.919 24.099 628.32 22.7969C627.721 21.4948 627.253 20.2318 626.914 19.0078C626.576 17.7839 626.406 16.6901 626.406 15.7266C626.406 15.5964 626.406 15.4401 626.406 15.2578C626.432 15.0755 626.458 14.9062 626.484 14.75C626.536 14.5677 626.628 14.4245 626.758 14.3203C626.888 14.1901 627.057 14.125 627.266 14.125C627.917 14.125 628.477 14.3594 628.945 14.8281C629.414 15.2708 629.844 15.8698 630.234 16.625C630.625 17.3802 630.99 18.2396 631.328 19.2031C631.667 20.1667 632.005 21.1432 632.344 22.1328C632.708 23.1224 633.086 24.099 633.477 25.0625C633.867 26.026 634.297 26.8854 634.766 27.6406C635.26 28.3958 635.82 29.0078 636.445 29.4766C637.07 29.9193 637.786 30.1406 638.594 30.1406C638.646 30.1406 638.711 30.1276 638.789 30.1016C638.893 30.0755 638.971 30.0625 639.023 30.0625C639.753 29.4115 640.404 28.5521 640.977 27.4844C641.576 26.3906 642.122 25.2188 642.617 23.9688C643.112 22.7188 643.594 21.4297 644.062 20.1016C644.531 18.7734 645.013 17.5365 645.508 16.3906C646.029 15.2448 646.562 14.2422 647.109 13.3828C647.682 12.5234 648.333 11.9245 649.062 11.5859L650.742 13.3047C650.951 13.513 650.977 13.9427 650.82 14.5938C650.69 15.2188 650.443 16.013 650.078 16.9766C649.74 17.9141 649.31 18.9688 648.789 20.1406C648.268 21.2865 647.721 22.4844 647.148 23.7344C646.576 24.9844 646.003 26.2344 645.43 27.4844C644.857 28.7083 644.336 29.8672 643.867 30.9609C643.424 32.0547 643.06 33.0312 642.773 33.8906C642.487 34.75 642.344 35.4271 642.344 35.9219C642.344 37.4844 642.565 38.9948 643.008 40.4531C643.477 41.9115 643.971 43.3698 644.492 44.8281C645.013 46.2604 645.495 47.7057 645.938 49.1641C646.38 50.5964 646.602 52.0677 646.602 53.5781C646.602 53.7865 646.602 54.0599 646.602 54.3984C646.602 54.7109 646.549 55.0104 646.445 55.2969C646.367 55.5833 646.198 55.8047 645.938 55.9609C645.703 56.1172 645.352 56.1302 644.883 56C643.919 54.5938 643.073 53.0052 642.344 51.2344C641.615 49.4375 640.99 47.5755 640.469 45.6484C639.948 43.7214 639.557 41.7812 639.297 39.8281C639.062 37.849 638.971 35.974 639.023 34.2031ZM671.719 43.3047C671.719 43.2266 671.732 43.0833 671.758 42.875C671.784 42.6406 671.797 42.5104 671.797 42.4844C672.214 42.4844 672.773 42.4583 673.477 42.4062C674.206 42.3281 675 42.263 675.859 42.2109C676.719 42.1328 677.604 42.0547 678.516 41.9766C679.453 41.8984 680.339 41.8464 681.172 41.8203C682.005 41.7943 682.773 41.7812 683.477 41.7812C684.18 41.7812 684.727 41.8203 685.117 41.8984C685.586 41.8984 685.911 41.9505 686.094 42.0547C686.302 42.1589 686.406 42.5104 686.406 43.1094C685.625 43.6302 684.648 44.0208 683.477 44.2812C682.305 44.5156 681.107 44.6849 679.883 44.7891C678.659 44.8932 677.461 44.9453 676.289 44.9453C675.143 44.9453 674.206 44.9583 673.477 44.9844C672.773 45.0365 672.305 44.8932 672.07 44.5547C671.836 44.2161 671.719 43.7995 671.719 43.3047ZM716.055 21.7031C716.211 21.2344 716.432 20.9609 716.719 20.8828C717.031 20.8047 717.383 20.7656 717.773 20.7656C718.372 20.7656 719.036 21.1693 719.766 21.9766C720.521 22.7578 721.289 23.8125 722.07 25.1406C722.852 26.4688 723.633 27.9922 724.414 29.7109C725.221 31.4297 725.99 33.2135 726.719 35.0625C727.474 36.8854 728.177 38.7083 728.828 40.5312C729.479 42.3542 730.039 44.0339 730.508 45.5703C731.003 47.0807 731.38 48.3958 731.641 49.5156C731.901 50.6354 732.031 51.4036 732.031 51.8203C732.031 52.237 731.927 52.6406 731.719 53.0312C731.536 53.3958 731.198 53.5781 730.703 53.5781C730.391 53.5781 730.117 53.487 729.883 53.3047C729.674 53.0964 729.492 52.849 729.336 52.5625C729.18 52.276 729.036 51.9896 728.906 51.7031C728.776 51.4167 728.659 51.1693 728.555 50.9609C728.451 50.6745 728.229 50.1276 727.891 49.3203C727.578 48.513 727.24 47.6667 726.875 46.7812C726.536 45.8958 726.211 45.0625 725.898 44.2812C725.586 43.5 725.365 42.9401 725.234 42.6016C723.411 42.2891 721.576 42.0026 719.727 41.7422C717.904 41.4557 715.977 41.1823 713.945 40.9219H713.516C712.578 44.9583 711.745 48.1484 711.016 50.4922C710.312 52.8359 709.714 54.5026 709.219 55.4922C708.75 56.4818 708.372 56.8854 708.086 56.7031C707.826 56.5469 707.643 55.9609 707.539 54.9453C707.461 53.9036 707.474 52.5234 707.578 50.8047C707.708 49.0859 707.93 47.1979 708.242 45.1406C708.581 43.0573 708.984 40.8828 709.453 38.6172C709.922 36.3516 710.482 34.1641 711.133 32.0547C711.81 29.9453 712.552 27.9922 713.359 26.1953C714.193 24.3724 715.091 22.875 716.055 21.7031ZM715.117 35.4531C715.117 36.4167 715.43 37.1328 716.055 37.6016C716.68 38.0443 717.435 38.3307 718.32 38.4609C719.206 38.5911 720.13 38.6432 721.094 38.6172C722.083 38.5911 722.93 38.5781 723.633 38.5781C723.633 37.5365 723.464 36.4167 723.125 35.2188C722.786 33.9948 722.357 32.7839 721.836 31.5859C721.315 30.388 720.755 29.2292 720.156 28.1094C719.583 26.9635 719.049 25.9349 718.555 25.0234C718.268 25.3099 717.956 25.8438 717.617 26.625C717.305 27.3802 716.979 28.2396 716.641 29.2031C716.328 30.1406 716.042 31.0651 715.781 31.9766C715.521 32.888 715.326 33.6302 715.195 34.2031C715.195 34.2812 715.182 34.4896 715.156 34.8281C715.13 35.1406 715.117 35.349 715.117 35.4531ZM735.312 29.2031C735.729 29.5156 736.068 29.9062 736.328 30.375C736.589 30.8177 736.797 31.2734 736.953 31.7422C736.979 32.7318 736.992 33.9167 736.992 35.2969C736.992 36.6771 737.044 38.1094 737.148 39.5938C737.253 41.0781 737.448 42.5625 737.734 44.0469C738.021 45.5052 738.464 46.8203 739.062 47.9922C739.688 49.1641 740.508 50.1146 741.523 50.8438C742.565 51.5469 743.867 51.8984 745.43 51.8984C746.862 51.8984 748.086 51.5599 749.102 50.8828C750.143 50.2057 751.003 49.3464 751.68 48.3047C752.383 47.263 752.891 46.1042 753.203 44.8281C753.542 43.526 753.711 42.263 753.711 41.0391C753.711 38.6693 753.594 36.2604 753.359 33.8125C753.125 31.3385 752.695 28.9557 752.07 26.6641C752.253 26.1953 752.487 25.9349 752.773 25.8828C753.06 25.8047 753.372 25.7656 753.711 25.7656C754.388 25.7656 754.922 26.0391 755.312 26.5859C755.703 27.1328 755.99 27.8359 756.172 28.6953C756.38 29.5286 756.497 30.4531 756.523 31.4688C756.576 32.4583 756.576 33.4089 756.523 34.3203C756.497 35.2057 756.445 36 756.367 36.7031C756.315 37.3802 756.289 37.8099 756.289 37.9922C756.289 39.3464 756.25 40.7266 756.172 42.1328C756.12 43.513 755.964 44.8411 755.703 46.1172C755.469 47.3932 755.104 48.5911 754.609 49.7109C754.141 50.8047 753.503 51.7682 752.695 52.6016C751.888 53.4089 750.885 54.0469 749.688 54.5156C748.49 54.9844 747.057 55.2188 745.391 55.2188C743.281 55.2188 741.549 54.8151 740.195 54.0078C738.841 53.2005 737.747 52.1328 736.914 50.8047C736.107 49.4505 735.495 47.9141 735.078 46.1953C734.688 44.4766 734.401 42.7188 734.219 40.9219C734.062 39.125 733.945 37.3542 733.867 35.6094C733.815 33.8646 733.737 32.2891 733.633 30.8828L735.312 29.2031ZM757.812 42.1328C757.812 40.8307 757.995 39.5026 758.359 38.1484C758.75 36.7943 759.271 35.4792 759.922 34.2031C760.599 32.9271 761.393 31.7161 762.305 30.5703C763.242 29.4245 764.271 28.4349 765.391 27.6016C766.536 26.7422 767.747 26.0781 769.023 25.6094C770.326 25.1146 771.667 24.8672 773.047 24.8672C773.646 24.8672 774.414 24.9323 775.352 25.0625C776.315 25.1927 777.24 25.4141 778.125 25.7266C779.036 26.0391 779.805 26.4557 780.43 26.9766C781.081 27.4714 781.406 28.0703 781.406 28.7734C781.406 28.8255 781.393 28.8776 781.367 28.9297C781.367 28.9557 781.367 28.9948 781.367 29.0469C781.341 29.099 781.328 29.151 781.328 29.2031C781.276 29.2812 781.146 29.4375 780.938 29.6719C780.729 29.8802 780.586 30.0104 780.508 30.0625C780.456 30.0885 780.391 30.1016 780.312 30.1016C780.234 30.1276 780.156 30.1406 780.078 30.1406C779.974 30.1406 779.896 30.1276 779.844 30.1016C779.792 30.1016 779.74 30.0885 779.688 30.0625C779.557 29.9844 779.245 29.8281 778.75 29.5938C778.255 29.3333 777.721 29.0599 777.148 28.7734C776.576 28.487 776.042 28.2266 775.547 27.9922C775.052 27.7318 774.74 27.5755 774.609 27.5234C774.505 27.5234 774.401 27.5104 774.297 27.4844C774.219 27.4844 774.141 27.4844 774.062 27.4844C773.984 27.4583 773.919 27.4453 773.867 27.4453C772.643 27.4453 771.471 27.6667 770.352 28.1094C769.232 28.5521 768.203 29.1641 767.266 29.9453C766.328 30.7266 765.482 31.625 764.727 32.6406C763.971 33.6562 763.32 34.737 762.773 35.8828C762.253 37.0026 761.849 38.1615 761.562 39.3594C761.302 40.5312 761.172 41.6771 761.172 42.7969C761.172 44.2552 761.406 45.5573 761.875 46.7031C762.344 47.849 762.995 48.8125 763.828 49.5938C764.661 50.349 765.651 50.9219 766.797 51.3125C767.969 51.7031 769.232 51.8984 770.586 51.8984C771.367 51.8984 772.331 51.7943 773.477 51.5859C774.622 51.3776 775.716 51.0391 776.758 50.5703C777.826 50.1016 778.724 49.5026 779.453 48.7734C780.182 48.0182 780.547 47.0938 780.547 46C780.547 45.5573 780.482 45.2188 780.352 44.9844C780.221 44.724 780.039 44.5417 779.805 44.4375C779.57 44.3073 779.284 44.2422 778.945 44.2422C778.607 44.2161 778.255 44.2031 777.891 44.2031C777.318 44.2031 776.823 44.2943 776.406 44.4766C775.99 44.6589 775.573 44.8672 775.156 45.1016C774.766 45.3359 774.362 45.5443 773.945 45.7266C773.555 45.9089 773.086 46 772.539 46C771.862 46 771.328 45.8958 770.938 45.6875C770.547 45.4792 770.352 44.9974 770.352 44.2422C770.352 43.513 770.612 42.9271 771.133 42.4844C771.68 42.0156 772.318 41.6641 773.047 41.4297C773.802 41.1953 774.583 41.0391 775.391 40.9609C776.198 40.8828 776.862 40.8438 777.383 40.8438C778.32 40.8438 779.193 40.9219 780 41.0781C780.807 41.2083 781.497 41.4688 782.07 41.8594C782.669 42.224 783.125 42.7448 783.438 43.4219C783.75 44.0729 783.906 44.9193 783.906 45.9609C783.906 47.5755 783.464 48.9818 782.578 50.1797C781.693 51.3516 780.573 52.3151 779.219 53.0703C777.891 53.8255 776.445 54.3984 774.883 54.7891C773.346 55.1536 771.914 55.3359 770.586 55.3359C768.711 55.3359 766.979 55.0104 765.391 54.3594C763.828 53.7083 762.487 52.7969 761.367 51.625C760.247 50.4271 759.375 49.0208 758.75 47.4062C758.125 45.7656 757.812 44.0078 757.812 42.1328ZM641.016 141.211C641.016 139.779 641.146 138.372 641.406 136.992C641.693 135.586 642.005 134.18 642.344 132.773C642.682 131.367 642.982 129.948 643.242 128.516C643.529 127.057 643.672 125.586 643.672 124.102C643.672 123.893 643.659 123.555 643.633 123.086C643.633 122.591 643.633 122.083 643.633 121.562C643.633 121.042 643.62 120.547 643.594 120.078C643.594 119.583 643.594 119.245 643.594 119.062C643.542 118.958 643.411 118.802 643.203 118.594C642.995 118.385 642.852 118.255 642.773 118.203H642.344C641.484 118.203 640.768 118.398 640.195 118.789C639.622 119.154 639.128 119.609 638.711 120.156C638.32 120.703 637.956 121.315 637.617 121.992C637.279 122.643 636.901 123.242 636.484 123.789C636.094 124.336 635.638 124.805 635.117 125.195C634.622 125.56 633.997 125.742 633.242 125.742C633.242 124.362 633.477 123.021 633.945 121.719C634.414 120.391 635.078 119.219 635.938 118.203C636.823 117.161 637.865 116.328 639.062 115.703C640.286 115.078 641.628 114.766 643.086 114.766C643.711 114.766 644.219 114.792 644.609 114.844C645 114.896 645.339 115.013 645.625 115.195C645.911 115.378 646.146 115.651 646.328 116.016C646.51 116.354 646.719 116.823 646.953 117.422C646.953 117.63 646.953 118.008 646.953 118.555C646.953 119.076 646.953 119.648 646.953 120.273C646.979 120.898 646.992 121.497 646.992 122.07C647.018 122.617 647.031 122.995 647.031 123.203C647.031 124.583 646.953 125.938 646.797 127.266C646.641 128.594 646.445 129.909 646.211 131.211C646.003 132.513 645.82 133.828 645.664 135.156C645.508 136.458 645.43 137.786 645.43 139.141H646.133L655.352 134.961C655.378 134.961 655.43 134.961 655.508 134.961C655.612 134.935 655.729 134.922 655.859 134.922C655.99 134.922 656.107 134.922 656.211 134.922C656.341 134.896 656.432 134.883 656.484 134.883C656.719 134.883 656.966 134.896 657.227 134.922C657.487 134.948 657.721 135 657.93 135.078C658.164 135.156 658.359 135.286 658.516 135.469C658.672 135.651 658.75 135.898 658.75 136.211C658.75 136.758 658.581 137.188 658.242 137.5C657.904 137.812 657.5 138.06 657.031 138.242C656.589 138.424 656.12 138.581 655.625 138.711C655.156 138.841 654.766 138.984 654.453 139.141C654.219 139.271 653.841 139.466 653.32 139.727C652.826 139.987 652.24 140.286 651.562 140.625C650.885 140.938 650.182 141.276 649.453 141.641C648.724 142.005 648.034 142.357 647.383 142.695C646.732 143.034 646.146 143.333 645.625 143.594C645.104 143.854 644.714 144.036 644.453 144.141C644.401 144.141 644.31 144.154 644.18 144.18C644.076 144.18 643.945 144.18 643.789 144.18C643.659 144.18 643.529 144.193 643.398 144.219C643.294 144.219 643.216 144.219 643.164 144.219C642.643 144.219 642.227 144.167 641.914 144.062C641.628 143.932 641.419 143.75 641.289 143.516C641.159 143.255 641.081 142.943 641.055 142.578C641.029 142.214 641.016 141.758 641.016 141.211ZM659.453 130.273C659.453 129.206 659.544 128.073 659.727 126.875C659.909 125.677 660.195 124.505 660.586 123.359C660.977 122.214 661.471 121.12 662.07 120.078C662.669 119.036 663.372 118.125 664.18 117.344C664.987 116.536 665.898 115.911 666.914 115.469C667.956 115 669.115 114.766 670.391 114.766C672.161 114.766 673.724 115.052 675.078 115.625C676.458 116.198 677.604 117.005 678.516 118.047C679.453 119.089 680.156 120.339 680.625 121.797C681.094 123.229 681.328 124.805 681.328 126.523C681.328 127.721 681.211 129.023 680.977 130.43C680.742 131.836 680.365 133.229 679.844 134.609C679.349 135.964 678.724 137.266 677.969 138.516C677.214 139.766 676.341 140.872 675.352 141.836C674.362 142.799 673.229 143.568 671.953 144.141C670.703 144.714 669.349 145 667.891 145C666.589 145 665.469 144.766 664.531 144.297C663.62 143.828 662.852 143.203 662.227 142.422C661.602 141.641 661.107 140.742 660.742 139.727C660.378 138.685 660.091 137.63 659.883 136.562C659.701 135.469 659.583 134.375 659.531 133.281C659.479 132.188 659.453 131.185 659.453 130.273ZM662.773 132.031C662.773 133.073 662.826 134.167 662.93 135.312C663.034 136.432 663.294 137.474 663.711 138.438C664.128 139.375 664.727 140.156 665.508 140.781C666.289 141.38 667.357 141.68 668.711 141.68C669.831 141.68 670.833 141.419 671.719 140.898C672.604 140.352 673.385 139.648 674.062 138.789C674.74 137.93 675.326 136.966 675.82 135.898C676.341 134.805 676.758 133.698 677.07 132.578C677.383 131.458 677.617 130.378 677.773 129.336C677.93 128.294 678.008 127.37 678.008 126.562C678.008 125.391 677.917 124.284 677.734 123.242C677.552 122.201 677.227 121.302 676.758 120.547C676.289 119.792 675.638 119.206 674.805 118.789C673.971 118.346 672.865 118.125 671.484 118.125C670.339 118.125 669.323 118.346 668.438 118.789C667.578 119.232 666.823 119.818 666.172 120.547C665.521 121.276 664.974 122.122 664.531 123.086C664.115 124.023 663.776 125.013 663.516 126.055C663.255 127.096 663.06 128.138 662.93 129.18C662.826 130.195 662.773 131.146 662.773 132.031ZM690.391 141.211C690.391 139.779 690.521 138.372 690.781 136.992C691.068 135.586 691.38 134.18 691.719 132.773C692.057 131.367 692.357 129.948 692.617 128.516C692.904 127.057 693.047 125.586 693.047 124.102C693.047 123.893 693.034 123.555 693.008 123.086C693.008 122.591 693.008 122.083 693.008 121.562C693.008 121.042 692.995 120.547 692.969 120.078C692.969 119.583 692.969 119.245 692.969 119.062C692.917 118.958 692.786 118.802 692.578 118.594C692.37 118.385 692.227 118.255 692.148 118.203H691.719C690.859 118.203 690.143 118.398 689.57 118.789C688.997 119.154 688.503 119.609 688.086 120.156C687.695 120.703 687.331 121.315 686.992 121.992C686.654 122.643 686.276 123.242 685.859 123.789C685.469 124.336 685.013 124.805 684.492 125.195C683.997 125.56 683.372 125.742 682.617 125.742C682.617 124.362 682.852 123.021 683.32 121.719C683.789 120.391 684.453 119.219 685.312 118.203C686.198 117.161 687.24 116.328 688.438 115.703C689.661 115.078 691.003 114.766 692.461 114.766C693.086 114.766 693.594 114.792 693.984 114.844C694.375 114.896 694.714 115.013 695 115.195C695.286 115.378 695.521 115.651 695.703 116.016C695.885 116.354 696.094 116.823 696.328 117.422C696.328 117.63 696.328 118.008 696.328 118.555C696.328 119.076 696.328 119.648 696.328 120.273C696.354 120.898 696.367 121.497 696.367 122.07C696.393 122.617 696.406 122.995 696.406 123.203C696.406 124.583 696.328 125.938 696.172 127.266C696.016 128.594 695.82 129.909 695.586 131.211C695.378 132.513 695.195 133.828 695.039 135.156C694.883 136.458 694.805 137.786 694.805 139.141H695.508L704.727 134.961C704.753 134.961 704.805 134.961 704.883 134.961C704.987 134.935 705.104 134.922 705.234 134.922C705.365 134.922 705.482 134.922 705.586 134.922C705.716 134.896 705.807 134.883 705.859 134.883C706.094 134.883 706.341 134.896 706.602 134.922C706.862 134.948 707.096 135 707.305 135.078C707.539 135.156 707.734 135.286 707.891 135.469C708.047 135.651 708.125 135.898 708.125 136.211C708.125 136.758 707.956 137.188 707.617 137.5C707.279 137.812 706.875 138.06 706.406 138.242C705.964 138.424 705.495 138.581 705 138.711C704.531 138.841 704.141 138.984 703.828 139.141C703.594 139.271 703.216 139.466 702.695 139.727C702.201 139.987 701.615 140.286 700.938 140.625C700.26 140.938 699.557 141.276 698.828 141.641C698.099 142.005 697.409 142.357 696.758 142.695C696.107 143.034 695.521 143.333 695 143.594C694.479 143.854 694.089 144.036 693.828 144.141C693.776 144.141 693.685 144.154 693.555 144.18C693.451 144.18 693.32 144.18 693.164 144.18C693.034 144.18 692.904 144.193 692.773 144.219C692.669 144.219 692.591 144.219 692.539 144.219C692.018 144.219 691.602 144.167 691.289 144.062C691.003 143.932 690.794 143.75 690.664 143.516C690.534 143.255 690.456 142.943 690.43 142.578C690.404 142.214 690.391 141.758 690.391 141.211ZM708.828 119.883C708.828 119.544 708.828 119.049 708.828 118.398C708.828 117.721 708.893 117.057 709.023 116.406C709.154 115.729 709.362 115.143 709.648 114.648C709.935 114.154 710.378 113.906 710.977 113.906C711.315 113.906 711.589 114.206 711.797 114.805C712.031 115.378 712.214 116.107 712.344 116.992C712.5 117.852 712.604 118.815 712.656 119.883C712.734 120.924 712.786 121.914 712.812 122.852C712.865 123.789 712.904 124.609 712.93 125.312C712.956 125.99 712.995 126.406 713.047 126.562C713.125 126.979 713.268 127.604 713.477 128.438C713.711 129.271 713.958 130.221 714.219 131.289C714.479 132.331 714.766 133.424 715.078 134.57C715.391 135.716 715.677 136.81 715.938 137.852C716.224 138.893 716.484 139.831 716.719 140.664C716.953 141.497 717.135 142.096 717.266 142.461C717.266 142.513 717.279 142.591 717.305 142.695C717.331 142.799 717.344 142.878 717.344 142.93C717.344 143.216 717.24 143.451 717.031 143.633C716.849 143.789 716.615 143.919 716.328 144.023C716.068 144.102 715.794 144.154 715.508 144.18C715.221 144.206 714.961 144.219 714.727 144.219C714.622 144.219 714.466 144.206 714.258 144.18C714.076 144.154 713.958 144.141 713.906 144.141C713.359 142.318 712.773 140.404 712.148 138.398C711.549 136.367 711.003 134.31 710.508 132.227C710.013 130.143 709.609 128.06 709.297 125.977C708.984 123.867 708.828 121.836 708.828 119.883Z" fill="black"/>
<path d="M1101.02 54.3203C1101.15 53.6953 1101.48 53.1875 1102 52.7969C1102.54 52.3802 1103.15 52.0026 1103.83 51.6641C1104.54 51.3255 1105.26 51.013 1106.02 50.7266C1106.77 50.4141 1107.46 50.0885 1108.09 49.75C1108.74 49.4115 1109.27 49.0208 1109.69 48.5781C1110.11 48.1094 1110.32 47.5495 1110.32 46.8984C1110.32 46.0651 1110.1 45.375 1109.65 44.8281C1109.24 44.2812 1108.66 43.8125 1107.93 43.4219C1107.23 43.0312 1106.42 42.7057 1105.51 42.4453C1104.6 42.1849 1103.66 41.9245 1102.7 41.6641C1101.76 41.3776 1100.84 41.0781 1099.93 40.7656C1099.01 40.4271 1098.19 40.0104 1097.46 39.5156C1096.76 39.0208 1096.19 38.4219 1095.75 37.7188C1095.33 37.0156 1095.12 36.1432 1095.12 35.1016C1095.12 34.2422 1095.29 33.4349 1095.63 32.6797C1095.99 31.8984 1096.46 31.1693 1097.04 30.4922C1097.63 29.7891 1098.31 29.151 1099.07 28.5781C1099.85 28.0052 1100.65 27.5234 1101.49 27.1328C1102.35 26.7422 1103.21 26.4427 1104.07 26.2344C1104.93 26 1105.72 25.8828 1106.45 25.8828H1106.88C1107.11 25.9609 1107.43 26.0911 1107.82 26.2734C1108.21 26.4557 1108.58 26.638 1108.95 26.8203C1109.31 26.9766 1109.63 27.1328 1109.89 27.2891C1110.15 27.4193 1110.28 27.4974 1110.28 27.5234V28.4219C1109.78 28.474 1109.14 28.5781 1108.36 28.7344C1107.58 28.8646 1106.76 29.0469 1105.9 29.2812C1105.04 29.5156 1104.17 29.8151 1103.29 30.1797C1102.4 30.5182 1101.61 30.9219 1100.9 31.3906C1100.2 31.8594 1099.63 32.4062 1099.18 33.0312C1098.74 33.6302 1098.52 34.3203 1098.52 35.1016C1098.52 36.2214 1098.91 37.1068 1099.69 37.7578C1100.47 38.3828 1101.45 38.9036 1102.62 39.3203C1103.79 39.737 1105.07 40.1146 1106.45 40.4531C1107.86 40.7656 1109.14 41.1562 1110.32 41.625C1111.49 42.0677 1112.46 42.6667 1113.25 43.4219C1114.03 44.151 1114.42 45.1406 1114.42 46.3906C1114.42 47.0677 1114.21 47.7839 1113.79 48.5391C1113.4 49.2682 1112.87 49.9974 1112.19 50.7266C1111.54 51.4297 1110.8 52.1068 1109.96 52.7578C1109.13 53.4089 1108.27 53.9818 1107.39 54.4766C1106.53 54.9453 1105.68 55.3359 1104.85 55.6484C1104.01 55.9349 1103.27 56.0781 1102.62 56.0781C1102.41 56.0781 1102.19 56.0521 1101.96 56C1101.72 55.9479 1101.51 55.8698 1101.33 55.7656C1101.18 55.6354 1101.05 55.4531 1100.94 55.2188C1100.86 54.9844 1100.89 54.6849 1101.02 54.3203ZM1117.78 25.0234C1117.65 25.0234 1117.45 24.9974 1117.19 24.9453C1116.96 24.8672 1116.71 24.7891 1116.45 24.7109C1116.19 24.6068 1115.94 24.5156 1115.71 24.4375C1115.47 24.3333 1115.32 24.2552 1115.24 24.2031C1115.21 24.151 1115.2 24.099 1115.2 24.0469C1115.17 23.9948 1115.16 23.9297 1115.16 23.8516C1115.16 23.487 1115.3 23.1745 1115.59 22.9141C1115.88 22.6536 1116.2 22.4453 1116.57 22.2891C1116.96 22.1068 1117.33 21.9766 1117.7 21.8984C1118.06 21.7943 1118.35 21.7292 1118.56 21.7031H1119.03H1119.42C1120.04 21.7552 1120.84 21.8333 1121.8 21.9375C1122.76 22.0417 1123.78 22.1589 1124.85 22.2891C1125.94 22.3932 1127.04 22.5104 1128.13 22.6406C1129.25 22.7448 1130.25 22.862 1131.14 22.9922C1132.05 23.0964 1132.8 23.1875 1133.4 23.2656C1134.03 23.3177 1134.39 23.3438 1134.5 23.3438C1134.7 23.3698 1134.96 23.4219 1135.28 23.5C1135.62 23.5521 1135.95 23.6562 1136.29 23.8125C1136.63 23.9427 1136.94 24.112 1137.23 24.3203C1137.52 24.5026 1137.73 24.737 1137.86 25.0234C1137.65 25.4401 1137.46 25.7656 1137.31 26C1137.15 26.2083 1136.98 26.3776 1136.8 26.5078C1136.62 26.612 1136.42 26.6641 1136.21 26.6641C1136.03 26.6641 1135.8 26.6641 1135.51 26.6641C1134.42 26.6641 1133.31 26.625 1132.19 26.5469C1131.1 26.4688 1130 26.3906 1128.91 26.3125C1127.82 26.2344 1126.71 26.1562 1125.59 26.0781C1124.5 26 1123.39 25.9609 1122.27 25.9609C1122.27 26.4297 1122.2 27.1328 1122.07 28.0703C1121.97 29.0078 1121.88 29.9974 1121.8 31.0391C1121.75 32.0807 1121.77 33.1224 1121.88 34.1641C1122.01 35.1797 1122.31 36.0391 1122.78 36.7422C1123.69 36.1953 1124.64 35.9089 1125.63 35.8828C1126.62 35.8568 1127.62 35.8438 1128.64 35.8438C1129.08 35.8438 1129.64 35.8438 1130.32 35.8438C1130.99 35.8438 1131.64 35.9219 1132.27 36.0781C1132.92 36.2344 1133.47 36.4948 1133.91 36.8594C1134.35 37.224 1134.57 37.7708 1134.57 38.5C1134.57 39.0208 1134.47 39.4115 1134.26 39.6719C1134.05 39.9323 1133.57 40.0625 1132.82 40.0625C1132.74 40.0625 1132.57 40.0234 1132.31 39.9453C1132.07 39.8672 1131.81 39.776 1131.53 39.6719C1131.27 39.5677 1131.02 39.4766 1130.79 39.3984C1130.55 39.3203 1130.39 39.2812 1130.32 39.2812C1130.29 39.2812 1130.19 39.2812 1130 39.2812C1129.85 39.2552 1129.65 39.2422 1129.42 39.2422C1129.18 39.2422 1128.95 39.2422 1128.71 39.2422C1128.51 39.2161 1128.34 39.2031 1128.21 39.2031C1127.61 39.2031 1127.02 39.2422 1126.45 39.3203C1125.9 39.3984 1125.42 39.5547 1125 39.7891C1124.59 40.0234 1124.25 40.362 1123.99 40.8047C1123.75 41.2474 1123.64 41.8203 1123.64 42.5234C1123.64 42.7578 1123.66 43.1615 1123.71 43.7344C1123.77 44.3073 1123.83 44.9453 1123.91 45.6484C1124.01 46.3255 1124.14 47.0286 1124.3 47.7578C1124.46 48.487 1124.67 49.1641 1124.93 49.7891C1125.19 50.388 1125.47 50.8958 1125.79 51.3125C1126.12 51.7031 1126.53 51.8984 1127 51.8984C1127.05 51.8984 1127.18 51.8854 1127.39 51.8594C1127.6 51.8333 1127.73 51.8203 1127.78 51.8203C1128.66 51.2214 1129.55 50.5703 1130.43 49.8672C1131.35 49.1641 1132.28 48.513 1133.25 47.9141C1134.21 47.2891 1135.21 46.7682 1136.25 46.3516C1137.3 45.9089 1138.38 45.6875 1139.5 45.6875V47.6016C1139.5 47.7057 1139.24 47.9922 1138.71 48.4609C1138.22 48.9297 1137.56 49.4766 1136.72 50.1016C1135.92 50.7266 1135 51.3906 1133.99 52.0938C1132.97 52.7969 1131.96 53.4479 1130.94 54.0469C1129.93 54.6198 1128.95 55.1016 1128.01 55.4922C1127.1 55.8828 1126.33 56.0781 1125.71 56.0781C1124.82 56.0781 1124.03 55.6875 1123.32 54.9062C1122.65 54.099 1122.04 53.0443 1121.49 51.7422C1120.94 50.4141 1120.49 48.8906 1120.12 47.1719C1119.76 45.4531 1119.43 43.6823 1119.14 41.8594C1118.88 40.0365 1118.66 38.2266 1118.48 36.4297C1118.32 34.6068 1118.19 32.9271 1118.09 31.3906C1117.99 29.8542 1117.91 28.526 1117.86 27.4062C1117.83 26.2604 1117.8 25.4661 1117.78 25.0234ZM1141.57 25.1406C1141.57 24.3333 1141.71 23.6693 1142 23.1484C1142.31 22.6276 1142.73 22.2109 1143.25 21.8984C1143.77 21.5599 1144.34 21.3125 1144.96 21.1562C1145.62 21 1146.28 20.8958 1146.96 20.8438C1147.66 20.7656 1148.34 20.7396 1148.99 20.7656C1149.64 20.7656 1150.24 20.7656 1150.79 20.7656C1151.85 20.7656 1152.92 20.8698 1153.99 21.0781C1155.06 21.2865 1155.99 21.651 1156.8 22.1719C1157.63 22.6927 1158.31 23.3958 1158.83 24.2812C1159.35 25.1406 1159.61 26.2214 1159.61 27.5234C1159.61 28.6693 1159.38 29.8151 1158.91 30.9609C1158.47 32.0807 1157.88 33.1615 1157.15 34.2031C1156.45 35.2188 1155.64 36.1562 1154.73 37.0156C1153.82 37.849 1152.91 38.5651 1152 39.1641C1151.11 39.763 1150.25 40.2318 1149.42 40.5703C1148.61 40.9089 1147.93 41.0391 1147.39 40.9609C1147.07 41.9766 1146.88 43.0703 1146.8 44.2422C1146.75 45.388 1146.74 46.5208 1146.76 47.6406C1146.79 48.7344 1146.83 49.7891 1146.88 50.8047C1146.93 51.7943 1146.88 52.6536 1146.72 53.3828C1146.59 54.0859 1146.33 54.6198 1145.94 54.9844C1145.55 55.3229 1144.95 55.4271 1144.14 55.2969C1143.91 53.4479 1143.73 51.5729 1143.6 49.6719C1143.49 47.7708 1143.4 45.8828 1143.32 44.0078C1143.25 42.1328 1143.17 40.3099 1143.09 38.5391C1143.04 36.7422 1142.95 35.0365 1142.82 33.4219C1142.71 31.8073 1142.56 30.2969 1142.35 28.8906C1142.14 27.4844 1141.88 26.2344 1141.57 25.1406ZM1151.21 24.125C1150.82 24.125 1150.34 24.138 1149.77 24.1641C1149.2 24.1901 1148.64 24.2812 1148.09 24.4375C1147.57 24.5677 1147.13 24.8151 1146.76 25.1797C1146.4 25.5182 1146.21 26.013 1146.21 26.6641V36.8984C1147.28 36.8984 1148.42 36.612 1149.61 36.0391C1150.81 35.4661 1151.9 34.737 1152.89 33.8516C1153.88 32.9661 1154.7 31.9635 1155.36 30.8438C1156.01 29.724 1156.33 28.6172 1156.33 27.5234C1156.33 26.7161 1156.18 26.0911 1155.86 25.6484C1155.58 25.2057 1155.19 24.8672 1154.69 24.6328C1154.22 24.3984 1153.69 24.2552 1153.09 24.2031C1152.49 24.151 1151.87 24.125 1151.21 24.125ZM1181.41 43.3047C1181.41 43.2266 1181.42 43.0833 1181.45 42.875C1181.48 42.6406 1181.49 42.5104 1181.49 42.4844C1181.9 42.4844 1182.46 42.4583 1183.17 42.4062C1183.9 42.3281 1184.69 42.263 1185.55 42.2109C1186.41 42.1328 1187.3 42.0547 1188.21 41.9766C1189.14 41.8984 1190.03 41.8464 1190.86 41.8203C1191.7 41.7943 1192.46 41.7812 1193.17 41.7812C1193.87 41.7812 1194.42 41.8203 1194.81 41.8984C1195.28 41.8984 1195.6 41.9505 1195.79 42.0547C1195.99 42.1589 1196.1 42.5104 1196.1 43.1094C1195.32 43.6302 1194.34 44.0208 1193.17 44.2812C1192 44.5156 1190.8 44.6849 1189.57 44.7891C1188.35 44.8932 1187.15 44.9453 1185.98 44.9453C1184.83 44.9453 1183.9 44.9583 1183.17 44.9844C1182.46 45.0365 1182 44.8932 1181.76 44.5547C1181.53 44.2161 1181.41 43.7995 1181.41 43.3047ZM1217.39 29.5156C1217.39 28.4219 1217.7 27.5234 1218.32 26.8203C1218.98 26.1172 1219.77 25.5703 1220.71 25.1797C1221.67 24.763 1222.7 24.4896 1223.79 24.3594C1224.89 24.2031 1225.88 24.125 1226.76 24.125C1228.45 24.125 1229.87 24.4635 1231.02 25.1406C1232.19 25.7917 1233.13 26.6641 1233.83 27.7578C1234.56 28.8516 1235.08 30.1146 1235.39 31.5469C1235.71 32.9792 1235.86 34.4375 1235.86 35.9219C1235.86 36.9115 1235.76 38.0833 1235.55 39.4375C1235.34 40.7656 1235.03 42.1458 1234.61 43.5781C1234.2 44.9844 1233.68 46.3906 1233.05 47.7969C1232.45 49.1771 1231.75 50.4271 1230.94 51.5469C1230.13 52.6406 1229.22 53.526 1228.21 54.2031C1227.22 54.8802 1226.12 55.2188 1224.93 55.2188C1224.69 55.2188 1224.4 54.9062 1224.07 54.2812C1223.75 53.6302 1223.39 52.7708 1222.97 51.7031C1222.58 50.6354 1222.17 49.4115 1221.72 48.0312C1221.31 46.625 1220.89 45.1797 1220.47 43.6953C1220.06 42.1849 1219.67 40.6745 1219.3 39.1641C1218.94 37.6536 1218.6 36.2604 1218.29 34.9844C1218 33.7083 1217.78 32.5885 1217.62 31.625C1217.46 30.6615 1217.39 29.9583 1217.39 29.5156ZM1220.63 31.7422C1220.63 32.5755 1220.68 33.526 1220.79 34.5938C1220.92 35.6615 1221.1 36.7682 1221.33 37.9141C1221.59 39.0599 1221.9 40.2188 1222.27 41.3906C1222.66 42.5365 1223.1 43.6172 1223.6 44.6328C1224.09 45.6484 1224.65 46.5729 1225.28 47.4062C1225.9 48.2135 1226.61 48.8516 1227.39 49.3203C1228.27 48.0703 1229.04 46.9505 1229.69 45.9609C1230.34 44.9714 1230.88 43.9818 1231.29 42.9922C1231.71 42.0026 1232.01 40.9479 1232.19 39.8281C1232.4 38.7083 1232.5 37.4062 1232.5 35.9219C1232.5 34.8542 1232.44 33.8125 1232.31 32.7969C1232.18 31.7812 1231.89 30.8828 1231.45 30.1016C1231.03 29.2943 1230.43 28.6562 1229.65 28.1875C1228.87 27.6927 1227.84 27.4453 1226.57 27.4453C1225.52 27.4453 1224.51 27.6146 1223.52 27.9531C1222.56 28.2656 1221.62 28.6823 1220.71 29.2031C1220.71 29.2812 1220.69 29.4375 1220.67 29.6719C1220.67 29.9062 1220.67 30.1667 1220.67 30.4531C1220.67 30.7135 1220.65 30.974 1220.63 31.2344C1220.63 31.4688 1220.63 31.638 1220.63 31.7422ZM1239.14 25.0234C1239.01 25.0234 1238.82 24.9974 1238.56 24.9453C1238.32 24.8672 1238.08 24.7891 1237.82 24.7109C1237.56 24.6068 1237.31 24.5156 1237.07 24.4375C1236.84 24.3333 1236.68 24.2552 1236.61 24.2031C1236.58 24.151 1236.57 24.099 1236.57 24.0469C1236.54 23.9948 1236.53 23.9297 1236.53 23.8516C1236.53 23.487 1236.67 23.1745 1236.96 22.9141C1237.24 22.6536 1237.57 22.4453 1237.93 22.2891C1238.32 22.1068 1238.7 21.9766 1239.07 21.8984C1239.43 21.7943 1239.72 21.7292 1239.93 21.7031H1240.39H1240.79C1241.41 21.7552 1242.2 21.8333 1243.17 21.9375C1244.13 22.0417 1245.15 22.1589 1246.21 22.2891C1247.31 22.3932 1248.4 22.5104 1249.5 22.6406C1250.62 22.7448 1251.62 22.862 1252.5 22.9922C1253.42 23.0964 1254.17 23.1875 1254.77 23.2656C1255.39 23.3177 1255.76 23.3438 1255.86 23.3438C1256.07 23.3698 1256.33 23.4219 1256.64 23.5C1256.98 23.5521 1257.32 23.6562 1257.66 23.8125C1258 23.9427 1258.31 24.112 1258.6 24.3203C1258.88 24.5026 1259.09 24.737 1259.22 25.0234C1259.01 25.4401 1258.83 25.7656 1258.68 26C1258.52 26.2083 1258.35 26.3776 1258.17 26.5078C1257.99 26.612 1257.79 26.6641 1257.58 26.6641C1257.4 26.6641 1257.17 26.6641 1256.88 26.6641C1255.79 26.6641 1254.68 26.625 1253.56 26.5469C1252.46 26.4688 1251.37 26.3906 1250.28 26.3125C1249.18 26.2344 1248.08 26.1562 1246.96 26.0781C1245.86 26 1244.76 25.9609 1243.64 25.9609C1243.64 26.4297 1243.57 27.1328 1243.44 28.0703C1243.34 29.0078 1243.25 29.9974 1243.17 31.0391C1243.12 32.0807 1243.14 33.1224 1243.25 34.1641C1243.38 35.1797 1243.68 36.0391 1244.14 36.7422C1245.06 36.1953 1246.01 35.9089 1247 35.8828C1247.99 35.8568 1248.99 35.8438 1250 35.8438C1250.45 35.8438 1251.01 35.8438 1251.68 35.8438C1252.36 35.8438 1253.01 35.9219 1253.64 36.0781C1254.29 36.2344 1254.83 36.4948 1255.28 36.8594C1255.72 37.224 1255.94 37.7708 1255.94 38.5C1255.94 39.0208 1255.84 39.4115 1255.63 39.6719C1255.42 39.9323 1254.94 40.0625 1254.18 40.0625C1254.11 40.0625 1253.94 40.0234 1253.68 39.9453C1253.44 39.8672 1253.18 39.776 1252.89 39.6719C1252.63 39.5677 1252.39 39.4766 1252.15 39.3984C1251.92 39.3203 1251.76 39.2812 1251.68 39.2812C1251.66 39.2812 1251.55 39.2812 1251.37 39.2812C1251.21 39.2552 1251.02 39.2422 1250.79 39.2422C1250.55 39.2422 1250.32 39.2422 1250.08 39.2422C1249.87 39.2161 1249.7 39.2031 1249.57 39.2031C1248.98 39.2031 1248.39 39.2422 1247.82 39.3203C1247.27 39.3984 1246.79 39.5547 1246.37 39.7891C1245.95 40.0234 1245.62 40.362 1245.36 40.8047C1245.12 41.2474 1245 41.8203 1245 42.5234C1245 42.7578 1245.03 43.1615 1245.08 43.7344C1245.13 44.3073 1245.2 44.9453 1245.28 45.6484C1245.38 46.3255 1245.51 47.0286 1245.67 47.7578C1245.82 48.487 1246.03 49.1641 1246.29 49.7891C1246.55 50.388 1246.84 50.8958 1247.15 51.3125C1247.49 51.7031 1247.89 51.8984 1248.36 51.8984C1248.42 51.8984 1248.55 51.8854 1248.75 51.8594C1248.96 51.8333 1249.09 51.8203 1249.14 51.8203C1250.03 51.2214 1250.92 50.5703 1251.8 49.8672C1252.71 49.1641 1253.65 48.513 1254.61 47.9141C1255.58 47.2891 1256.58 46.7682 1257.62 46.3516C1258.66 45.9089 1259.74 45.6875 1260.86 45.6875V47.6016C1260.86 47.7057 1260.6 47.9922 1260.08 48.4609C1259.59 48.9297 1258.92 49.4766 1258.09 50.1016C1257.28 50.7266 1256.37 51.3906 1255.36 52.0938C1254.34 52.7969 1253.32 53.4479 1252.31 54.0469C1251.29 54.6198 1250.32 55.1016 1249.38 55.4922C1248.47 55.8828 1247.7 56.0781 1247.07 56.0781C1246.19 56.0781 1245.39 55.6875 1244.69 54.9062C1244.01 54.099 1243.4 53.0443 1242.86 51.7422C1242.31 50.4141 1241.85 48.8906 1241.49 47.1719C1241.12 45.4531 1240.8 43.6823 1240.51 41.8594C1240.25 40.0365 1240.03 38.2266 1239.85 36.4297C1239.69 34.6068 1239.56 32.9271 1239.46 31.3906C1239.35 29.8542 1239.27 28.526 1239.22 27.4062C1239.2 26.2604 1239.17 25.4661 1239.14 25.0234ZM1263.32 42.6016C1263.32 41.7161 1263.44 40.7526 1263.68 39.7109C1263.94 38.6693 1264.29 37.6276 1264.73 36.5859C1265.17 35.5182 1265.71 34.4896 1266.33 33.5C1266.96 32.4844 1267.66 31.599 1268.44 30.8438C1269.22 30.0625 1270.07 29.4505 1270.98 29.0078C1271.89 28.5391 1272.86 28.3047 1273.87 28.3047C1274.7 28.3047 1275.49 28.4219 1276.21 28.6562C1276.94 28.8646 1277.57 29.1901 1278.09 29.6328C1278.61 30.0755 1279.01 30.6354 1279.3 31.3125C1279.61 31.9635 1279.77 32.7448 1279.77 33.6562C1279.2 33.6562 1278.73 33.513 1278.36 33.2266C1278.02 32.9141 1277.7 32.5755 1277.39 32.2109C1277.1 31.8464 1276.77 31.5208 1276.41 31.2344C1276.07 30.9479 1275.63 30.8047 1275.08 30.8047C1274.27 30.8047 1273.49 31.013 1272.74 31.4297C1272.01 31.8464 1271.32 32.4062 1270.67 33.1094C1270.04 33.8125 1269.48 34.6068 1268.99 35.4922C1268.52 36.3776 1268.1 37.276 1267.74 38.1875C1267.4 39.0729 1267.13 39.9453 1266.92 40.8047C1266.74 41.6641 1266.64 42.4062 1266.64 43.0312C1266.64 44.3854 1266.84 45.6615 1267.23 46.8594C1267.65 48.0312 1268.23 49.0599 1268.99 49.9453C1269.74 50.8047 1270.68 51.4818 1271.8 51.9766C1272.92 52.4714 1274.2 52.7188 1275.63 52.7188C1276.54 52.7188 1277.4 52.5885 1278.21 52.3281C1279.04 52.0417 1279.83 51.7422 1280.59 51.4297C1281.37 51.0911 1282.14 50.7786 1282.89 50.4922C1283.65 50.2057 1284.4 50.0625 1285.16 50.0625C1285.26 50.0625 1285.41 50.0755 1285.59 50.1016C1285.8 50.1016 1285.98 50.1276 1286.14 50.1797C1286.32 50.2318 1286.48 50.3229 1286.61 50.4531C1286.74 50.5573 1286.8 50.7266 1286.8 50.9609C1286.8 51.8984 1286.44 52.6927 1285.71 53.3438C1285 53.9948 1284.16 54.5286 1283.17 54.9453C1282.18 55.3359 1281.15 55.6224 1280.08 55.8047C1279.01 55.987 1278.14 56.0781 1277.46 56.0781C1275.49 56.0781 1273.64 55.7656 1271.92 55.1406C1270.2 54.4896 1268.7 53.5781 1267.43 52.4062C1266.15 51.2344 1265.15 49.8281 1264.42 48.1875C1263.69 46.5208 1263.32 44.6589 1263.32 42.6016ZM1157.02 141.211C1157.02 139.779 1157.15 138.372 1157.41 136.992C1157.69 135.586 1158.01 134.18 1158.34 132.773C1158.68 131.367 1158.98 129.948 1159.24 128.516C1159.53 127.057 1159.67 125.586 1159.67 124.102C1159.67 123.893 1159.66 123.555 1159.63 123.086C1159.63 122.591 1159.63 122.083 1159.63 121.562C1159.63 121.042 1159.62 120.547 1159.59 120.078C1159.59 119.583 1159.59 119.245 1159.59 119.062C1159.54 118.958 1159.41 118.802 1159.2 118.594C1158.99 118.385 1158.85 118.255 1158.77 118.203H1158.34C1157.48 118.203 1156.77 118.398 1156.2 118.789C1155.62 119.154 1155.13 119.609 1154.71 120.156C1154.32 120.703 1153.96 121.315 1153.62 121.992C1153.28 122.643 1152.9 123.242 1152.48 123.789C1152.09 124.336 1151.64 124.805 1151.12 125.195C1150.62 125.56 1150 125.742 1149.24 125.742C1149.24 124.362 1149.48 123.021 1149.95 121.719C1150.41 120.391 1151.08 119.219 1151.94 118.203C1152.82 117.161 1153.86 116.328 1155.06 115.703C1156.29 115.078 1157.63 114.766 1159.09 114.766C1159.71 114.766 1160.22 114.792 1160.61 114.844C1161 114.896 1161.34 115.013 1161.62 115.195C1161.91 115.378 1162.15 115.651 1162.33 116.016C1162.51 116.354 1162.72 116.823 1162.95 117.422C1162.95 117.63 1162.95 118.008 1162.95 118.555C1162.95 119.076 1162.95 119.648 1162.95 120.273C1162.98 120.898 1162.99 121.497 1162.99 122.07C1163.02 122.617 1163.03 122.995 1163.03 123.203C1163.03 124.583 1162.95 125.938 1162.8 127.266C1162.64 128.594 1162.45 129.909 1162.21 131.211C1162 132.513 1161.82 133.828 1161.66 135.156C1161.51 136.458 1161.43 137.786 1161.43 139.141H1162.13L1171.35 134.961C1171.38 134.961 1171.43 134.961 1171.51 134.961C1171.61 134.935 1171.73 134.922 1171.86 134.922C1171.99 134.922 1172.11 134.922 1172.21 134.922C1172.34 134.896 1172.43 134.883 1172.48 134.883C1172.72 134.883 1172.97 134.896 1173.23 134.922C1173.49 134.948 1173.72 135 1173.93 135.078C1174.16 135.156 1174.36 135.286 1174.52 135.469C1174.67 135.651 1174.75 135.898 1174.75 136.211C1174.75 136.758 1174.58 137.188 1174.24 137.5C1173.9 137.812 1173.5 138.06 1173.03 138.242C1172.59 138.424 1172.12 138.581 1171.62 138.711C1171.16 138.841 1170.77 138.984 1170.45 139.141C1170.22 139.271 1169.84 139.466 1169.32 139.727C1168.83 139.987 1168.24 140.286 1167.56 140.625C1166.89 140.938 1166.18 141.276 1165.45 141.641C1164.72 142.005 1164.03 142.357 1163.38 142.695C1162.73 143.034 1162.15 143.333 1161.62 143.594C1161.1 143.854 1160.71 144.036 1160.45 144.141C1160.4 144.141 1160.31 144.154 1160.18 144.18C1160.08 144.18 1159.95 144.18 1159.79 144.18C1159.66 144.18 1159.53 144.193 1159.4 144.219C1159.29 144.219 1159.22 144.219 1159.16 144.219C1158.64 144.219 1158.23 144.167 1157.91 144.062C1157.63 143.932 1157.42 143.75 1157.29 143.516C1157.16 143.255 1157.08 142.943 1157.05 142.578C1157.03 142.214 1157.02 141.758 1157.02 141.211ZM1175.45 130.273C1175.45 129.206 1175.54 128.073 1175.73 126.875C1175.91 125.677 1176.2 124.505 1176.59 123.359C1176.98 122.214 1177.47 121.12 1178.07 120.078C1178.67 119.036 1179.37 118.125 1180.18 117.344C1180.99 116.536 1181.9 115.911 1182.91 115.469C1183.96 115 1185.11 114.766 1186.39 114.766C1188.16 114.766 1189.72 115.052 1191.08 115.625C1192.46 116.198 1193.6 117.005 1194.52 118.047C1195.45 119.089 1196.16 120.339 1196.62 121.797C1197.09 123.229 1197.33 124.805 1197.33 126.523C1197.33 127.721 1197.21 129.023 1196.98 130.43C1196.74 131.836 1196.36 133.229 1195.84 134.609C1195.35 135.964 1194.72 137.266 1193.97 138.516C1193.21 139.766 1192.34 140.872 1191.35 141.836C1190.36 142.799 1189.23 143.568 1187.95 144.141C1186.7 144.714 1185.35 145 1183.89 145C1182.59 145 1181.47 144.766 1180.53 144.297C1179.62 143.828 1178.85 143.203 1178.23 142.422C1177.6 141.641 1177.11 140.742 1176.74 139.727C1176.38 138.685 1176.09 137.63 1175.88 136.562C1175.7 135.469 1175.58 134.375 1175.53 133.281C1175.48 132.188 1175.45 131.185 1175.45 130.273ZM1178.77 132.031C1178.77 133.073 1178.83 134.167 1178.93 135.312C1179.03 136.432 1179.29 137.474 1179.71 138.438C1180.13 139.375 1180.73 140.156 1181.51 140.781C1182.29 141.38 1183.36 141.68 1184.71 141.68C1185.83 141.68 1186.83 141.419 1187.72 140.898C1188.6 140.352 1189.39 139.648 1190.06 138.789C1190.74 137.93 1191.33 136.966 1191.82 135.898C1192.34 134.805 1192.76 133.698 1193.07 132.578C1193.38 131.458 1193.62 130.378 1193.77 129.336C1193.93 128.294 1194.01 127.37 1194.01 126.562C1194.01 125.391 1193.92 124.284 1193.73 123.242C1193.55 122.201 1193.23 121.302 1192.76 120.547C1192.29 119.792 1191.64 119.206 1190.8 118.789C1189.97 118.346 1188.86 118.125 1187.48 118.125C1186.34 118.125 1185.32 118.346 1184.44 118.789C1183.58 119.232 1182.82 119.818 1182.17 120.547C1181.52 121.276 1180.97 122.122 1180.53 123.086C1180.11 124.023 1179.78 125.013 1179.52 126.055C1179.26 127.096 1179.06 128.138 1178.93 129.18C1178.83 130.195 1178.77 131.146 1178.77 132.031ZM1206.39 141.211C1206.39 139.779 1206.52 138.372 1206.78 136.992C1207.07 135.586 1207.38 134.18 1207.72 132.773C1208.06 131.367 1208.36 129.948 1208.62 128.516C1208.9 127.057 1209.05 125.586 1209.05 124.102C1209.05 123.893 1209.03 123.555 1209.01 123.086C1209.01 122.591 1209.01 122.083 1209.01 121.562C1209.01 121.042 1208.99 120.547 1208.97 120.078C1208.97 119.583 1208.97 119.245 1208.97 119.062C1208.92 118.958 1208.79 118.802 1208.58 118.594C1208.37 118.385 1208.23 118.255 1208.15 118.203H1207.72C1206.86 118.203 1206.14 118.398 1205.57 118.789C1205 119.154 1204.5 119.609 1204.09 120.156C1203.7 120.703 1203.33 121.315 1202.99 121.992C1202.65 122.643 1202.28 123.242 1201.86 123.789C1201.47 124.336 1201.01 124.805 1200.49 125.195C1200 125.56 1199.37 125.742 1198.62 125.742C1198.62 124.362 1198.85 123.021 1199.32 121.719C1199.79 120.391 1200.45 119.219 1201.31 118.203C1202.2 117.161 1203.24 116.328 1204.44 115.703C1205.66 115.078 1207 114.766 1208.46 114.766C1209.09 114.766 1209.59 114.792 1209.98 114.844C1210.38 114.896 1210.71 115.013 1211 115.195C1211.29 115.378 1211.52 115.651 1211.7 116.016C1211.89 116.354 1212.09 116.823 1212.33 117.422C1212.33 117.63 1212.33 118.008 1212.33 118.555C1212.33 119.076 1212.33 119.648 1212.33 120.273C1212.35 120.898 1212.37 121.497 1212.37 122.07C1212.39 122.617 1212.41 122.995 1212.41 123.203C1212.41 124.583 1212.33 125.938 1212.17 127.266C1212.02 128.594 1211.82 129.909 1211.59 131.211C1211.38 132.513 1211.2 133.828 1211.04 135.156C1210.88 136.458 1210.8 137.786 1210.8 139.141H1211.51L1220.73 134.961C1220.75 134.961 1220.8 134.961 1220.88 134.961C1220.99 134.935 1221.1 134.922 1221.23 134.922C1221.36 134.922 1221.48 134.922 1221.59 134.922C1221.72 134.896 1221.81 134.883 1221.86 134.883C1222.09 134.883 1222.34 134.896 1222.6 134.922C1222.86 134.948 1223.1 135 1223.3 135.078C1223.54 135.156 1223.73 135.286 1223.89 135.469C1224.05 135.651 1224.12 135.898 1224.12 136.211C1224.12 136.758 1223.96 137.188 1223.62 137.5C1223.28 137.812 1222.88 138.06 1222.41 138.242C1221.96 138.424 1221.49 138.581 1221 138.711C1220.53 138.841 1220.14 138.984 1219.83 139.141C1219.59 139.271 1219.22 139.466 1218.7 139.727C1218.2 139.987 1217.61 140.286 1216.94 140.625C1216.26 140.938 1215.56 141.276 1214.83 141.641C1214.1 142.005 1213.41 142.357 1212.76 142.695C1212.11 143.034 1211.52 143.333 1211 143.594C1210.48 143.854 1210.09 144.036 1209.83 144.141C1209.78 144.141 1209.68 144.154 1209.55 144.18C1209.45 144.18 1209.32 144.18 1209.16 144.18C1209.03 144.18 1208.9 144.193 1208.77 144.219C1208.67 144.219 1208.59 144.219 1208.54 144.219C1208.02 144.219 1207.6 144.167 1207.29 144.062C1207 143.932 1206.79 143.75 1206.66 143.516C1206.53 143.255 1206.46 142.943 1206.43 142.578C1206.4 142.214 1206.39 141.758 1206.39 141.211ZM1224.83 119.883C1224.83 119.544 1224.83 119.049 1224.83 118.398C1224.83 117.721 1224.89 117.057 1225.02 116.406C1225.15 115.729 1225.36 115.143 1225.65 114.648C1225.93 114.154 1226.38 113.906 1226.98 113.906C1227.32 113.906 1227.59 114.206 1227.8 114.805C1228.03 115.378 1228.21 116.107 1228.34 116.992C1228.5 117.852 1228.6 118.815 1228.66 119.883C1228.73 120.924 1228.79 121.914 1228.81 122.852C1228.86 123.789 1228.9 124.609 1228.93 125.312C1228.96 125.99 1228.99 126.406 1229.05 126.562C1229.12 126.979 1229.27 127.604 1229.48 128.438C1229.71 129.271 1229.96 130.221 1230.22 131.289C1230.48 132.331 1230.77 133.424 1231.08 134.57C1231.39 135.716 1231.68 136.81 1231.94 137.852C1232.22 138.893 1232.48 139.831 1232.72 140.664C1232.95 141.497 1233.14 142.096 1233.27 142.461C1233.27 142.513 1233.28 142.591 1233.3 142.695C1233.33 142.799 1233.34 142.878 1233.34 142.93C1233.34 143.216 1233.24 143.451 1233.03 143.633C1232.85 143.789 1232.61 143.919 1232.33 144.023C1232.07 144.102 1231.79 144.154 1231.51 144.18C1231.22 144.206 1230.96 144.219 1230.73 144.219C1230.62 144.219 1230.47 144.206 1230.26 144.18C1230.08 144.154 1229.96 144.141 1229.91 144.141C1229.36 142.318 1228.77 140.404 1228.15 138.398C1227.55 136.367 1227 134.31 1226.51 132.227C1226.01 130.143 1225.61 128.06 1225.3 125.977C1224.98 123.867 1224.83 121.836 1224.83 119.883Z" fill="black"/>
</svg>
