<svg width="1204" height="374" viewBox="0 0 1204 374" fill="none" xmlns="http://www.w3.org/2000/svg">
<path d="M602 361C761.744 361 906.776 346.004 1012.23 321.563C1064.85 309.367 1108.34 294.658 1138.98 277.865C1154.3 269.472 1167.02 260.232 1176.04 250.009C1185.14 239.704 1191 227.771 1191 214.5C1191 201.229 1185.14 189.296 1176.04 178.991C1167.02 168.768 1154.3 159.528 1138.98 151.135C1108.34 134.342 1064.85 119.633 1012.23 107.437C906.776 82.996 761.744 68 602 68C442.256 68 297.224 82.996 191.771 107.437C139.149 119.633 95.6636 134.342 65.0178 151.135C49.7007 159.528 36.9827 168.768 27.957 178.991C18.8589 189.296 13 201.229 13 214.5C13 227.771 18.8589 239.704 27.957 250.009C36.9827 260.232 49.7007 269.472 65.0178 277.865C95.6636 294.658 139.149 309.367 191.771 321.563C297.224 346.004 442.256 361 602 361Z" fill="#FFD600" stroke="#FF0000" stroke-width="26"/>
<path d="M259.021 247.396L258.8 249.975L203.742 253.471L203.963 250.892L259.021 247.396ZM221.689 227.064C219.219 227.221 216.816 227.075 214.479 226.625C212.227 226.169 210.054 225.623 207.962 224.986C205.869 224.35 203.867 223.793 201.956 223.315C200.044 222.838 198.237 222.654 196.534 222.762C194.575 222.886 192.904 223.505 191.521 224.619C190.139 225.733 189.52 227.44 189.666 229.739C189.845 232.55 191.311 234.765 194.064 236.386C196.903 238.001 201.529 238.819 207.944 238.839C207.944 238.839 207.925 239.225 207.889 239.997C207.852 240.769 207.834 241.155 207.834 241.155C202.277 241.166 197.361 240.495 193.085 239.141C188.809 237.788 185.43 235.737 182.947 232.988C180.458 230.153 179.084 226.692 178.824 222.604C178.489 217.324 179.876 212.918 182.987 209.386C186.097 205.853 191.102 203.868 198 203.43C201.662 203.198 204.882 203.421 207.661 204.099C210.526 204.772 213.146 205.632 215.521 206.678C217.981 207.719 220.444 208.803 222.91 209.929C225.455 210.964 228.16 211.818 231.024 212.492C233.889 213.165 237.194 213.382 240.942 213.144C243.752 212.966 247.137 212.409 251.096 211.473C255.055 210.538 258.559 209.161 261.607 207.343C263.223 204.504 264.836 202.307 266.447 200.751C268.059 199.195 269.538 198.93 270.886 199.956C271.962 200.743 271.992 201.895 270.977 203.413C269.962 204.931 267.252 206.685 262.846 208.675C257.789 213.87 253.98 220.525 251.417 228.64C248.854 236.754 246.609 245.832 244.681 255.873L238.724 287.29C237.644 293.173 235.558 298.692 232.465 303.848C229.457 308.998 225.15 313.205 219.543 316.468C213.941 319.817 206.669 321.775 197.727 322.343C193.895 322.586 190.336 322.427 187.051 321.866C183.857 321.385 181.226 320.355 179.16 318.776C177.183 317.277 176.106 315.122 175.927 312.312C175.722 309.076 176.659 306.323 178.738 304.053C180.907 301.863 184.164 300.63 188.507 300.355C192.084 300.127 195.156 300.702 197.723 302.078C200.375 303.449 201.801 305.71 202.001 308.861C202.153 311.245 201.561 313.378 200.227 315.258C198.978 317.133 197.029 318.753 194.379 320.118C195.066 320.16 195.622 320.168 196.048 320.14C196.479 320.199 196.908 320.214 197.334 320.187C199.292 320.063 200.923 319.489 202.226 318.466C203.615 317.437 204.8 315.908 205.783 313.879C206.766 311.85 207.668 309.228 208.49 306.012C209.402 302.875 210.319 299.141 211.241 294.807L218.092 263.333C219.555 256.742 221.497 250.975 223.92 246.033C226.337 241.006 229.217 236.548 232.561 232.659C235.985 228.679 239.812 224.973 244.04 221.541C248.353 218.103 253.005 214.601 257.994 211.035C253.977 212.402 250.529 213.989 247.651 215.796C244.768 217.519 242.052 219.187 239.504 220.803C237.041 222.413 234.394 223.821 231.564 225.027C228.813 226.142 225.521 226.821 221.689 227.064ZM297.133 278.322C296.561 281.437 296.367 283.758 296.549 285.285C296.732 286.813 297.52 287.789 298.915 288.213C300.311 288.638 302.461 288.843 305.367 288.83L305.019 291.417C302.283 291.42 298.743 291.559 294.4 291.835C290.051 292.025 285.62 292.264 281.107 292.551C276.508 292.843 272.21 293.158 268.213 293.498C264.21 293.752 260.979 294.042 258.52 294.37L258.997 291.774C261.796 291.425 263.946 290.947 265.447 290.339C267.033 289.725 268.245 288.622 269.084 287.029C269.924 285.437 270.63 283.084 271.201 279.969L284.04 215.538C284.691 212.333 284.886 210.012 284.624 208.575C284.356 207.053 283.525 206.08 282.13 205.655C280.814 205.14 278.706 204.932 275.805 205.031L276.282 202.435C278.672 202.369 281.871 202.251 285.879 202.082C289.972 201.908 294.318 201.675 298.917 201.383C303.43 201.096 307.771 200.778 311.938 200.428C316.106 200.077 319.762 199.76 322.908 199.474L322.432 202.07C319.541 202.339 317.306 202.823 315.726 203.522C314.14 204.135 312.928 205.238 312.089 206.831C311.329 208.333 310.623 210.686 309.972 213.891L297.133 278.322ZM395.521 193.966C394.81 196.234 393.866 199.543 392.688 203.893C391.506 208.158 390.489 213.695 389.639 220.504L387.084 220.666C387.264 219.458 387.356 218.212 387.36 216.929C387.449 215.641 387.464 214.528 387.404 213.591C387.183 210.1 386.23 207.21 384.545 204.923C382.941 202.545 380.735 200.804 377.929 199.7C375.117 198.511 371.795 198.037 367.963 198.281C364.301 198.513 361.124 199.656 358.433 201.708C355.827 203.754 354.667 207.034 354.954 211.548C355.137 214.443 356 217.253 357.541 219.977C359.077 222.616 360.995 225.23 363.298 227.82C365.685 230.404 368.16 233.026 370.723 235.685C373.366 238.253 375.844 240.918 378.156 243.678C380.549 246.348 382.527 249.215 384.089 252.279C385.652 255.344 386.544 258.622 386.766 262.113C387.063 266.797 386.083 270.878 383.824 274.357C381.56 277.75 378.576 280.59 374.874 282.877C371.171 285.164 367.221 286.911 363.022 288.118C358.824 289.326 354.893 290.045 351.231 290.278C346.803 290.559 343.17 290.576 340.333 290.329C337.495 290.081 335.028 289.597 332.93 288.875C330.826 288.068 328.542 287.102 326.076 285.976C325.192 285.519 324.356 285.144 323.568 284.852C322.775 284.475 322.122 284.303 321.611 284.335C320.504 284.405 319.64 284.931 319.018 285.911C318.396 286.891 317.576 288.781 316.556 291.582L314.002 291.744C314.649 289.822 315.32 287.599 316.015 285.075C316.71 282.552 317.446 279.341 318.225 275.444C318.998 271.462 319.837 266.492 320.741 260.534L323.296 260.372C322.951 261.677 322.714 263.316 322.582 265.291C322.531 267.176 322.597 268.882 322.779 270.409C323.429 276.61 325.686 281.169 329.548 284.088C333.404 286.921 338.484 288.138 344.786 287.737C350.747 287.359 354.637 286 356.455 283.662C358.353 281.233 359.196 278.357 358.985 275.036C358.758 271.459 357.908 268.178 356.436 265.194C355.044 262.118 353.282 259.28 351.15 256.68C349.013 253.994 346.753 251.401 344.372 248.902C342.069 246.312 339.853 243.716 337.721 241.115C335.589 238.515 333.79 235.764 332.323 232.865C330.936 229.875 330.134 226.676 329.918 223.27C329.632 218.756 330.407 214.817 332.246 211.451C334.169 208.079 336.767 205.221 340.038 202.876C343.309 200.53 346.871 198.722 350.724 197.452C354.576 196.181 358.291 195.432 361.868 195.205C367.914 194.821 372.775 195.282 376.449 196.588C380.117 197.808 382.918 198.827 384.851 199.645C385.554 199.943 386.345 200.277 387.224 200.649C388.102 201.021 388.755 201.193 389.18 201.166C390.373 201.09 391.635 198.744 392.966 194.128L395.521 193.966ZM475.266 214.938C476.437 209.135 477.055 204.735 477.121 201.738C477.267 198.651 476.531 196.474 474.911 195.209C473.377 193.938 470.635 193.172 466.685 192.91L467.289 190.306C468.998 190.283 471.175 190.23 473.82 190.148C476.551 190.06 479.108 189.94 481.493 189.789C483.452 189.665 485.365 189.5 487.233 189.296C489.187 189.087 490.842 188.896 492.199 188.724L491.595 191.328C488.902 192.012 486.787 193.044 485.25 194.424C483.713 195.804 482.435 197.895 481.416 200.696C480.477 203.406 479.522 207.229 478.553 212.164L472.588 243.453C470.268 255.4 466.669 264.692 461.789 271.33C458.95 275.101 455.302 278.24 450.844 280.746C446.465 283.162 441.636 284.537 436.356 284.873C428.606 285.365 422.359 284.607 417.614 282.6C412.87 280.592 409.407 277.905 407.227 274.538C405.318 271.41 404.188 267.762 403.838 263.595C403.568 259.336 404.052 254.175 405.292 248.111L413.347 207.327C413.999 204.122 414.194 201.801 413.931 200.364C413.664 198.842 412.832 197.868 411.437 197.444C410.122 196.929 408.014 196.721 405.113 196.82L405.717 194.216C408.192 194.144 411.604 194.013 415.953 193.823C420.387 193.626 425.031 193.374 429.885 193.066C434.143 192.796 438.186 192.496 442.012 192.168C445.839 191.839 449.24 191.538 452.216 191.263L451.611 193.867C448.721 194.136 446.486 194.62 444.906 195.319C443.32 195.932 442.108 197.035 441.268 198.628C440.509 200.13 439.803 202.483 439.151 205.688L430.595 248.685C429.435 254.658 428.772 259.703 428.606 263.817C428.434 267.847 428.728 271.12 429.486 273.637C430.324 276.064 431.505 277.827 433.029 278.927C434.547 279.943 436.37 280.383 438.499 280.247C444.886 279.842 450.12 278.099 454.199 275.018C458.274 271.852 461.514 267.67 463.92 262.473C466.326 257.275 468.138 251.474 469.356 245.069L475.266 214.938ZM522.274 191.432C522.653 197.393 521.293 202.909 518.195 207.98C515.096 213.05 510.648 217.052 504.849 219.986L504.064 217.727C507.464 216.057 510.471 213.6 513.087 210.356C515.703 207.112 517.008 203.438 517.004 199.334C515.893 200.687 514.593 201.753 513.103 202.531C511.613 203.31 510.017 203.753 508.314 203.862C505.163 204.062 502.647 203.495 500.767 202.16C498.972 200.821 497.987 198.788 497.814 196.063C497.647 193.423 498.094 191.043 499.157 188.924C500.304 186.799 501.908 185.115 503.966 183.873C506.105 182.54 508.537 181.787 511.262 181.614C514.498 181.408 517.062 182.058 518.953 183.563C520.929 185.062 522.036 187.685 522.274 191.432ZM599.859 180.99C599.148 183.258 598.204 186.567 597.027 190.917C595.844 195.182 594.828 200.719 593.977 207.528L591.422 207.69C591.602 206.482 591.694 205.236 591.698 203.953C591.787 202.665 591.802 201.553 591.743 200.616C591.521 197.124 590.568 194.235 588.884 191.948C587.279 189.57 585.074 187.829 582.267 186.724C579.456 185.535 576.134 185.062 572.301 185.305C568.639 185.538 565.463 186.68 562.771 188.732C560.165 190.779 559.005 194.059 559.292 198.572C559.476 201.468 560.338 204.277 561.879 207.001C563.415 209.64 565.334 212.254 567.636 214.844C570.023 217.429 572.498 220.051 575.061 222.709C577.704 225.278 580.182 227.942 582.495 230.702C584.888 233.372 586.865 236.239 588.428 239.304C589.991 242.368 590.883 245.646 591.104 249.138C591.402 253.822 590.421 257.903 588.162 261.381C585.898 264.774 582.915 267.614 579.212 269.901C575.51 272.188 571.559 273.936 567.361 275.143C563.162 276.35 559.232 277.07 555.57 277.302C551.141 277.584 547.509 277.601 544.671 277.353C541.834 277.106 539.366 276.621 537.268 275.899C535.165 275.092 532.88 274.126 530.415 273C529.531 272.543 528.695 272.169 527.906 271.877C527.113 271.499 526.461 271.327 525.95 271.36C524.843 271.43 523.978 271.955 523.356 272.935C522.735 273.915 521.914 275.806 520.895 278.606L518.34 278.769C518.987 276.846 519.659 274.623 520.353 272.1C521.048 269.576 521.785 266.365 522.563 262.468C523.337 258.486 524.175 253.516 525.08 247.559L527.635 247.397C527.29 248.701 527.052 250.341 526.921 252.316C526.869 254.2 526.935 255.906 527.118 257.434C527.768 263.634 530.024 268.194 533.886 271.112C537.743 273.945 542.822 275.162 549.124 274.762C555.085 274.383 558.975 273.025 560.793 270.686C562.691 268.257 563.534 265.382 563.324 262.06C563.096 258.484 562.247 255.203 560.775 252.218C559.382 249.143 557.62 246.305 555.489 243.704C553.351 241.018 551.092 238.425 548.71 235.926C546.408 233.336 544.191 230.741 542.059 228.14C539.927 225.539 538.128 222.789 536.661 219.889C535.275 216.899 534.473 213.701 534.257 210.294C533.97 205.781 534.746 201.841 536.584 198.475C538.508 195.104 541.105 192.245 544.376 189.9C547.648 187.555 551.21 185.747 555.062 184.476C558.915 183.205 562.629 182.456 566.206 182.229C572.253 181.845 577.113 182.306 580.787 183.612C584.456 184.833 587.257 185.852 589.19 186.67C589.893 186.967 590.684 187.302 591.562 187.673C592.441 188.045 593.093 188.217 593.519 188.19C594.711 188.115 595.973 185.769 597.304 181.152L599.859 180.99ZM663.43 224.28L664.162 221.669L709.255 218.805L708.395 221.425L663.43 224.28ZM707.085 188.674C707.736 185.469 707.931 183.148 707.669 181.711C707.486 180.184 706.697 179.208 705.302 178.783C703.902 178.274 701.751 178.068 698.85 178.167L699.327 175.572C701.887 175.495 705.214 175.369 709.307 175.194C713.485 175.015 717.661 174.792 721.834 174.527C726.688 174.219 731.242 173.887 735.494 173.531C739.832 173.17 743.318 172.864 745.953 172.611L745.476 175.206C742.586 175.475 740.351 175.959 738.771 176.658C737.185 177.272 735.973 178.375 735.133 179.967C734.374 181.469 733.668 183.823 733.017 187.028L720.178 251.459C719.606 254.573 719.412 256.894 719.594 258.422C719.777 259.949 720.565 260.925 721.96 261.35C723.355 261.774 725.506 261.98 728.412 261.966L728.064 264.553C725.498 264.545 722.044 264.679 717.7 264.955C713.437 265.14 708.878 265.387 704.024 265.695C699.851 265.96 695.681 266.268 691.513 266.618C687.425 266.877 684.067 267.176 681.438 267.514L681.786 264.927C684.671 264.573 686.906 264.089 688.492 263.475C690.077 262.861 691.29 261.758 692.129 260.166C692.969 258.573 693.674 256.22 694.246 253.105L707.085 188.674ZM666.015 254.898C665.443 258.013 665.249 260.334 665.431 261.861C665.614 263.389 666.402 264.365 667.797 264.789C669.193 265.213 671.343 265.419 674.25 265.405L673.901 267.993C671.25 267.99 667.881 268.118 663.793 268.378C659.7 268.552 655.524 268.775 651.266 269.045C646.412 269.353 641.858 269.685 637.606 270.041C633.433 270.306 630.032 270.607 627.402 270.945L627.879 268.35C630.678 268.001 632.828 267.523 634.329 266.914C635.915 266.301 637.127 265.198 637.966 263.605C638.806 262.013 639.512 259.659 640.083 256.545L652.922 192.114C653.573 188.909 653.768 186.588 653.506 185.151C653.238 183.629 652.407 182.655 651.012 182.231C649.696 181.716 647.588 181.508 644.687 181.606L645.164 179.011C647.639 178.939 651.008 178.811 655.272 178.626C659.621 178.435 664.222 178.186 669.076 177.877C673.334 177.607 677.419 177.305 681.331 176.971C685.329 176.632 688.815 176.325 691.79 176.05L691.314 178.646C688.423 178.915 686.188 179.399 684.608 180.097C683.022 180.711 681.81 181.814 680.971 183.407C680.211 184.908 679.505 187.262 678.854 190.467L666.015 254.898ZM798.857 169.764C795.536 169.975 792.375 171.373 789.376 173.958C786.371 176.457 783.638 179.88 781.178 184.226C778.712 188.487 776.628 193.365 774.925 198.86C773.216 204.269 771.958 210.035 771.149 216.158C770.426 222.274 770.259 228.399 770.649 234.53C771.179 242.876 772.66 249.366 775.091 254C777.518 258.549 780.349 260.72 783.585 260.515C786.907 260.304 790.07 258.949 793.075 256.449C796.074 253.864 798.807 250.442 801.273 246.181C803.733 241.835 805.817 236.957 807.526 231.547C809.229 226.052 810.442 220.246 811.165 214.13C811.974 208.007 812.183 201.88 811.794 195.749C811.264 187.403 809.785 180.956 807.359 176.407C804.927 171.773 802.093 169.559 798.857 169.764ZM742.951 234.622C742.594 229.001 743.163 223.151 744.658 217.07C746.153 210.99 748.473 205.114 751.619 199.442C754.764 193.77 758.669 188.605 763.332 183.948C768.081 179.286 773.525 175.477 779.665 172.522C785.805 169.567 792.537 167.857 799.861 167.392C811.613 166.646 821.023 168.742 828.092 173.68C835.155 178.532 839 185.898 839.627 195.777C839.984 201.398 839.415 207.248 837.92 213.328C836.42 219.324 834.054 225.16 830.824 230.837C827.678 236.509 823.731 241.677 818.982 246.339C814.233 251.001 808.789 254.81 802.649 257.765C796.595 260.715 789.906 262.422 782.582 262.887C770.829 263.633 761.422 261.58 754.359 256.727C747.375 251.784 743.573 244.415 742.951 234.622ZM933.31 161.098L945.829 160.303C950.342 160.017 954.598 159.704 958.595 159.364C962.677 159.02 966.291 158.705 969.437 158.419L968.96 161.015C966.07 161.284 963.835 161.768 962.255 162.467C960.669 163.08 959.457 164.183 958.617 165.776C957.858 167.278 957.152 169.631 956.5 172.836L943.662 237.267C943.09 240.382 942.895 242.703 943.078 244.23C943.346 245.752 944.177 246.726 945.572 247.15C946.967 247.575 949.075 247.783 951.896 247.775L951.548 250.362C948.386 250.392 944.804 250.534 940.801 250.788C936.793 250.957 932.532 251.185 928.019 251.471C923.42 251.763 919.037 252.084 914.869 252.435C910.781 252.694 907.508 252.987 905.049 253.315L905.398 250.727C908.368 250.368 910.603 249.884 912.103 249.275C913.689 248.662 914.902 247.559 915.741 245.966C916.58 244.374 917.286 242.02 917.858 238.906L932.008 168.876L884.268 255.276L881.457 255.454L865.351 181.574L854.118 238.977C853.674 241.4 853.524 243.761 853.67 246.06C853.896 248.269 854.864 250.046 856.574 251.391C858.284 252.736 861.231 253.361 865.414 253.266L865.066 255.854C864.038 255.833 862.588 255.883 860.714 256.002C858.921 256.03 857.044 256.106 855.086 256.231C853.121 256.27 851.373 256.338 849.84 256.436C847.626 256.576 845.414 256.759 843.206 256.985C840.991 257.126 839.166 257.327 837.729 257.59L838.078 255.002C841.047 254.643 843.381 253.682 845.077 252.121C846.859 250.554 848.233 248.628 849.199 246.344C850.16 243.974 850.863 241.578 851.308 239.156L863.376 178.75C864.028 175.545 864.222 173.224 863.96 171.787C863.692 170.265 862.861 169.291 861.466 168.867C860.151 168.352 858.043 168.144 855.142 168.242L855.618 165.647C858.008 165.581 861.122 165.469 864.96 165.31C868.882 165.147 872.973 164.93 877.231 164.659C879.36 164.524 881.444 164.349 883.482 164.134C885.521 163.919 887.346 163.718 888.959 163.53L900.067 221.31L933.31 161.098ZM993.096 203.346L993.444 200.759L1020.78 199.023L1020.43 201.61L993.096 203.346ZM1006.6 199.924C1008.65 199.794 1010.58 199.286 1012.4 198.401C1014.31 197.51 1015.99 196.335 1017.44 194.875C1018.97 193.409 1020.28 191.787 1021.36 190.008C1022.53 188.224 1023.4 186.373 1023.96 184.456L1026.77 184.278C1025.87 187.67 1025.2 190.491 1024.74 192.743C1024.37 194.905 1023.93 197.37 1023.42 200.138C1023.1 201.869 1022.81 203.426 1022.56 204.81C1022.3 206.109 1022.05 207.579 1021.81 209.218C1021.66 210.853 1021.42 213.091 1021.09 215.934L1018.28 216.112C1018.18 214.665 1017.87 213.145 1017.34 211.554C1016.9 209.873 1016.16 208.338 1015.13 206.949C1014.1 205.561 1012.75 204.45 1011.07 203.616C1009.39 202.782 1007.36 202.441 1004.98 202.592L1006.6 199.924ZM1039.65 177.047C1039.42 172.017 1038.61 168.092 1037.24 165.273C1035.85 162.368 1033.98 160.392 1031.6 159.346C1029.22 158.214 1026.33 157.757 1022.92 157.973L1022.54 157.997C1019.73 158.176 1017.53 158.572 1015.94 159.186C1014.44 159.709 1013.31 160.764 1012.55 162.351C1011.79 163.853 1011.09 166.206 1010.44 169.411L997.597 233.842C997.025 236.957 996.831 239.278 997.013 240.805C997.196 242.333 997.942 243.312 999.252 243.741C1000.64 244.081 1002.74 244.161 1005.55 243.983L1007.21 243.877C1011.3 243.618 1014.87 242.664 1017.93 241.016C1020.99 239.368 1023.78 236.84 1026.3 233.431C1028.9 229.931 1031.38 225.284 1033.75 219.49L1036.56 219.312C1036.21 220.446 1035.83 221.838 1035.42 223.489C1035.09 225.134 1034.78 226.864 1034.46 228.68C1034.14 230.325 1033.74 232.702 1033.25 235.811C1032.76 238.835 1032.4 241.978 1032.18 245.242C1027.83 245.347 1022.97 245.57 1017.6 245.911C1012.32 246.161 1007.55 246.421 1003.29 246.692C1000.99 246.838 998.092 247.022 994.6 247.243C991.109 247.465 987.279 247.751 983.112 248.101C979.024 248.361 974.896 248.666 970.729 249.016C966.556 249.281 962.599 249.575 958.857 249.898L959.206 247.31C962.09 246.956 964.325 246.472 965.911 245.859C967.497 245.245 968.709 244.142 969.549 242.549C970.388 240.957 971.094 238.604 971.665 235.489L984.504 171.058C985.156 167.853 985.35 165.532 985.088 164.095C984.82 162.573 983.989 161.6 982.594 161.175C981.279 160.66 979.171 160.452 976.27 160.551L976.746 157.955C980.413 157.808 984.336 157.644 988.515 157.464C992.688 157.2 996.821 156.98 1000.91 156.805C1005.09 156.54 1008.92 156.297 1012.41 156.075C1015.9 155.854 1018.8 155.67 1021.1 155.524C1025.01 155.275 1029.4 154.996 1034.25 154.688C1039.1 154.295 1043.52 153.886 1047.52 153.461C1046.6 156.512 1045.82 159.127 1045.19 161.304C1044.64 163.392 1044.12 165.904 1043.62 168.843C1043.38 170.398 1043.13 171.867 1042.87 173.251C1042.7 174.63 1042.57 175.836 1042.46 176.869L1039.65 177.047Z" fill="#FF0000"/>
<path d="M472.015 150V149.04C473.039 148.976 473.807 148.848 474.319 148.656C474.831 148.464 475.167 148.08 475.327 147.504C475.519 146.928 475.615 146.064 475.615 144.912V121.104C475.615 119.92 475.519 119.056 475.327 118.512C475.167 117.936 474.815 117.552 474.271 117.36C473.759 117.136 473.007 117.008 472.015 116.976V116.016C472.879 116.048 473.999 116.08 475.375 116.112C476.783 116.144 478.175 116.16 479.551 116.16C481.023 116.16 482.399 116.144 483.679 116.112C484.991 116.08 486.047 116.048 486.847 116.016V116.976C485.823 117.008 485.039 117.136 484.495 117.36C483.983 117.552 483.647 117.936 483.487 118.512C483.327 119.056 483.247 119.92 483.247 121.104V144.912C483.247 146.064 483.327 146.928 483.487 147.504C483.679 148.08 484.031 148.464 484.543 148.656C485.055 148.848 485.823 148.976 486.847 149.04V150C486.047 149.936 484.991 149.904 483.679 149.904C482.399 149.872 481.023 149.856 479.551 149.856C478.175 149.856 476.783 149.872 475.375 149.904C473.999 149.904 472.879 149.936 472.015 150ZM451.663 150V149.04C452.687 148.976 453.455 148.848 453.967 148.656C454.479 148.464 454.815 148.08 454.975 147.504C455.167 146.928 455.263 146.064 455.263 144.912V121.104C455.263 119.92 455.167 119.056 454.975 118.512C454.815 117.936 454.463 117.552 453.919 117.36C453.407 117.136 452.655 117.008 451.663 116.976V116.016C452.495 116.048 453.567 116.08 454.879 116.112C456.223 116.144 457.679 116.16 459.247 116.16C460.591 116.16 461.919 116.144 463.231 116.112C464.543 116.08 465.631 116.048 466.495 116.016V116.976C465.471 117.008 464.687 117.136 464.143 117.36C463.631 117.552 463.295 117.936 463.135 118.512C462.975 119.056 462.895 119.92 462.895 121.104V144.912C462.895 146.064 462.975 146.928 463.135 147.504C463.327 148.08 463.679 148.464 464.191 148.656C464.703 148.848 465.471 148.976 466.495 149.04V150C465.631 149.936 464.543 149.904 463.231 149.904C461.919 149.872 460.591 149.856 459.247 149.856C457.679 149.856 456.223 149.872 454.879 149.904C453.567 149.904 452.495 149.936 451.663 150ZM459.775 133.392V132.432H478.735V133.392H459.775ZM507.103 115.344C510.495 115.344 513.455 116.032 515.983 117.408C518.543 118.784 520.527 120.768 521.935 123.36C523.343 125.92 524.047 129.04 524.047 132.72C524.047 136.304 523.327 139.44 521.887 142.128C520.447 144.816 518.431 146.912 515.839 148.416C513.279 149.92 510.351 150.672 507.055 150.672C503.663 150.672 500.687 149.984 498.127 148.608C495.599 147.232 493.631 145.248 492.223 142.656C490.815 140.064 490.111 136.944 490.111 133.296C490.111 129.712 490.831 126.576 492.271 123.888C493.743 121.2 495.743 119.104 498.271 117.6C500.831 116.096 503.775 115.344 507.103 115.344ZM506.911 116.208C505.119 116.208 503.551 116.928 502.207 118.368C500.895 119.808 499.871 121.792 499.135 124.32C498.431 126.848 498.079 129.776 498.079 133.104C498.079 136.496 498.479 139.456 499.279 141.984C500.111 144.48 501.215 146.416 502.591 147.792C503.999 149.136 505.551 149.808 507.247 149.808C509.039 149.808 510.591 149.088 511.903 147.648C513.247 146.208 514.271 144.224 514.975 141.696C515.711 139.136 516.079 136.208 516.079 132.912C516.079 129.488 515.663 126.528 514.831 124.032C514.031 121.536 512.927 119.616 511.519 118.272C510.143 116.896 508.607 116.208 506.911 116.208ZM571.971 116.016V116.976C571.267 117.232 570.531 117.792 569.763 118.656C568.995 119.488 568.323 120.832 567.747 122.688L559.299 150.096C559.043 150.064 558.771 150.048 558.483 150.048C558.195 150.048 557.907 150.048 557.619 150.048C557.331 150.048 557.043 150.048 556.755 150.048C556.467 150.048 556.195 150.064 555.939 150.096L545.859 119.568C545.539 118.576 545.139 117.904 544.659 117.552C544.211 117.2 543.731 117.008 543.219 116.976V116.016C544.115 116.048 545.171 116.08 546.387 116.112C547.635 116.144 548.867 116.16 550.083 116.16C551.491 116.16 552.803 116.144 554.019 116.112C555.267 116.08 556.259 116.048 556.995 116.016V116.976C556.035 117.008 555.267 117.12 554.691 117.312C554.147 117.504 553.827 117.872 553.731 118.416C553.667 118.96 553.827 119.824 554.211 121.008L561.027 141.84L559.923 143.808L565.347 126.576C566.115 124.144 566.483 122.24 566.451 120.864C566.419 119.488 566.051 118.512 565.347 117.936C564.643 117.328 563.635 117.008 562.323 116.976V116.016C563.411 116.048 564.435 116.08 565.395 116.112C566.355 116.144 567.315 116.16 568.275 116.16C569.011 116.16 569.683 116.144 570.291 116.112C570.931 116.08 571.491 116.048 571.971 116.016ZM537.699 116.016V116.976C537.059 117.072 536.611 117.312 536.355 117.696C536.099 118.048 535.987 118.528 536.019 119.136C536.083 119.712 536.227 120.336 536.451 121.008L543.795 142.32L542.499 144.048L548.643 126.096L549.315 127.392L541.779 150.096C541.523 150.064 541.251 150.048 540.963 150.048C540.675 150.048 540.387 150.048 540.099 150.048C539.811 150.048 539.523 150.048 539.235 150.048C538.947 150.048 538.675 150.064 538.419 150.096L527.667 120.048C527.251 118.864 526.755 118.064 526.179 117.648C525.635 117.232 525.123 117.008 524.643 116.976V116.016C525.603 116.048 526.739 116.08 528.051 116.112C529.363 116.144 530.611 116.16 531.795 116.16C533.075 116.16 534.211 116.144 535.203 116.112C536.227 116.08 537.059 116.048 537.699 116.016ZM611.91 116.016C611.782 117.648 611.686 119.216 611.622 120.72C611.59 122.224 611.574 123.376 611.574 124.176C611.574 124.88 611.59 125.552 611.622 126.192C611.654 126.832 611.686 127.376 611.718 127.824H610.614C610.102 125.136 609.446 123.008 608.646 121.44C607.878 119.872 606.95 118.768 605.862 118.128C604.774 117.456 603.494 117.12 602.022 117.12H600.918V144.528C600.918 145.808 601.046 146.768 601.302 147.408C601.59 148.048 602.102 148.48 602.838 148.704C603.574 148.896 604.646 149.008 606.054 149.04V150C605.062 149.968 603.734 149.936 602.07 149.904C600.438 149.872 598.726 149.856 596.934 149.856C595.174 149.856 593.51 149.872 591.942 149.904C590.374 149.936 589.11 149.968 588.15 150V149.04C589.59 149.008 590.678 148.896 591.414 148.704C592.15 148.48 592.646 148.048 592.902 147.408C593.158 146.768 593.286 145.808 593.286 144.528V117.12H592.23C590.758 117.12 589.478 117.456 588.39 118.128C587.302 118.768 586.374 119.872 585.606 121.44C584.838 122.976 584.166 125.104 583.59 127.824H582.486C582.55 127.376 582.582 126.832 582.582 126.192C582.614 125.552 582.63 124.88 582.63 124.176C582.63 123.376 582.598 122.224 582.534 120.72C582.502 119.216 582.422 117.648 582.294 116.016C583.766 116.048 585.366 116.08 587.094 116.112C588.854 116.144 590.614 116.16 592.374 116.16C594.134 116.16 595.718 116.16 597.126 116.16C598.566 116.16 600.15 116.16 601.878 116.16C603.638 116.16 605.398 116.144 607.158 116.112C608.918 116.08 610.502 116.048 611.91 116.016ZM632.212 115.344C635.604 115.344 638.564 116.032 641.092 117.408C643.652 118.784 645.636 120.768 647.044 123.36C648.452 125.92 649.156 129.04 649.156 132.72C649.156 136.304 648.436 139.44 646.996 142.128C645.556 144.816 643.54 146.912 640.948 148.416C638.388 149.92 635.46 150.672 632.164 150.672C628.772 150.672 625.796 149.984 623.236 148.608C620.708 147.232 618.74 145.248 617.332 142.656C615.924 140.064 615.22 136.944 615.22 133.296C615.22 129.712 615.94 126.576 617.38 123.888C618.852 121.2 620.852 119.104 623.38 117.6C625.94 116.096 628.884 115.344 632.212 115.344ZM632.02 116.208C630.228 116.208 628.66 116.928 627.316 118.368C626.004 119.808 624.98 121.792 624.244 124.32C623.54 126.848 623.188 129.776 623.188 133.104C623.188 136.496 623.588 139.456 624.388 141.984C625.22 144.48 626.324 146.416 627.7 147.792C629.108 149.136 630.66 149.808 632.356 149.808C634.148 149.808 635.7 149.088 637.012 147.648C638.356 146.208 639.38 144.224 640.084 141.696C640.82 139.136 641.188 136.208 641.188 132.912C641.188 129.488 640.772 126.528 639.94 124.032C639.14 121.536 638.036 119.616 636.628 118.272C635.252 116.896 633.716 116.208 632.02 116.208ZM694.63 116.016V116.976C693.606 117.104 692.822 117.376 692.278 117.792C691.766 118.176 691.43 118.8 691.27 119.664C691.11 120.528 691.03 121.744 691.03 123.312V136.032C691.03 138.112 690.886 140.016 690.598 141.744C690.31 143.472 689.798 144.96 689.062 146.208C688.23 147.584 687.014 148.672 685.414 149.472C683.814 150.272 681.782 150.672 679.318 150.672C677.846 150.672 676.342 150.496 674.806 150.144C673.27 149.824 671.894 149.2 670.678 148.272C669.654 147.408 668.87 146.432 668.326 145.344C667.782 144.256 667.414 142.976 667.222 141.504C667.03 140 666.934 138.224 666.934 136.176V121.104C666.934 119.92 666.838 119.056 666.646 118.512C666.486 117.936 666.15 117.552 665.638 117.36C665.126 117.136 664.358 117.008 663.334 116.976V116.016C664.134 116.048 665.206 116.08 666.55 116.112C667.926 116.144 669.35 116.16 670.822 116.16C672.294 116.16 673.702 116.144 675.046 116.112C676.422 116.08 677.558 116.048 678.454 116.016V116.976C677.366 117.008 676.534 117.136 675.958 117.36C675.414 117.552 675.046 117.936 674.854 118.512C674.662 119.056 674.566 119.92 674.566 121.104V139.2C674.566 140.8 674.662 142.224 674.854 143.472C675.078 144.688 675.43 145.712 675.91 146.544C676.422 147.344 677.11 147.952 677.974 148.368C678.838 148.784 679.91 148.992 681.19 148.992C683.43 148.992 685.174 148.464 686.422 147.408C687.702 146.352 688.598 144.896 689.11 143.04C689.654 141.152 689.926 138.992 689.926 136.56V123.888C689.926 122.128 689.814 120.784 689.59 119.856C689.366 118.896 688.918 118.208 688.246 117.792C687.606 117.376 686.614 117.104 685.27 116.976V116.016C685.878 116.048 686.678 116.08 687.67 116.112C688.662 116.144 689.59 116.16 690.454 116.16C691.222 116.16 691.974 116.144 692.71 116.112C693.478 116.08 694.118 116.048 694.63 116.016ZM709.148 115.392C711.036 115.392 712.492 115.6 713.516 116.016C714.54 116.4 715.42 116.816 716.156 117.264C716.54 117.488 716.844 117.664 717.068 117.792C717.324 117.888 717.564 117.936 717.788 117.936C718.108 117.936 718.332 117.76 718.46 117.408C718.62 117.056 718.748 116.528 718.844 115.824H719.948C719.916 116.432 719.868 117.168 719.804 118.032C719.772 118.864 719.74 119.968 719.708 121.344C719.708 122.72 719.708 124.528 719.708 126.768H718.604C718.476 125.104 718.092 123.488 717.452 121.92C716.812 120.352 715.9 119.072 714.716 118.08C713.564 117.056 712.14 116.544 710.444 116.544C708.908 116.544 707.644 116.976 706.652 117.84C705.66 118.704 705.164 119.904 705.164 121.44C705.164 122.72 705.484 123.824 706.124 124.752C706.764 125.648 707.692 126.528 708.908 127.392C710.156 128.256 711.66 129.296 713.42 130.512C714.956 131.504 716.332 132.496 717.548 133.488C718.764 134.48 719.74 135.6 720.476 136.848C721.212 138.096 721.58 139.584 721.58 141.312C721.58 143.424 721.02 145.168 719.9 146.544C718.812 147.92 717.372 148.96 715.58 149.664C713.788 150.336 711.82 150.672 709.676 150.672C707.692 150.672 706.108 150.48 704.924 150.096C703.74 149.712 702.748 149.312 701.948 148.896C701.244 148.448 700.7 148.224 700.316 148.224C699.996 148.224 699.756 148.4 699.596 148.752C699.468 149.104 699.356 149.632 699.26 150.336H698.156C698.22 149.568 698.252 148.672 698.252 147.648C698.284 146.624 698.3 145.296 698.3 143.664C698.332 142 698.348 139.904 698.348 137.376H699.452C699.58 139.488 699.932 141.472 700.508 143.328C701.116 145.152 702.028 146.624 703.244 147.744C704.492 148.864 706.14 149.424 708.188 149.424C709.308 149.424 710.3 149.232 711.164 148.848C712.06 148.432 712.78 147.824 713.324 147.024C713.868 146.224 714.14 145.232 714.14 144.048C714.14 142.704 713.82 141.536 713.18 140.544C712.572 139.552 711.724 138.624 710.636 137.76C709.58 136.896 708.348 136.016 706.94 135.12C705.436 134.128 704.028 133.136 702.716 132.144C701.404 131.152 700.348 130.016 699.548 128.736C698.78 127.456 698.396 125.936 698.396 124.176C698.396 122.16 698.892 120.512 699.884 119.232C700.908 117.92 702.236 116.96 703.868 116.352C705.532 115.712 707.292 115.392 709.148 115.392ZM750.859 116.016C750.731 117.424 750.635 118.784 750.571 120.096C750.539 121.408 750.523 122.416 750.523 123.12C750.523 123.76 750.539 124.368 750.571 124.944C750.603 125.52 750.635 126 750.667 126.384H749.563C749.243 124.048 748.747 122.208 748.075 120.864C747.403 119.488 746.523 118.528 745.435 117.984C744.379 117.408 743.131 117.12 741.691 117.12H739.723C738.795 117.12 738.091 117.2 737.611 117.36C737.131 117.52 736.811 117.84 736.651 118.32C736.491 118.8 736.411 119.536 736.411 120.528V145.488C736.411 146.48 736.491 147.216 736.651 147.696C736.811 148.176 737.131 148.496 737.611 148.656C738.091 148.816 738.795 148.896 739.723 148.896H742.075C743.515 148.896 744.779 148.592 745.867 147.984C746.987 147.344 747.931 146.272 748.699 144.768C749.499 143.264 750.107 141.232 750.523 138.672H751.627C751.531 139.696 751.483 141.04 751.483 142.704C751.483 143.44 751.499 144.48 751.531 145.824C751.563 147.168 751.659 148.56 751.819 150C750.187 149.936 748.347 149.904 746.299 149.904C744.251 149.872 742.427 149.856 740.827 149.856C740.027 149.856 739.003 149.856 737.755 149.856C736.507 149.856 735.163 149.872 733.723 149.904C732.283 149.904 730.827 149.92 729.355 149.952C727.883 149.952 726.491 149.968 725.179 150V149.04C726.203 148.976 726.971 148.848 727.483 148.656C727.995 148.464 728.331 148.08 728.491 147.504C728.683 146.928 728.779 146.064 728.779 144.912V121.104C728.779 119.92 728.683 119.056 728.491 118.512C728.331 117.936 727.979 117.552 727.435 117.36C726.923 117.136 726.171 117.008 725.179 116.976V116.016C726.491 116.048 727.883 116.08 729.355 116.112C730.827 116.112 732.283 116.128 733.723 116.16C735.163 116.16 736.507 116.16 737.755 116.16C739.003 116.16 740.027 116.16 740.827 116.16C742.299 116.16 743.963 116.16 745.819 116.16C747.707 116.128 749.387 116.08 750.859 116.016ZM743.371 132.432C743.371 132.432 743.371 132.592 743.371 132.912C743.371 133.232 743.371 133.392 743.371 133.392H734.971C734.971 133.392 734.971 133.232 734.971 132.912C734.971 132.592 734.971 132.432 734.971 132.432H743.371ZM744.763 126.096C744.635 127.92 744.571 129.312 744.571 130.272C744.603 131.232 744.619 132.112 744.619 132.912C744.619 133.712 744.635 134.592 744.667 135.552C744.699 136.512 744.779 137.904 744.907 139.728H743.803C743.643 138.608 743.339 137.568 742.891 136.608C742.475 135.648 741.867 134.88 741.067 134.304C740.267 133.696 739.227 133.392 737.947 133.392V132.432C738.907 132.432 739.723 132.24 740.395 131.856C741.067 131.44 741.611 130.912 742.027 130.272C742.475 129.6 742.827 128.896 743.083 128.16C743.339 127.424 743.531 126.736 743.659 126.096H744.763Z" fill="white"/>
</svg>
