<svg width="1613" height="666" viewBox="0 0 1613 666" fill="none" xmlns="http://www.w3.org/2000/svg">
<path d="M749.5 381C929.185 381 1092.23 366.016 1210.68 341.632C1269.8 329.462 1318.49 314.814 1352.73 298.153C1369.82 289.836 1383.98 280.695 1394.04 270.57C1404.15 260.408 1411 248.305 1411 234.5C1411 220.695 1404.15 208.592 1394.04 198.43C1383.98 188.305 1369.82 179.164 1352.73 170.847C1318.49 154.186 1269.8 139.538 1210.68 127.368C1092.23 102.984 929.185 88 749.5 88C569.815 88 406.77 102.984 288.32 127.368C229.202 139.538 180.505 154.186 146.273 170.847C129.185 179.164 115.02 188.305 104.955 198.43C94.8539 208.592 88 220.695 88 234.5C88 248.305 94.8539 260.408 104.955 270.57C115.02 280.695 129.185 289.836 146.273 298.153C180.505 314.814 229.202 329.462 288.32 341.632C406.77 366.016 569.815 381 749.5 381Z" fill="#FFD600" stroke="#FF0000" stroke-width="26"/>
<path d="M452.876 264.912L452.655 267.492L397.598 270.988L397.819 268.409L452.876 264.912ZM415.544 244.581C413.074 244.738 410.671 244.592 408.334 244.141C406.082 243.686 403.909 243.14 401.817 242.503C399.724 241.867 397.722 241.31 395.811 240.832C393.899 240.355 392.092 240.171 390.389 240.279C388.43 240.403 386.759 241.022 385.377 242.136C383.994 243.25 383.375 244.957 383.521 247.256C383.7 250.067 385.166 252.282 387.919 253.903C390.758 255.518 395.385 256.336 401.799 256.356C401.799 256.356 401.78 256.742 401.744 257.514C401.707 258.286 401.689 258.672 401.689 258.672C396.132 258.683 391.216 258.012 386.94 256.658C382.664 255.305 379.285 253.254 376.802 250.505C374.313 247.67 372.939 244.209 372.679 240.121C372.344 234.841 373.732 230.435 376.842 226.903C379.952 223.37 384.957 221.385 391.855 220.947C395.517 220.715 398.737 220.938 401.517 221.616C404.381 222.289 407.001 223.149 409.376 224.195C411.836 225.236 414.299 226.32 416.765 227.446C419.31 228.481 422.015 229.335 424.879 230.009C427.744 230.682 431.05 230.899 434.797 230.661C437.607 230.483 440.992 229.926 444.951 228.99C448.911 228.055 452.414 226.678 455.463 224.86C457.078 222.021 458.691 219.824 460.303 218.268C461.914 216.712 463.393 216.447 464.741 217.473C465.817 218.26 465.848 219.412 464.832 220.93C463.817 222.448 461.107 224.202 456.701 226.192C451.645 231.387 447.835 238.042 445.272 246.157C442.709 254.271 440.464 263.349 438.536 273.39L432.579 304.807C431.499 310.69 429.413 316.209 426.32 321.365C423.312 326.515 419.005 330.722 413.398 333.985C407.796 337.334 400.524 339.292 391.582 339.86C387.75 340.103 384.191 339.944 380.906 339.383C377.712 338.902 375.082 337.872 373.015 336.293C371.038 334.794 369.961 332.639 369.783 329.829C369.577 326.593 370.514 323.84 372.593 321.57C374.762 319.38 378.019 318.147 382.362 317.872C385.939 317.644 389.011 318.219 391.578 319.595C394.23 320.966 395.656 323.227 395.856 326.378C396.008 328.762 395.416 330.894 394.082 332.775C392.833 334.65 390.884 336.27 388.234 337.635C388.921 337.677 389.477 337.685 389.903 337.657C390.334 337.716 390.763 337.731 391.189 337.704C393.147 337.58 394.778 337.006 396.081 335.983C397.47 334.954 398.655 333.425 399.638 331.396C400.621 329.367 401.523 326.744 402.345 323.529C403.257 320.392 404.174 316.658 405.096 312.324L411.947 280.85C413.41 274.259 415.352 268.492 417.775 263.55C420.192 258.523 423.072 254.065 426.417 250.176C429.841 246.196 433.667 242.49 437.895 239.058C442.209 235.62 446.86 232.118 451.849 228.552C447.832 229.919 444.384 231.506 441.506 233.313C438.623 235.036 435.907 236.704 433.359 238.32C430.896 239.93 428.249 241.338 425.419 242.544C422.668 243.659 419.376 244.338 415.544 244.581ZM490.988 295.839C490.416 298.954 490.222 301.275 490.404 302.802C490.587 304.33 491.376 305.306 492.771 305.73C494.166 306.155 496.316 306.36 499.223 306.347L498.874 308.934C496.138 308.937 492.598 309.076 488.255 309.352C483.906 309.542 479.475 309.781 474.962 310.068C470.363 310.36 466.065 310.675 462.068 311.015C458.065 311.269 454.834 311.559 452.376 311.887L452.852 309.291C455.652 308.942 457.802 308.464 459.302 307.856C460.888 307.242 462.1 306.139 462.94 304.546C463.779 302.954 464.485 300.601 465.056 297.486L477.895 233.055C478.547 229.85 478.741 227.529 478.479 226.092C478.211 224.57 477.38 223.597 475.985 223.172C474.67 222.657 472.561 222.449 469.661 222.548L470.137 219.952C472.527 219.886 475.726 219.768 479.734 219.599C483.827 219.425 488.173 219.192 492.772 218.9C497.285 218.613 501.626 218.295 505.793 217.945C509.961 217.594 513.618 217.277 516.763 216.991L516.287 219.587C513.397 219.856 511.161 220.34 509.581 221.039C507.996 221.652 506.783 222.755 505.944 224.348C505.184 225.85 504.478 228.203 503.827 231.408L490.988 295.839ZM589.376 211.483C588.665 213.751 587.721 217.06 586.543 221.41C585.361 225.675 584.344 231.212 583.494 238.021L580.939 238.183C581.119 236.975 581.211 235.729 581.215 234.446C581.304 233.158 581.319 232.045 581.259 231.108C581.038 227.617 580.085 224.727 578.4 222.44C576.796 220.062 574.59 218.321 571.784 217.217C568.972 216.027 565.65 215.554 561.818 215.798C558.156 216.03 554.979 217.173 552.288 219.225C549.682 221.271 548.522 224.551 548.809 229.065C548.993 231.96 549.855 234.77 551.396 237.494C552.932 240.132 554.851 242.747 557.153 245.337C559.54 247.921 562.015 250.543 564.578 253.202C567.221 255.77 569.699 258.435 572.012 261.195C574.404 263.865 576.382 266.732 577.945 269.796C579.507 272.861 580.399 276.139 580.621 279.63C580.919 284.314 579.938 288.395 577.679 291.874C575.415 295.266 572.432 298.107 568.729 300.394C565.027 302.681 561.076 304.428 556.877 305.635C552.679 306.843 548.749 307.562 545.087 307.795C540.658 308.076 537.025 308.093 534.188 307.846C531.35 307.598 528.883 307.114 526.785 306.392C524.681 305.585 522.397 304.619 519.931 303.493C519.047 303.036 518.211 302.661 517.423 302.369C516.63 301.992 515.977 301.82 515.466 301.852C514.359 301.922 513.495 302.448 512.873 303.428C512.251 304.408 511.431 306.298 510.412 309.099L507.857 309.261C508.504 307.339 509.175 305.116 509.87 302.592C510.565 300.069 511.302 296.858 512.08 292.961C512.853 288.979 513.692 284.009 514.596 278.051L517.151 277.889C516.807 279.194 516.569 280.833 516.437 282.808C516.386 284.693 516.452 286.399 516.634 287.926C517.284 294.127 519.541 298.686 523.403 301.605C527.259 304.438 532.339 305.655 538.641 305.254C544.602 304.876 548.492 303.517 550.31 301.179C552.208 298.75 553.051 295.874 552.84 292.553C552.613 288.976 551.763 285.695 550.291 282.711C548.899 279.635 547.137 276.797 545.005 274.197C542.868 271.511 540.608 268.918 538.227 266.419C535.925 263.829 533.708 261.233 531.576 258.632C529.444 256.032 527.645 253.281 526.178 250.382C524.791 247.392 523.99 244.193 523.773 240.787C523.487 236.273 524.262 232.334 526.101 228.968C528.024 225.596 530.622 222.738 533.893 220.393C537.164 218.047 540.726 216.239 544.579 214.969C548.431 213.698 552.146 212.949 555.723 212.722C561.769 212.338 566.63 212.799 570.304 214.105C573.973 215.325 576.773 216.344 578.706 217.162C579.409 217.46 580.2 217.794 581.079 218.166C581.958 218.538 582.61 218.71 583.036 218.683C584.228 218.607 585.49 216.261 586.821 211.645L589.376 211.483ZM669.121 232.455C670.292 226.652 670.91 222.252 670.977 219.255C671.123 216.168 670.386 213.991 668.766 212.726C667.232 211.455 664.49 210.689 660.54 210.427L661.144 207.823C662.853 207.8 665.03 207.747 667.675 207.665C670.406 207.577 672.964 207.457 675.348 207.306C677.307 207.182 679.22 207.017 681.088 206.813C683.042 206.604 684.697 206.413 686.054 206.241L685.45 208.845C682.757 209.529 680.642 210.561 679.105 211.941C677.568 213.321 676.29 215.412 675.271 218.213C674.332 220.923 673.377 224.746 672.408 229.681L666.443 260.97C664.124 272.917 660.524 282.209 655.644 288.847C652.805 292.618 649.157 295.757 644.699 298.263C640.32 300.679 635.491 302.054 630.211 302.39C622.461 302.882 616.214 302.124 611.469 300.117C606.725 298.109 603.262 295.422 601.082 292.055C599.173 288.927 598.043 285.279 597.693 281.112C597.423 276.853 597.907 271.692 599.147 265.628L607.203 224.844C607.854 221.639 608.049 219.318 607.786 217.881C607.519 216.359 606.687 215.385 605.292 214.961C603.977 214.446 601.869 214.238 598.968 214.337L599.572 211.733C602.047 211.661 605.459 211.53 609.808 211.34C614.242 211.143 618.886 210.891 623.74 210.583C627.998 210.313 632.041 210.013 635.867 209.685C639.694 209.356 643.095 209.055 646.071 208.78L645.466 211.384C642.576 211.653 640.341 212.137 638.761 212.836C637.175 213.449 635.963 214.552 635.123 216.145C634.364 217.647 633.658 220 633.007 223.205L624.45 266.202C623.29 272.175 622.627 277.22 622.461 281.334C622.29 285.364 622.583 288.637 623.341 291.154C624.179 293.581 625.36 295.344 626.884 296.444C628.402 297.46 630.225 297.9 632.354 297.764C638.741 297.359 643.975 295.616 648.054 292.535C652.129 289.369 655.369 285.187 657.775 279.99C660.181 274.792 661.993 268.991 663.211 262.586L669.121 232.455ZM716.129 208.949C716.508 214.91 715.148 220.426 712.05 225.497C708.951 230.567 704.503 234.569 698.704 237.503L697.919 235.244C701.319 233.574 704.326 231.117 706.942 227.873C709.558 224.629 710.863 220.955 710.859 216.851C709.748 218.204 708.448 219.27 706.958 220.048C705.469 220.827 703.872 221.27 702.169 221.379C699.018 221.579 696.502 221.012 694.622 219.677C692.827 218.338 691.843 216.305 691.67 213.58C691.502 210.94 691.949 208.56 693.012 206.441C694.159 204.316 695.763 202.632 697.821 201.39C699.96 200.057 702.392 199.304 705.117 199.131C708.353 198.925 710.917 199.575 712.808 201.079C714.784 202.579 715.891 205.202 716.129 208.949ZM793.714 198.507C793.003 200.775 792.059 204.084 790.882 208.434C789.699 212.699 788.683 218.236 787.832 225.045L785.278 225.207C785.457 223.999 785.549 222.753 785.553 221.47C785.642 220.182 785.657 219.07 785.598 218.133C785.376 214.641 784.423 211.752 782.739 209.465C781.134 207.087 778.929 205.346 776.122 204.241C773.311 203.052 769.989 202.579 766.156 202.822C762.495 203.055 759.318 204.197 756.626 206.249C754.02 208.296 752.86 211.576 753.147 216.089C753.331 218.985 754.193 221.794 755.734 224.518C757.27 227.157 759.189 229.771 761.491 232.361C763.878 234.946 766.353 237.567 768.916 240.226C771.559 242.795 774.037 245.459 776.35 248.219C778.743 250.889 780.72 253.756 782.283 256.821C783.846 259.885 784.738 263.163 784.96 266.655C785.257 271.339 784.276 275.42 782.018 278.898C779.753 282.291 776.77 285.131 773.067 287.418C769.365 289.705 765.414 291.453 761.216 292.66C757.017 293.867 753.087 294.587 749.425 294.819C744.997 295.101 741.364 295.118 738.526 294.87C735.689 294.623 733.221 294.138 731.123 293.416C729.02 292.609 726.735 291.643 724.27 290.517C723.386 290.06 722.55 289.686 721.762 289.394C720.968 289.016 720.316 288.844 719.805 288.877C718.698 288.947 717.833 289.472 717.211 290.452C716.59 291.432 715.769 293.323 714.75 296.123L712.195 296.286C712.843 294.363 713.514 292.14 714.208 289.617C714.903 287.093 715.64 283.882 716.419 279.985C717.192 276.003 718.03 271.033 718.935 265.076L721.49 264.914C721.145 266.218 720.907 267.858 720.776 269.833C720.725 271.717 720.79 273.423 720.973 274.951C721.623 281.151 723.879 285.711 727.741 288.629C731.598 291.462 736.677 292.679 742.979 292.279C748.94 291.9 752.83 290.542 754.648 288.203C756.546 285.774 757.39 282.899 757.179 279.577C756.952 276.001 756.102 272.72 754.63 269.735C753.237 266.66 751.475 263.822 749.344 261.221C747.206 258.535 744.947 255.942 742.565 253.443C740.263 250.853 738.046 248.258 735.914 245.657C733.782 243.056 731.983 240.306 730.517 237.406C729.13 234.416 728.328 231.218 728.112 227.811C727.825 223.298 728.601 219.358 730.439 215.992C732.363 212.621 734.96 209.762 738.232 207.417C741.503 205.072 745.065 203.264 748.917 201.993C752.77 200.722 756.485 199.973 760.061 199.746C766.108 199.362 770.968 199.823 774.642 201.129C778.311 202.35 781.112 203.369 783.045 204.187C783.748 204.484 784.539 204.819 785.417 205.19C786.296 205.562 786.948 205.734 787.374 205.707C788.566 205.632 789.828 203.286 791.16 198.669L793.714 198.507ZM857.285 241.797L858.017 239.186L903.11 236.322L902.25 238.942L857.285 241.797ZM900.94 206.191C901.591 202.986 901.786 200.665 901.524 199.228C901.341 197.701 900.553 196.725 899.158 196.3C897.757 195.791 895.606 195.585 892.705 195.684L893.182 193.089C895.742 193.012 899.069 192.886 903.162 192.711C907.34 192.532 911.516 192.309 915.689 192.044C920.543 191.736 925.097 191.404 929.349 191.048C933.687 190.687 937.173 190.381 939.808 190.128L939.332 192.723C936.441 192.992 934.206 193.476 932.626 194.175C931.04 194.789 929.828 195.892 928.989 197.484C928.229 198.986 927.523 201.34 926.872 204.545L914.033 268.976C913.461 272.09 913.267 274.411 913.449 275.939C913.632 277.466 914.42 278.442 915.815 278.867C917.211 279.291 919.361 279.497 922.268 279.483L921.919 282.07C919.353 282.062 915.899 282.196 911.555 282.472C907.292 282.657 902.733 282.904 897.879 283.212C893.706 283.477 889.536 283.785 885.368 284.135C881.28 284.394 877.922 284.693 875.293 285.031L875.641 282.444C878.526 282.09 880.761 281.606 882.347 280.992C883.933 280.378 885.145 279.275 885.984 277.683C886.824 276.09 887.53 273.737 888.101 270.622L900.94 206.191ZM859.87 272.415C859.298 275.53 859.104 277.851 859.286 279.378C859.469 280.906 860.258 281.882 861.653 282.306C863.048 282.73 865.198 282.936 868.105 282.922L867.756 285.51C865.105 285.507 861.736 285.635 857.648 285.895C853.555 286.069 849.379 286.292 845.121 286.562C840.267 286.87 835.713 287.202 831.461 287.558C827.288 287.823 823.887 288.124 821.258 288.462L821.734 285.867C824.534 285.518 826.684 285.04 828.184 284.431C829.77 283.818 830.982 282.715 831.822 281.122C832.661 279.53 833.367 277.176 833.938 274.062L846.777 209.631C847.429 206.426 847.623 204.105 847.361 202.668C847.093 201.146 846.262 200.172 844.867 199.748C843.552 199.233 841.443 199.025 838.543 199.123L839.019 196.528C841.494 196.456 844.863 196.328 849.127 196.143C853.476 195.952 858.077 195.703 862.931 195.394C867.189 195.124 871.274 194.822 875.186 194.488C879.184 194.148 882.67 193.842 885.645 193.567L885.169 196.163C882.279 196.432 880.043 196.916 878.463 197.614C876.878 198.228 875.665 199.331 874.826 200.924C874.066 202.425 873.36 204.779 872.709 207.984L859.87 272.415ZM992.712 187.281C989.391 187.492 986.23 188.89 983.231 191.475C980.226 193.974 977.493 197.397 975.033 201.743C972.567 206.004 970.483 210.882 968.78 216.377C967.071 221.786 965.813 227.552 965.004 233.675C964.281 239.791 964.114 245.916 964.504 252.047C965.034 260.393 966.515 266.883 968.946 271.517C971.373 276.065 974.204 278.237 977.44 278.032C980.762 277.821 983.925 276.466 986.93 273.966C989.929 271.381 992.662 267.959 995.128 263.698C997.588 259.352 999.672 254.474 1001.38 249.064C1003.08 243.569 1004.3 237.763 1005.02 231.647C1005.83 225.524 1006.04 219.397 1005.65 213.266C1005.12 204.92 1003.64 198.473 1001.21 193.924C998.782 189.29 995.948 187.076 992.712 187.281ZM936.806 252.139C936.449 246.518 937.018 240.668 938.513 234.587C940.008 228.507 942.328 222.631 945.474 216.959C948.619 211.287 952.524 206.122 957.187 201.465C961.936 196.803 967.38 192.994 973.52 190.039C979.66 187.084 986.392 185.374 993.716 184.909C1005.47 184.163 1014.88 186.259 1021.95 191.197C1029.01 196.049 1032.86 203.415 1033.48 213.294C1033.84 218.915 1033.27 224.765 1031.78 230.845C1030.27 236.841 1027.91 242.677 1024.68 248.354C1021.53 254.026 1017.59 259.194 1012.84 263.856C1008.09 268.518 1002.64 272.327 996.504 275.282C990.45 278.232 983.761 279.939 976.437 280.404C964.684 281.15 955.277 279.097 948.214 274.244C941.23 269.301 937.428 261.932 936.806 252.139ZM1127.17 178.615L1139.68 177.82C1144.2 177.534 1148.45 177.221 1152.45 176.881C1156.53 176.537 1160.15 176.222 1163.29 175.936L1162.82 178.532C1159.93 178.801 1157.69 179.285 1156.11 179.984C1154.52 180.597 1153.31 181.7 1152.47 183.293C1151.71 184.795 1151.01 187.148 1150.36 190.353L1137.52 254.784C1136.95 257.899 1136.75 260.22 1136.93 261.747C1137.2 263.269 1138.03 264.243 1139.43 264.667C1140.82 265.092 1142.93 265.3 1145.75 265.292L1145.4 267.879C1142.24 267.909 1138.66 268.051 1134.66 268.305C1130.65 268.474 1126.39 268.702 1121.87 268.988C1117.27 269.28 1112.89 269.601 1108.72 269.952C1104.64 270.211 1101.36 270.504 1098.9 270.832L1099.25 268.244C1102.22 267.885 1104.46 267.401 1105.96 266.792C1107.54 266.179 1108.76 265.076 1109.6 263.483C1110.44 261.891 1111.14 259.537 1111.71 256.423L1125.86 186.393L1078.12 272.793L1075.31 272.971L1059.21 199.091L1047.97 256.494C1047.53 258.917 1047.38 261.278 1047.53 263.577C1047.75 265.786 1048.72 267.563 1050.43 268.908C1052.14 270.253 1055.09 270.878 1059.27 270.783L1058.92 273.371C1057.89 273.35 1056.44 273.4 1054.57 273.519C1052.78 273.547 1050.9 273.623 1048.94 273.748C1046.98 273.787 1045.23 273.855 1043.7 273.953C1041.48 274.093 1039.27 274.276 1037.06 274.502C1034.85 274.643 1033.02 274.844 1031.58 275.106L1031.93 272.519C1034.9 272.16 1037.24 271.199 1038.93 269.638C1040.71 268.071 1042.09 266.145 1043.05 263.861C1044.02 261.491 1044.72 259.095 1045.16 256.673L1057.23 196.267C1057.88 193.062 1058.08 190.741 1057.82 189.304C1057.55 187.782 1056.72 186.808 1055.32 186.384C1054.01 185.869 1051.9 185.661 1049 185.759L1049.47 183.164C1051.86 183.098 1054.98 182.985 1058.81 182.827C1062.74 182.664 1066.83 182.447 1071.09 182.176C1073.22 182.041 1075.3 181.866 1077.34 181.651C1079.38 181.436 1081.2 181.235 1082.81 181.047L1093.92 238.827L1127.17 178.615ZM1186.95 220.863L1187.3 218.276L1214.64 216.54L1214.29 219.127L1186.95 220.863ZM1200.46 217.441C1202.5 217.311 1204.44 216.803 1206.26 215.918C1208.17 215.027 1209.85 213.852 1211.29 212.392C1212.83 210.926 1214.13 209.304 1215.22 207.525C1216.39 205.741 1217.25 203.89 1217.82 201.973L1220.63 201.795C1219.73 205.187 1219.05 208.008 1218.6 210.26C1218.22 212.422 1217.78 214.887 1217.27 217.655C1216.95 219.386 1216.67 220.943 1216.41 222.327C1216.16 223.626 1215.91 225.096 1215.67 226.735C1215.52 228.37 1215.27 230.608 1214.94 233.451L1212.13 233.629C1212.04 232.182 1211.73 230.662 1211.2 229.071C1210.75 227.39 1210.01 225.855 1208.98 224.466C1207.95 223.078 1206.6 221.967 1204.92 221.133C1203.25 220.299 1201.22 219.958 1198.83 220.109L1200.46 217.441ZM1233.51 194.564C1233.27 189.534 1232.47 185.609 1231.09 182.79C1229.71 179.885 1227.83 177.909 1225.46 176.863C1223.08 175.731 1220.18 175.274 1216.78 175.49L1216.39 175.514C1213.58 175.693 1211.38 176.089 1209.8 176.703C1208.29 177.226 1207.16 178.281 1206.41 179.868C1205.65 181.37 1204.94 183.723 1204.29 186.928L1191.45 251.359C1190.88 254.474 1190.69 256.795 1190.87 258.322C1191.05 259.85 1191.8 260.829 1193.11 261.258C1194.5 261.598 1196.6 261.678 1199.41 261.5L1201.07 261.394C1205.16 261.135 1208.73 260.181 1211.79 258.533C1214.85 256.885 1217.64 254.357 1220.16 250.948C1222.76 247.448 1225.24 242.801 1227.61 237.007L1230.42 236.829C1230.06 237.963 1229.68 239.355 1229.27 241.006C1228.95 242.651 1228.63 244.381 1228.32 246.197C1228 247.842 1227.59 250.219 1227.1 253.328C1226.61 256.352 1226.26 259.495 1226.04 262.759C1221.68 262.864 1216.82 263.087 1211.46 263.428C1206.17 263.678 1201.4 263.938 1197.14 264.209C1194.84 264.355 1191.95 264.539 1188.46 264.76C1184.96 264.982 1181.13 265.268 1176.97 265.618C1172.88 265.878 1168.75 266.182 1164.58 266.533C1160.41 266.798 1156.45 267.092 1152.71 267.415L1153.06 264.827C1155.95 264.473 1158.18 263.989 1159.77 263.376C1161.35 262.762 1162.56 261.659 1163.4 260.066C1164.24 258.474 1164.95 256.121 1165.52 253.006L1178.36 188.575C1179.01 185.37 1179.21 183.049 1178.94 181.612C1178.68 180.09 1177.84 179.117 1176.45 178.692C1175.13 178.177 1173.03 177.969 1170.12 178.068L1170.6 175.472C1174.27 175.325 1178.19 175.161 1182.37 174.981C1186.54 174.716 1190.68 174.497 1194.77 174.322C1198.94 174.057 1202.77 173.814 1206.27 173.592C1209.76 173.371 1212.65 173.187 1214.95 173.041C1218.87 172.792 1223.26 172.513 1228.11 172.205C1232.96 171.812 1237.38 171.403 1241.37 170.978C1240.45 174.029 1239.68 176.644 1239.05 178.821C1238.5 180.909 1237.97 183.421 1237.47 186.36C1237.23 187.915 1236.98 189.384 1236.73 190.768C1236.56 192.147 1236.42 193.353 1236.32 194.386L1233.51 194.564Z" fill="#FF0000"/>
<path d="M333.073 165.856L333.521 164.576H356.113L355.601 165.856H333.073ZM355.985 149.472C356.412 147.893 356.582 146.741 356.497 146.016C356.454 145.248 356.092 144.736 355.409 144.48C354.726 144.181 353.66 144.011 352.209 143.968L352.529 142.688C353.809 142.731 355.473 142.773 357.521 142.816C359.612 142.859 361.702 142.88 363.793 142.88C366.225 142.88 368.508 142.859 370.641 142.816C372.817 142.773 374.566 142.731 375.889 142.688L375.569 143.968C374.118 144.011 372.988 144.181 372.177 144.48C371.366 144.736 370.726 145.248 370.257 146.016C369.83 146.741 369.404 147.893 368.977 149.472L360.529 181.216C360.145 182.752 359.974 183.904 360.017 184.672C360.06 185.44 360.422 185.952 361.105 186.208C361.788 186.464 362.854 186.635 364.305 186.72L364.049 188C362.769 187.915 361.041 187.872 358.865 187.872C356.732 187.829 354.449 187.808 352.017 187.808C349.926 187.808 347.836 187.829 345.745 187.872C343.697 187.872 342.012 187.915 340.689 188L340.945 186.72C342.396 186.635 343.526 186.464 344.337 186.208C345.148 185.952 345.788 185.44 346.257 184.672C346.726 183.904 347.153 182.752 347.537 181.216L355.985 149.472ZM333.393 181.216C333.009 182.752 332.838 183.904 332.881 184.672C332.924 185.44 333.286 185.952 333.969 186.208C334.652 186.464 335.718 186.635 337.169 186.72L336.913 188C335.59 187.915 333.905 187.872 331.857 187.872C329.809 187.829 327.718 187.808 325.585 187.808C323.153 187.808 320.87 187.829 318.737 187.872C316.646 187.872 314.94 187.915 313.617 188L313.937 186.72C315.345 186.635 316.433 186.464 317.201 186.208C318.012 185.952 318.652 185.44 319.121 184.672C319.59 183.904 320.017 182.752 320.401 181.216L328.849 149.472C329.276 147.893 329.446 146.741 329.361 146.016C329.276 145.248 328.892 144.736 328.209 144.48C327.569 144.181 326.524 144.011 325.073 143.968L325.393 142.688C326.63 142.731 328.316 142.773 330.449 142.816C332.625 142.859 334.929 142.88 337.361 142.88C339.494 142.88 341.542 142.859 343.505 142.816C345.51 142.773 347.26 142.731 348.753 142.688L348.433 143.968C346.982 144.011 345.852 144.181 345.041 144.48C344.23 144.736 343.59 145.248 343.121 146.016C342.694 146.741 342.268 147.893 341.841 149.472L333.393 181.216ZM402.378 142.944C400.714 142.944 399.093 143.541 397.514 144.736C395.935 145.888 394.463 147.509 393.098 149.6C391.733 151.648 390.538 154.016 389.514 156.704C388.49 159.349 387.679 162.187 387.082 165.216C386.527 168.245 386.25 171.296 386.25 174.368C386.25 178.549 386.783 181.835 387.85 184.224C388.917 186.571 390.261 187.744 391.882 187.744C393.546 187.744 395.167 187.168 396.746 186.016C398.325 184.821 399.797 183.2 401.162 181.152C402.527 179.061 403.722 176.693 404.746 174.048C405.77 171.36 406.559 168.501 407.114 165.472C407.711 162.443 408.01 159.392 408.01 156.32C408.01 152.139 407.477 148.875 406.41 146.528C405.343 144.139 403.999 142.944 402.378 142.944ZM372.426 173.536C372.426 170.72 372.895 167.819 373.834 164.832C374.773 161.845 376.117 158.987 377.866 156.256C379.615 153.525 381.727 151.072 384.202 148.896C386.719 146.72 389.557 144.992 392.714 143.712C395.871 142.432 399.285 141.792 402.954 141.792C408.842 141.792 413.471 143.136 416.842 145.824C420.213 148.469 421.898 152.267 421.898 157.216C421.898 160.032 421.429 162.933 420.49 165.92C419.551 168.864 418.186 171.701 416.394 174.432C414.645 177.163 412.511 179.616 409.994 181.792C407.477 183.968 404.639 185.696 401.482 186.976C398.367 188.256 394.975 188.896 391.306 188.896C385.418 188.896 380.789 187.573 377.418 184.928C374.09 182.24 372.426 178.443 372.426 173.536ZM460.976 155.104L440.688 188.32H435.888L430.832 148.064C430.661 146.528 430.213 145.483 429.488 144.928C428.763 144.331 428.101 144.011 427.504 143.968L427.824 142.688C429.061 142.731 430.661 142.773 432.624 142.816C434.629 142.859 436.613 142.88 438.576 142.88C440.496 142.88 442.245 142.859 443.824 142.816C445.403 142.773 446.725 142.731 447.792 142.688L447.472 143.968C446.192 144.053 445.296 144.416 444.784 145.056C444.315 145.696 444.144 147.125 444.272 149.344L447.216 176.544L444.4 179.616L460.656 153.376L460.976 155.104ZM486.064 151.072C487.088 149.28 487.536 147.893 487.408 146.912C487.28 145.931 486.704 145.227 485.68 144.8C484.699 144.373 483.376 144.096 481.712 143.968L482.032 142.688C482.459 142.731 483.227 142.773 484.336 142.816C485.488 142.816 486.704 142.837 487.984 142.88C489.307 142.88 490.352 142.88 491.12 142.88C492.016 142.88 492.869 142.859 493.68 142.816C494.491 142.773 495.237 142.731 495.92 142.688L495.6 143.968C494.576 144.267 493.616 144.651 492.72 145.12C491.867 145.589 490.992 146.315 490.096 147.296C489.2 148.277 488.219 149.707 487.152 151.584L466.224 188.32H461.424L456.368 148.064C456.197 146.528 455.813 145.483 455.216 144.928C454.661 144.331 454.149 144.011 453.68 143.968L454 142.688C455.152 142.731 456.667 142.773 458.544 142.816C460.421 142.859 462.277 142.88 464.112 142.88C466.416 142.88 468.528 142.859 470.448 142.816C472.411 142.773 474.011 142.731 475.248 142.688L474.928 143.968C472.88 144.053 471.451 144.416 470.64 145.056C469.872 145.696 469.595 147.125 469.808 149.344L472.752 176.544L469.808 179.424L486.064 151.072ZM552.56 131.296C554.48 131.296 555.995 131.872 557.104 133.024C558.256 134.133 558.832 135.392 558.832 136.8C558.832 138.379 558.363 139.765 557.424 140.96C556.528 142.112 555.205 143.051 553.456 143.776C552.048 144.331 550.405 144.757 548.528 145.056C546.693 145.355 544.645 145.504 542.384 145.504C540.976 145.504 539.355 145.44 537.52 145.312C535.685 145.184 533.744 145.035 531.696 144.864C529.691 144.693 527.707 144.544 525.744 144.416C523.824 144.288 522.096 144.224 520.56 144.224C519.024 144.224 517.616 144.309 516.336 144.48C515.099 144.651 514.075 144.928 513.264 145.312C514.885 145.525 516.229 146.187 517.296 147.296C518.405 148.363 518.96 149.771 518.96 151.52C518.96 153.355 518.363 154.891 517.168 156.128C515.973 157.323 514.501 157.92 512.752 157.92C510.917 157.92 509.488 157.301 508.464 156.064C507.483 154.784 506.992 153.333 506.992 151.712C506.992 150.56 507.312 149.323 507.952 148C508.592 146.635 509.829 145.504 511.664 144.608C512.688 144.096 513.733 143.733 514.8 143.52C515.909 143.307 516.933 143.179 517.872 143.136C518.853 143.093 519.643 143.072 520.24 143.072C522.928 143.072 525.616 143.179 528.304 143.392C530.992 143.563 533.595 143.755 536.112 143.968C538.629 144.139 540.933 144.224 543.024 144.224C544.517 144.224 545.755 144.16 546.736 144.032C547.76 143.904 548.677 143.755 549.488 143.584L549.296 144.16C548.528 143.563 547.824 142.709 547.184 141.6C546.544 140.491 546.224 139.189 546.224 137.696C546.224 135.733 546.821 134.176 548.016 133.024C549.211 131.872 550.725 131.296 552.56 131.296ZM527.984 144.032C527.984 144.032 528.411 144.075 529.264 144.16C530.117 144.203 531.163 144.267 532.4 144.352C533.68 144.437 534.939 144.523 536.176 144.608C537.456 144.693 538.523 144.779 539.376 144.864C540.229 144.907 540.656 144.928 540.656 144.928L531.248 180.576C530.864 182.069 530.736 183.243 530.864 184.096C530.992 184.949 531.461 185.568 532.272 185.952C533.125 186.336 534.384 186.592 536.048 186.72L535.792 188C534.299 187.915 532.336 187.872 529.904 187.872C527.515 187.829 525.019 187.808 522.416 187.808C519.941 187.808 517.573 187.829 515.312 187.872C513.051 187.872 511.237 187.915 509.872 188L510.128 186.72C511.92 186.635 513.328 186.421 514.352 186.08C515.419 185.696 516.229 185.077 516.784 184.224C517.381 183.328 517.872 182.112 518.256 180.576L527.984 144.032ZM578.628 142.944C576.964 142.944 575.343 143.541 573.764 144.736C572.185 145.888 570.713 147.509 569.348 149.6C567.983 151.648 566.788 154.016 565.764 156.704C564.74 159.349 563.929 162.187 563.332 165.216C562.777 168.245 562.5 171.296 562.5 174.368C562.5 178.549 563.033 181.835 564.1 184.224C565.167 186.571 566.511 187.744 568.132 187.744C569.796 187.744 571.417 187.168 572.996 186.016C574.575 184.821 576.047 183.2 577.412 181.152C578.777 179.061 579.972 176.693 580.996 174.048C582.02 171.36 582.809 168.501 583.364 165.472C583.961 162.443 584.26 159.392 584.26 156.32C584.26 152.139 583.727 148.875 582.66 146.528C581.593 144.139 580.249 142.944 578.628 142.944ZM548.676 173.536C548.676 170.72 549.145 167.819 550.084 164.832C551.023 161.845 552.367 158.987 554.116 156.256C555.865 153.525 557.977 151.072 560.452 148.896C562.969 146.72 565.807 144.992 568.964 143.712C572.121 142.432 575.535 141.792 579.204 141.792C585.092 141.792 589.721 143.136 593.092 145.824C596.463 148.469 598.148 152.267 598.148 157.216C598.148 160.032 597.679 162.933 596.74 165.92C595.801 168.864 594.436 171.701 592.644 174.432C590.895 177.163 588.761 179.616 586.244 181.792C583.727 183.968 580.889 185.696 577.732 186.976C574.617 188.256 571.225 188.896 567.556 188.896C561.668 188.896 557.039 187.573 553.668 184.928C550.34 182.24 548.676 178.443 548.676 173.536ZM656.352 155.232C657.12 152.373 657.568 150.197 657.696 148.704C657.866 147.168 657.568 146.059 656.8 145.376C656.074 144.693 654.73 144.224 652.768 143.968L653.152 142.688C654.005 142.731 655.093 142.773 656.416 142.816C657.781 142.859 659.061 142.88 660.256 142.88C661.237 142.88 662.197 142.859 663.136 142.816C664.117 142.773 664.949 142.731 665.632 142.688L665.248 143.968C663.882 144.224 662.794 144.672 661.984 145.312C661.173 145.952 660.469 146.955 659.872 148.32C659.317 149.643 658.72 151.52 658.08 153.952L654.112 169.376C652.576 175.264 650.485 179.787 647.84 182.944C646.304 184.736 644.384 186.187 642.08 187.296C639.818 188.363 637.365 188.896 634.72 188.896C630.837 188.896 627.744 188.32 625.44 187.168C623.136 186.016 621.493 184.565 620.512 182.816C619.658 181.195 619.21 179.339 619.168 177.248C619.168 175.115 619.573 172.555 620.384 169.568L625.696 149.472C626.122 147.893 626.293 146.741 626.208 146.016C626.122 145.248 625.738 144.736 625.056 144.48C624.416 144.181 623.37 144.011 621.92 143.968L622.304 142.688C623.541 142.731 625.248 142.773 627.424 142.816C629.642 142.859 631.968 142.88 634.4 142.88C636.533 142.88 638.56 142.859 640.48 142.816C642.4 142.773 644.106 142.731 645.6 142.688L645.216 143.968C643.765 144.011 642.634 144.181 641.824 144.48C641.013 144.736 640.373 145.248 639.904 146.016C639.477 146.741 639.05 147.893 638.624 149.472L632.992 170.656C632.224 173.6 631.733 176.096 631.52 178.144C631.306 180.149 631.349 181.792 631.648 183.072C631.989 184.309 632.522 185.227 633.248 185.824C633.973 186.379 634.869 186.656 635.936 186.656C639.136 186.656 641.802 185.952 643.936 184.544C646.069 183.093 647.818 181.109 649.184 178.592C650.549 176.075 651.637 173.237 652.448 170.08L656.352 155.232ZM701.161 142.24C700.734 143.349 700.158 144.971 699.433 147.104C698.708 149.195 698.025 151.925 697.385 155.296H696.105C696.233 154.699 696.318 154.08 696.361 153.44C696.446 152.8 696.489 152.245 696.489 151.776C696.489 150.027 696.105 148.555 695.337 147.36C694.612 146.123 693.566 145.184 692.201 144.544C690.836 143.861 689.193 143.52 687.273 143.52C685.438 143.52 683.817 143.989 682.409 144.928C681.044 145.867 680.361 147.467 680.361 149.728C680.361 151.179 680.702 152.608 681.385 154.016C682.068 155.381 682.942 156.747 684.009 158.112C685.118 159.477 686.27 160.864 687.465 162.272C688.702 163.637 689.854 165.045 690.921 166.496C692.03 167.904 692.926 169.397 693.609 170.976C694.292 172.555 694.633 174.219 694.633 175.968C694.633 178.315 694.014 180.32 692.777 181.984C691.54 183.605 689.961 184.928 688.041 185.952C686.121 186.976 684.094 187.723 681.961 188.192C679.828 188.661 677.844 188.896 676.009 188.896C673.79 188.896 671.977 188.789 670.569 188.576C669.161 188.363 667.945 188.043 666.921 187.616C665.897 187.147 664.788 186.592 663.593 185.952C663.166 185.696 662.761 185.483 662.377 185.312C661.993 185.099 661.673 184.992 661.417 184.992C660.862 184.992 660.414 185.227 660.073 185.696C659.732 186.165 659.262 187.083 658.665 188.448H657.385C657.769 187.509 658.174 186.421 658.601 185.184C659.028 183.947 659.497 182.368 660.009 180.448C660.521 178.485 661.097 176.032 661.737 173.088H663.017C662.804 173.728 662.633 174.539 662.505 175.52C662.42 176.459 662.398 177.312 662.441 178.08C662.569 181.195 663.55 183.541 665.385 185.12C667.22 186.656 669.716 187.424 672.873 187.424C675.86 187.424 677.844 186.869 678.825 185.76C679.849 184.608 680.361 183.2 680.361 181.536C680.361 179.744 680.041 178.08 679.401 176.544C678.804 174.965 678.014 173.493 677.033 172.128C676.052 170.72 675.006 169.355 673.897 168.032C672.83 166.667 671.806 165.301 670.825 163.936C669.844 162.571 669.033 161.141 668.393 159.648C667.796 158.112 667.497 156.491 667.497 154.784C667.497 152.523 668.009 150.581 669.033 148.96C670.1 147.339 671.486 145.995 673.193 144.928C674.9 143.861 676.734 143.072 678.697 142.56C680.66 142.048 682.537 141.792 684.329 141.792C687.358 141.792 689.769 142.176 691.561 142.944C693.353 143.669 694.718 144.267 695.657 144.736C695.998 144.907 696.382 145.099 696.809 145.312C697.236 145.525 697.556 145.632 697.769 145.632C698.366 145.632 699.07 144.501 699.881 142.24H701.161ZM714.113 165.856L714.369 164.576H728.065L727.809 165.856H714.113ZM720.961 164.576C721.985 164.576 722.966 164.384 723.905 164C724.886 163.616 725.761 163.083 726.529 162.4C727.34 161.717 728.044 160.949 728.641 160.096C729.281 159.243 729.772 158.347 730.113 157.408H731.521C730.966 159.072 730.54 160.459 730.241 161.568C729.985 162.635 729.686 163.851 729.345 165.216C729.132 166.069 728.94 166.837 728.769 167.52C728.598 168.16 728.428 168.885 728.257 169.696C728.129 170.507 727.937 171.616 727.681 173.024H726.273C726.273 172.299 726.166 171.531 725.953 170.72C725.782 169.867 725.462 169.077 724.993 168.352C724.524 167.627 723.884 167.029 723.073 166.56C722.262 166.091 721.26 165.856 720.065 165.856L720.961 164.576ZM738.177 154.208C738.22 151.691 737.942 149.707 737.345 148.256C736.748 146.763 735.873 145.717 734.721 145.12C733.569 144.48 732.14 144.16 730.433 144.16H730.241C728.833 144.16 727.724 144.288 726.913 144.544C726.145 144.757 725.548 145.248 725.121 146.016C724.694 146.741 724.268 147.893 723.841 149.472L715.393 181.216C715.009 182.752 714.838 183.904 714.881 184.672C714.924 185.44 715.265 185.952 715.905 186.208C716.588 186.421 717.633 186.528 719.041 186.528H719.873C721.921 186.528 723.734 186.165 725.313 185.44C726.892 184.715 728.364 183.541 729.729 181.92C731.137 180.256 732.524 178.016 733.889 175.2H735.297C735.084 175.755 734.849 176.437 734.593 177.248C734.38 178.059 734.166 178.912 733.953 179.808C733.74 180.619 733.462 181.792 733.121 183.328C732.78 184.821 732.502 186.379 732.289 188C730.113 187.915 727.681 187.872 724.993 187.872C722.348 187.829 719.958 187.808 717.825 187.808C716.673 187.808 715.222 187.808 713.473 187.808C711.724 187.808 709.804 187.829 707.713 187.872C705.665 187.872 703.596 187.893 701.505 187.936C699.414 187.936 697.43 187.957 695.553 188L695.809 186.72C697.26 186.635 698.39 186.464 699.201 186.208C700.012 185.952 700.652 185.44 701.121 184.672C701.59 183.904 702.017 182.752 702.401 181.216L710.849 149.472C711.276 147.893 711.446 146.741 711.361 146.016C711.276 145.248 710.892 144.736 710.209 144.48C709.569 144.181 708.524 144.011 707.073 143.968L707.393 142.688C709.228 142.731 711.19 142.773 713.281 142.816C715.372 142.816 717.441 142.837 719.489 142.88C721.58 142.88 723.5 142.88 725.249 142.88C726.998 142.88 728.449 142.88 729.601 142.88C731.564 142.88 733.761 142.88 736.193 142.88C738.625 142.837 740.844 142.773 742.849 142.688C742.294 144.181 741.825 145.461 741.441 146.528C741.1 147.552 740.758 148.789 740.417 150.24C740.246 151.008 740.076 151.733 739.905 152.416C739.777 153.099 739.67 153.696 739.585 154.208H738.177Z" fill="#FF0000"/>
</svg>
