<svg width="2096" height="793" viewBox="0 0 2096 793" fill="none" xmlns="http://www.w3.org/2000/svg">
<path d="M1009.26 80.3907C1024.9 47.9454 1071.1 47.9455 1086.74 80.3907L1140.21 191.364C1149.86 211.388 1173.18 220.758 1194 212.977L1401.68 135.366C1438.41 121.64 1465.54 170.516 1434.47 194.431V194.431C1407.35 215.303 1424.36 258.654 1458.44 255.513L2001.29 205.482L1687.95 275.64C1640.43 286.282 1644.42 355.287 1692.86 360.367L2085.33 401.524L1548.11 404.665C1516.4 404.85 1508.1 448.584 1537.53 460.386V460.386C1570.26 473.511 1555.44 522.666 1520.9 515.505L1334.08 476.762C1300.91 469.883 1273.18 502.28 1285.1 533.991L1294.31 558.508C1309.19 598.097 1263.98 633.124 1229.36 608.83L1072.7 498.89C1057.88 488.486 1038.12 488.486 1023.3 498.89L866.641 608.83C832.024 633.124 786.812 598.096 801.688 558.508L810.9 533.991C822.816 502.28 795.087 469.883 761.916 476.762L575.096 515.505C540.565 522.666 525.739 473.511 558.472 460.386V460.386C587.905 448.584 579.596 404.85 547.885 404.665L10.6671 401.524L403.136 360.367C451.576 355.287 455.575 286.282 408.047 275.64L94.7057 205.482L637.563 255.513C671.639 258.654 688.649 215.303 661.531 194.431V194.431C630.458 170.516 657.592 121.64 694.322 135.366L901.999 212.977C922.82 220.758 946.14 211.388 955.789 191.364L1009.26 80.3907Z" fill="#FFD600"/>
<path d="M731.876 391.912L731.655 394.492L676.598 397.988L676.819 395.409L731.876 391.912ZM694.544 371.581C692.074 371.738 689.671 371.592 687.334 371.141C685.082 370.686 682.909 370.14 680.817 369.503C678.724 368.867 676.722 368.31 674.811 367.832C672.899 367.355 671.092 367.171 669.389 367.279C667.43 367.403 665.759 368.022 664.377 369.136C662.994 370.25 662.375 371.957 662.521 374.256C662.7 377.067 664.166 379.282 666.919 380.903C669.758 382.518 674.385 383.336 680.799 383.356C680.799 383.356 680.78 383.742 680.744 384.514C680.707 385.286 680.689 385.672 680.689 385.672C675.132 385.683 670.216 385.012 665.94 383.658C661.664 382.305 658.285 380.254 655.802 377.505C653.313 374.67 651.939 371.209 651.679 367.121C651.344 361.841 652.732 357.435 655.842 353.903C658.952 350.37 663.957 348.385 670.855 347.947C674.517 347.715 677.737 347.938 680.517 348.616C683.381 349.289 686.001 350.149 688.376 351.195C690.836 352.236 693.299 353.32 695.765 354.446C698.31 355.481 701.015 356.335 703.879 357.009C706.744 357.682 710.05 357.899 713.797 357.661C716.607 357.483 719.992 356.926 723.951 355.99C727.911 355.055 731.414 353.678 734.463 351.86C736.078 349.021 737.691 346.824 739.303 345.268C740.914 343.712 742.393 343.447 743.741 344.473C744.817 345.26 744.848 346.412 743.832 347.93C742.817 349.448 740.107 351.202 735.701 353.192C730.645 358.387 726.835 365.042 724.272 373.157C721.709 381.271 719.464 390.349 717.536 400.39L711.579 431.807C710.499 437.69 708.413 443.209 705.32 448.365C702.312 453.515 698.005 457.722 692.398 460.985C686.796 464.334 679.524 466.292 670.582 466.86C666.75 467.103 663.191 466.944 659.906 466.383C656.712 465.902 654.082 464.872 652.015 463.293C650.038 461.794 648.961 459.639 648.783 456.829C648.577 453.593 649.514 450.84 651.593 448.57C653.762 446.38 657.019 445.147 661.362 444.872C664.939 444.644 668.011 445.219 670.578 446.595C673.23 447.966 674.656 450.227 674.856 453.378C675.008 455.762 674.416 457.894 673.082 459.775C671.833 461.65 669.884 463.27 667.234 464.635C667.921 464.677 668.477 464.685 668.903 464.657C669.334 464.716 669.763 464.731 670.189 464.704C672.147 464.58 673.778 464.006 675.081 462.983C676.47 461.954 677.655 460.425 678.638 458.396C679.621 456.367 680.523 453.744 681.345 450.529C682.257 447.392 683.174 443.658 684.096 439.324L690.947 407.85C692.41 401.259 694.352 395.492 696.775 390.55C699.192 385.523 702.072 381.065 705.417 377.176C708.841 373.196 712.667 369.49 716.895 366.058C721.209 362.62 725.86 359.118 730.849 355.552C726.832 356.919 723.384 358.506 720.506 360.313C717.623 362.036 714.907 363.704 712.359 365.32C709.896 366.93 707.249 368.338 704.419 369.544C701.668 370.659 698.376 371.338 694.544 371.581ZM769.988 422.839C769.416 425.954 769.222 428.275 769.404 429.802C769.587 431.33 770.376 432.306 771.771 432.73C773.166 433.155 775.316 433.36 778.223 433.347L777.874 435.934C775.138 435.937 771.598 436.076 767.255 436.352C762.906 436.542 758.475 436.781 753.962 437.068C749.363 437.36 745.065 437.675 741.068 438.015C737.065 438.269 733.834 438.559 731.376 438.887L731.852 436.291C734.652 435.942 736.802 435.464 738.302 434.856C739.888 434.242 741.1 433.139 741.94 431.546C742.779 429.954 743.485 427.601 744.056 424.486L756.895 360.055C757.547 356.85 757.741 354.529 757.479 353.092C757.211 351.57 756.38 350.597 754.985 350.172C753.67 349.657 751.561 349.449 748.661 349.548L749.137 346.952C751.527 346.886 754.726 346.768 758.734 346.599C762.827 346.425 767.173 346.192 771.772 345.9C776.285 345.613 780.626 345.295 784.793 344.945C788.961 344.594 792.618 344.277 795.763 343.991L795.287 346.587C792.397 346.856 790.161 347.34 788.581 348.039C786.996 348.652 785.783 349.755 784.944 351.348C784.184 352.85 783.478 355.203 782.827 358.408L769.988 422.839ZM868.376 338.483C867.665 340.751 866.721 344.06 865.543 348.41C864.361 352.675 863.344 358.212 862.494 365.021L859.939 365.183C860.119 363.975 860.211 362.729 860.215 361.446C860.304 360.158 860.319 359.045 860.259 358.108C860.038 354.617 859.085 351.727 857.4 349.44C855.796 347.062 853.59 345.321 850.784 344.217C847.972 343.027 844.65 342.554 840.818 342.798C837.156 343.03 833.979 344.173 831.288 346.225C828.682 348.271 827.522 351.551 827.809 356.065C827.993 358.96 828.855 361.77 830.396 364.494C831.932 367.132 833.851 369.747 836.153 372.337C838.54 374.921 841.015 377.543 843.578 380.202C846.221 382.77 848.699 385.435 851.012 388.195C853.404 390.865 855.382 393.732 856.945 396.796C858.507 399.861 859.399 403.139 859.621 406.63C859.919 411.314 858.938 415.395 856.679 418.874C854.415 422.266 851.432 425.107 847.729 427.394C844.027 429.681 840.076 431.428 835.877 432.635C831.679 433.843 827.749 434.562 824.087 434.795C819.658 435.076 816.025 435.093 813.188 434.846C810.35 434.598 807.883 434.114 805.785 433.392C803.681 432.585 801.397 431.619 798.931 430.493C798.047 430.036 797.211 429.661 796.423 429.369C795.63 428.992 794.977 428.82 794.466 428.852C793.359 428.922 792.495 429.448 791.873 430.428C791.251 431.408 790.431 433.298 789.412 436.099L786.857 436.261C787.504 434.339 788.175 432.116 788.87 429.592C789.565 427.069 790.302 423.858 791.08 419.961C791.853 415.979 792.692 411.009 793.596 405.051L796.151 404.889C795.807 406.194 795.569 407.833 795.437 409.808C795.386 411.693 795.452 413.399 795.634 414.926C796.284 421.127 798.541 425.686 802.403 428.605C806.259 431.438 811.339 432.655 817.641 432.254C823.602 431.876 827.492 430.517 829.31 428.179C831.208 425.75 832.051 422.874 831.84 419.553C831.613 415.976 830.763 412.695 829.291 409.711C827.899 406.635 826.137 403.797 824.005 401.197C821.868 398.511 819.608 395.918 817.227 393.419C814.925 390.829 812.708 388.233 810.576 385.632C808.444 383.032 806.645 380.281 805.178 377.382C803.791 374.392 802.99 371.193 802.773 367.787C802.487 363.273 803.262 359.334 805.101 355.968C807.024 352.596 809.622 349.738 812.893 347.393C816.164 345.047 819.726 343.239 823.579 341.969C827.431 340.698 831.146 339.949 834.723 339.722C840.769 339.338 845.63 339.799 849.304 341.105C852.973 342.325 855.773 343.344 857.706 344.162C858.409 344.46 859.2 344.794 860.079 345.166C860.958 345.538 861.61 345.71 862.036 345.683C863.228 345.607 864.49 343.261 865.821 338.645L868.376 338.483ZM948.121 359.455C949.292 353.652 949.91 349.252 949.977 346.255C950.123 343.168 949.386 340.991 947.766 339.726C946.232 338.455 943.49 337.689 939.54 337.427L940.144 334.823C941.853 334.8 944.03 334.747 946.675 334.665C949.406 334.577 951.964 334.457 954.348 334.306C956.307 334.182 958.22 334.017 960.088 333.813C962.042 333.604 963.697 333.413 965.054 333.241L964.45 335.845C961.757 336.529 959.642 337.561 958.105 338.941C956.568 340.321 955.29 342.412 954.271 345.213C953.332 347.923 952.377 351.746 951.408 356.681L945.443 387.97C943.124 399.917 939.524 409.209 934.644 415.847C931.805 419.618 928.157 422.757 923.699 425.263C919.32 427.679 914.491 429.054 909.211 429.39C901.461 429.882 895.214 429.124 890.469 427.117C885.725 425.109 882.262 422.422 880.082 419.055C878.173 415.927 877.043 412.279 876.693 408.112C876.423 403.853 876.907 398.692 878.147 392.628L886.203 351.844C886.854 348.639 887.049 346.318 886.786 344.881C886.519 343.359 885.687 342.385 884.292 341.961C882.977 341.446 880.869 341.238 877.968 341.337L878.572 338.733C881.047 338.661 884.459 338.53 888.808 338.34C893.242 338.143 897.886 337.891 902.74 337.583C906.998 337.313 911.041 337.013 914.867 336.685C918.694 336.356 922.095 336.055 925.071 335.78L924.466 338.384C921.576 338.653 919.341 339.137 917.761 339.836C916.175 340.449 914.963 341.552 914.123 343.145C913.364 344.647 912.658 347 912.007 350.205L903.45 393.202C902.29 399.175 901.627 404.22 901.461 408.334C901.29 412.364 901.583 415.637 902.341 418.154C903.179 420.581 904.36 422.344 905.884 423.444C907.402 424.46 909.225 424.9 911.354 424.764C917.741 424.359 922.975 422.616 927.054 419.535C931.129 416.369 934.369 412.187 936.775 406.99C939.181 401.792 940.993 395.991 942.211 389.586L948.121 359.455ZM995.129 335.949C995.508 341.91 994.148 347.426 991.05 352.497C987.951 357.567 983.503 361.569 977.704 364.503L976.919 362.244C980.319 360.574 983.326 358.117 985.942 354.873C988.558 351.629 989.863 347.955 989.859 343.851C988.748 345.204 987.448 346.27 985.958 347.048C984.469 347.827 982.872 348.27 981.169 348.379C978.018 348.579 975.502 348.012 973.622 346.677C971.827 345.338 970.843 343.305 970.67 340.58C970.502 337.94 970.949 335.56 972.012 333.441C973.159 331.316 974.763 329.632 976.821 328.39C978.96 327.057 981.392 326.304 984.117 326.131C987.353 325.925 989.917 326.575 991.808 328.079C993.784 329.579 994.891 332.202 995.129 335.949ZM1072.71 325.507C1072 327.775 1071.06 331.084 1069.88 335.434C1068.7 339.699 1067.68 345.236 1066.83 352.045L1064.28 352.207C1064.46 350.999 1064.55 349.753 1064.55 348.47C1064.64 347.182 1064.66 346.07 1064.6 345.133C1064.38 341.641 1063.42 338.752 1061.74 336.465C1060.13 334.087 1057.93 332.346 1055.12 331.241C1052.31 330.052 1048.99 329.579 1045.16 329.822C1041.49 330.055 1038.32 331.197 1035.63 333.249C1033.02 335.296 1031.86 338.576 1032.15 343.089C1032.33 345.985 1033.19 348.794 1034.73 351.518C1036.27 354.157 1038.19 356.771 1040.49 359.361C1042.88 361.946 1045.35 364.567 1047.92 367.226C1050.56 369.795 1053.04 372.459 1055.35 375.219C1057.74 377.889 1059.72 380.756 1061.28 383.821C1062.85 386.885 1063.74 390.163 1063.96 393.655C1064.26 398.339 1063.28 402.42 1061.02 405.898C1058.75 409.291 1055.77 412.131 1052.07 414.418C1048.36 416.705 1044.41 418.453 1040.22 419.66C1036.02 420.867 1032.09 421.587 1028.42 421.819C1024 422.101 1020.36 422.118 1017.53 421.87C1014.69 421.623 1012.22 421.138 1010.12 420.416C1008.02 419.609 1005.74 418.643 1003.27 417.517C1002.39 417.06 1001.55 416.686 1000.76 416.394C999.968 416.016 999.316 415.844 998.805 415.877C997.698 415.947 996.833 416.472 996.211 417.452C995.59 418.432 994.769 420.323 993.75 423.123L991.195 423.286C991.843 421.363 992.514 419.14 993.208 416.617C993.903 414.093 994.64 410.882 995.419 406.985C996.192 403.003 997.03 398.033 997.935 392.076L1000.49 391.914C1000.14 393.218 999.907 394.858 999.776 396.833C999.725 398.717 999.79 400.423 999.973 401.951C1000.62 408.151 1002.88 412.711 1006.74 415.629C1010.6 418.462 1015.68 419.679 1021.98 419.279C1027.94 418.9 1031.83 417.542 1033.65 415.203C1035.55 412.774 1036.39 409.899 1036.18 406.577C1035.95 403.001 1035.1 399.72 1033.63 396.735C1032.24 393.66 1030.48 390.822 1028.34 388.221C1026.21 385.535 1023.95 382.942 1021.57 380.443C1019.26 377.853 1017.05 375.258 1014.91 372.657C1012.78 370.056 1010.98 367.306 1009.52 364.406C1008.13 361.416 1007.33 358.218 1007.11 354.811C1006.83 350.298 1007.6 346.358 1009.44 342.992C1011.36 339.621 1013.96 336.762 1017.23 334.417C1020.5 332.072 1024.06 330.264 1027.92 328.993C1031.77 327.722 1035.48 326.973 1039.06 326.746C1045.11 326.362 1049.97 326.823 1053.64 328.129C1057.31 329.35 1060.11 330.369 1062.04 331.187C1062.75 331.484 1063.54 331.819 1064.42 332.19C1065.3 332.562 1065.95 332.734 1066.37 332.707C1067.57 332.632 1068.83 330.286 1070.16 325.669L1072.71 325.507ZM1136.28 368.797L1137.02 366.186L1182.11 363.322L1181.25 365.942L1136.28 368.797ZM1179.94 333.191C1180.59 329.986 1180.79 327.665 1180.52 326.228C1180.34 324.701 1179.55 323.725 1178.16 323.3C1176.76 322.791 1174.61 322.585 1171.71 322.684L1172.18 320.089C1174.74 320.012 1178.07 319.886 1182.16 319.711C1186.34 319.532 1190.52 319.309 1194.69 319.044C1199.54 318.736 1204.1 318.404 1208.35 318.048C1212.69 317.687 1216.17 317.381 1218.81 317.128L1218.33 319.723C1215.44 319.992 1213.21 320.476 1211.63 321.175C1210.04 321.789 1208.83 322.892 1207.99 324.484C1207.23 325.986 1206.52 328.34 1205.87 331.545L1193.03 395.976C1192.46 399.09 1192.27 401.411 1192.45 402.939C1192.63 404.466 1193.42 405.442 1194.82 405.867C1196.21 406.291 1198.36 406.497 1201.27 406.483L1200.92 409.07C1198.35 409.062 1194.9 409.196 1190.56 409.472C1186.29 409.657 1181.73 409.904 1176.88 410.212C1172.71 410.477 1168.54 410.785 1164.37 411.135C1160.28 411.394 1156.92 411.693 1154.29 412.031L1154.64 409.444C1157.53 409.09 1159.76 408.606 1161.35 407.992C1162.93 407.378 1164.15 406.275 1164.98 404.683C1165.82 403.09 1166.53 400.737 1167.1 397.622L1179.94 333.191ZM1138.87 399.415C1138.3 402.53 1138.1 404.851 1138.29 406.378C1138.47 407.906 1139.26 408.882 1140.65 409.306C1142.05 409.73 1144.2 409.936 1147.1 409.922L1146.76 412.51C1144.11 412.507 1140.74 412.635 1136.65 412.895C1132.55 413.069 1128.38 413.292 1124.12 413.562C1119.27 413.87 1114.71 414.202 1110.46 414.558C1106.29 414.823 1102.89 415.124 1100.26 415.462L1100.73 412.867C1103.53 412.518 1105.68 412.04 1107.18 411.431C1108.77 410.818 1109.98 409.715 1110.82 408.122C1111.66 406.53 1112.37 404.176 1112.94 401.062L1125.78 336.631C1126.43 333.426 1126.62 331.105 1126.36 329.668C1126.09 328.146 1125.26 327.172 1123.87 326.748C1122.55 326.233 1120.44 326.025 1117.54 326.123L1118.02 323.528C1120.49 323.456 1123.86 323.328 1128.13 323.143C1132.48 322.952 1137.08 322.703 1141.93 322.394C1146.19 322.124 1150.27 321.822 1154.19 321.488C1158.18 321.148 1161.67 320.842 1164.65 320.567L1164.17 323.163C1161.28 323.432 1159.04 323.916 1157.46 324.614C1155.88 325.228 1154.67 326.331 1153.83 327.924C1153.07 329.425 1152.36 331.779 1151.71 334.984L1138.87 399.415ZM1271.71 314.281C1268.39 314.492 1265.23 315.89 1262.23 318.475C1259.23 320.974 1256.49 324.397 1254.03 328.743C1251.57 333.004 1249.48 337.882 1247.78 343.377C1246.07 348.786 1244.81 354.552 1244 360.675C1243.28 366.791 1243.11 372.916 1243.5 379.047C1244.03 387.393 1245.51 393.883 1247.95 398.517C1250.37 403.065 1253.2 405.237 1256.44 405.032C1259.76 404.821 1262.92 403.466 1265.93 400.966C1268.93 398.381 1271.66 394.959 1274.13 390.698C1276.59 386.352 1278.67 381.474 1280.38 376.064C1282.08 370.569 1283.3 364.763 1284.02 358.647C1284.83 352.524 1285.04 346.397 1284.65 340.266C1284.12 331.92 1282.64 325.473 1280.21 320.924C1277.78 316.29 1274.95 314.076 1271.71 314.281ZM1215.81 379.139C1215.45 373.518 1216.02 367.668 1217.51 361.587C1219.01 355.507 1221.33 349.631 1224.47 343.959C1227.62 338.287 1231.52 333.122 1236.19 328.465C1240.94 323.803 1246.38 319.994 1252.52 317.039C1258.66 314.084 1265.39 312.374 1272.72 311.909C1284.47 311.163 1293.88 313.259 1300.95 318.197C1308.01 323.049 1311.86 330.415 1312.48 340.294C1312.84 345.915 1312.27 351.765 1310.78 357.845C1309.27 363.841 1306.91 369.677 1303.68 375.354C1300.53 381.026 1296.59 386.194 1291.84 390.856C1287.09 395.518 1281.64 399.327 1275.5 402.282C1269.45 405.232 1262.76 406.939 1255.44 407.404C1243.68 408.15 1234.28 406.097 1227.21 401.244C1220.23 396.301 1216.43 388.932 1215.81 379.139ZM1406.17 305.615L1418.68 304.82C1423.2 304.534 1427.45 304.221 1431.45 303.881C1435.53 303.537 1439.15 303.222 1442.29 302.936L1441.82 305.532C1438.93 305.801 1436.69 306.285 1435.11 306.984C1433.52 307.597 1432.31 308.7 1431.47 310.293C1430.71 311.795 1430.01 314.148 1429.36 317.353L1416.52 381.784C1415.95 384.899 1415.75 387.22 1415.93 388.747C1416.2 390.269 1417.03 391.243 1418.43 391.667C1419.82 392.092 1421.93 392.3 1424.75 392.292L1424.4 394.879C1421.24 394.909 1417.66 395.051 1413.66 395.305C1409.65 395.474 1405.39 395.702 1400.87 395.988C1396.27 396.28 1391.89 396.601 1387.72 396.952C1383.64 397.211 1380.36 397.504 1377.9 397.832L1378.25 395.244C1381.22 394.885 1383.46 394.401 1384.96 393.792C1386.54 393.179 1387.76 392.076 1388.6 390.483C1389.44 388.891 1390.14 386.537 1390.71 383.423L1404.86 313.393L1357.12 399.793L1354.31 399.971L1338.21 326.091L1326.97 383.494C1326.53 385.917 1326.38 388.278 1326.53 390.577C1326.75 392.786 1327.72 394.563 1329.43 395.908C1331.14 397.253 1334.09 397.878 1338.27 397.783L1337.92 400.371C1336.89 400.35 1335.44 400.4 1333.57 400.519C1331.78 400.547 1329.9 400.623 1327.94 400.748C1325.98 400.787 1324.23 400.855 1322.7 400.953C1320.48 401.093 1318.27 401.276 1316.06 401.502C1313.85 401.643 1312.02 401.844 1310.58 402.106L1310.93 399.519C1313.9 399.16 1316.24 398.199 1317.93 396.638C1319.71 395.071 1321.09 393.145 1322.05 390.861C1323.02 388.491 1323.72 386.095 1324.16 383.673L1336.23 323.267C1336.88 320.062 1337.08 317.741 1336.82 316.304C1336.55 314.782 1335.72 313.808 1334.32 313.384C1333.01 312.869 1330.9 312.661 1328 312.759L1328.47 310.164C1330.86 310.098 1333.98 309.985 1337.81 309.827C1341.74 309.664 1345.83 309.447 1350.09 309.176C1352.22 309.041 1354.3 308.866 1356.34 308.651C1358.38 308.436 1360.2 308.235 1361.81 308.047L1372.92 365.827L1406.17 305.615ZM1465.95 347.863L1466.3 345.276L1493.64 343.54L1493.29 346.127L1465.95 347.863ZM1479.46 344.441C1481.5 344.311 1483.44 343.803 1485.26 342.918C1487.17 342.027 1488.85 340.852 1490.29 339.392C1491.83 337.926 1493.13 336.304 1494.22 334.525C1495.39 332.741 1496.25 330.89 1496.82 328.973L1499.63 328.795C1498.73 332.187 1498.05 335.008 1497.6 337.26C1497.22 339.422 1496.78 341.887 1496.27 344.655C1495.95 346.386 1495.67 347.943 1495.41 349.327C1495.16 350.626 1494.91 352.096 1494.67 353.735C1494.52 355.37 1494.27 357.608 1493.94 360.451L1491.13 360.629C1491.04 359.182 1490.73 357.662 1490.2 356.071C1489.75 354.39 1489.01 352.855 1487.98 351.466C1486.95 350.078 1485.6 348.967 1483.92 348.133C1482.25 347.299 1480.22 346.958 1477.83 347.109L1479.46 344.441ZM1512.51 321.564C1512.27 316.534 1511.47 312.609 1510.09 309.79C1508.71 306.885 1506.83 304.909 1504.46 303.863C1502.08 302.731 1499.18 302.274 1495.78 302.49L1495.39 302.514C1492.58 302.693 1490.38 303.089 1488.8 303.703C1487.29 304.226 1486.16 305.281 1485.41 306.868C1484.65 308.37 1483.94 310.723 1483.29 313.928L1470.45 378.359C1469.88 381.474 1469.69 383.795 1469.87 385.322C1470.05 386.85 1470.8 387.829 1472.11 388.258C1473.5 388.598 1475.6 388.678 1478.41 388.5L1480.07 388.394C1484.16 388.135 1487.73 387.181 1490.79 385.533C1493.85 383.885 1496.64 381.357 1499.16 377.948C1501.76 374.448 1504.24 369.801 1506.61 364.007L1509.42 363.829C1509.06 364.963 1508.68 366.355 1508.27 368.006C1507.95 369.651 1507.63 371.381 1507.32 373.197C1507 374.842 1506.59 377.219 1506.1 380.328C1505.61 383.352 1505.26 386.495 1505.04 389.759C1500.68 389.864 1495.82 390.087 1490.46 390.428C1485.17 390.678 1480.4 390.938 1476.14 391.209C1473.84 391.355 1470.95 391.539 1467.46 391.76C1463.96 391.982 1460.13 392.268 1455.97 392.618C1451.88 392.878 1447.75 393.182 1443.58 393.533C1439.41 393.798 1435.45 394.092 1431.71 394.415L1432.06 391.827C1434.95 391.473 1437.18 390.989 1438.77 390.376C1440.35 389.762 1441.56 388.659 1442.4 387.066C1443.24 385.474 1443.95 383.121 1444.52 380.006L1457.36 315.575C1458.01 312.37 1458.21 310.049 1457.94 308.612C1457.68 307.09 1456.84 306.117 1455.45 305.692C1454.13 305.177 1452.03 304.969 1449.12 305.068L1449.6 302.472C1453.27 302.325 1457.19 302.161 1461.37 301.981C1465.54 301.716 1469.68 301.497 1473.77 301.322C1477.94 301.057 1481.77 300.814 1485.27 300.592C1488.76 300.371 1491.65 300.187 1493.95 300.041C1497.87 299.792 1502.26 299.513 1507.11 299.205C1511.96 298.812 1516.38 298.403 1520.37 297.978C1519.45 301.029 1518.68 303.644 1518.05 305.821C1517.5 307.909 1516.97 310.421 1516.47 313.36C1516.23 314.915 1515.98 316.384 1515.73 317.768C1515.56 319.147 1515.42 320.353 1515.32 321.386L1512.51 321.564Z" fill="#FF0000"/>
<path d="M710.073 282.856L710.521 281.576H733.113L732.601 282.856H710.073ZM732.985 266.472C733.412 264.893 733.582 263.741 733.497 263.016C733.454 262.248 733.092 261.736 732.409 261.48C731.726 261.181 730.66 261.011 729.209 260.968L729.529 259.688C730.809 259.731 732.473 259.773 734.521 259.816C736.612 259.859 738.702 259.88 740.793 259.88C743.225 259.88 745.508 259.859 747.641 259.816C749.817 259.773 751.566 259.731 752.889 259.688L752.569 260.968C751.118 261.011 749.988 261.181 749.177 261.48C748.366 261.736 747.726 262.248 747.257 263.016C746.83 263.741 746.404 264.893 745.977 266.472L737.529 298.216C737.145 299.752 736.974 300.904 737.017 301.672C737.06 302.44 737.422 302.952 738.105 303.208C738.788 303.464 739.854 303.635 741.305 303.72L741.049 305C739.769 304.915 738.041 304.872 735.865 304.872C733.732 304.829 731.449 304.808 729.017 304.808C726.926 304.808 724.836 304.829 722.745 304.872C720.697 304.872 719.012 304.915 717.689 305L717.945 303.72C719.396 303.635 720.526 303.464 721.337 303.208C722.148 302.952 722.788 302.44 723.257 301.672C723.726 300.904 724.153 299.752 724.537 298.216L732.985 266.472ZM710.393 298.216C710.009 299.752 709.838 300.904 709.881 301.672C709.924 302.44 710.286 302.952 710.969 303.208C711.652 303.464 712.718 303.635 714.169 303.72L713.913 305C712.59 304.915 710.905 304.872 708.857 304.872C706.809 304.829 704.718 304.808 702.585 304.808C700.153 304.808 697.87 304.829 695.737 304.872C693.646 304.872 691.94 304.915 690.617 305L690.937 303.72C692.345 303.635 693.433 303.464 694.201 303.208C695.012 302.952 695.652 302.44 696.121 301.672C696.59 300.904 697.017 299.752 697.401 298.216L705.849 266.472C706.276 264.893 706.446 263.741 706.361 263.016C706.276 262.248 705.892 261.736 705.209 261.48C704.569 261.181 703.524 261.011 702.073 260.968L702.393 259.688C703.63 259.731 705.316 259.773 707.449 259.816C709.625 259.859 711.929 259.88 714.361 259.88C716.494 259.88 718.542 259.859 720.505 259.816C722.51 259.773 724.26 259.731 725.753 259.688L725.433 260.968C723.982 261.011 722.852 261.181 722.041 261.48C721.23 261.736 720.59 262.248 720.121 263.016C719.694 263.741 719.268 264.893 718.841 266.472L710.393 298.216ZM779.378 259.944C777.714 259.944 776.093 260.541 774.514 261.736C772.935 262.888 771.463 264.509 770.098 266.6C768.733 268.648 767.538 271.016 766.514 273.704C765.49 276.349 764.679 279.187 764.082 282.216C763.527 285.245 763.25 288.296 763.25 291.368C763.25 295.549 763.783 298.835 764.85 301.224C765.917 303.571 767.261 304.744 768.882 304.744C770.546 304.744 772.167 304.168 773.746 303.016C775.325 301.821 776.797 300.2 778.162 298.152C779.527 296.061 780.722 293.693 781.746 291.048C782.77 288.36 783.559 285.501 784.114 282.472C784.711 279.443 785.01 276.392 785.01 273.32C785.01 269.139 784.477 265.875 783.41 263.528C782.343 261.139 780.999 259.944 779.378 259.944ZM749.426 290.536C749.426 287.72 749.895 284.819 750.834 281.832C751.773 278.845 753.117 275.987 754.866 273.256C756.615 270.525 758.727 268.072 761.202 265.896C763.719 263.72 766.557 261.992 769.714 260.712C772.871 259.432 776.285 258.792 779.954 258.792C785.842 258.792 790.471 260.136 793.842 262.824C797.213 265.469 798.898 269.267 798.898 274.216C798.898 277.032 798.429 279.933 797.49 282.92C796.551 285.864 795.186 288.701 793.394 291.432C791.645 294.163 789.511 296.616 786.994 298.792C784.477 300.968 781.639 302.696 778.482 303.976C775.367 305.256 771.975 305.896 768.306 305.896C762.418 305.896 757.789 304.573 754.418 301.928C751.09 299.24 749.426 295.443 749.426 290.536ZM837.976 272.104L817.688 305.32H812.888L807.832 265.064C807.661 263.528 807.213 262.483 806.488 261.928C805.763 261.331 805.101 261.011 804.504 260.968L804.824 259.688C806.061 259.731 807.661 259.773 809.624 259.816C811.629 259.859 813.613 259.88 815.576 259.88C817.496 259.88 819.245 259.859 820.824 259.816C822.403 259.773 823.725 259.731 824.792 259.688L824.472 260.968C823.192 261.053 822.296 261.416 821.784 262.056C821.315 262.696 821.144 264.125 821.272 266.344L824.216 293.544L821.4 296.616L837.656 270.376L837.976 272.104ZM863.064 268.072C864.088 266.28 864.536 264.893 864.408 263.912C864.28 262.931 863.704 262.227 862.68 261.8C861.699 261.373 860.376 261.096 858.712 260.968L859.032 259.688C859.459 259.731 860.227 259.773 861.336 259.816C862.488 259.816 863.704 259.837 864.984 259.88C866.307 259.88 867.352 259.88 868.12 259.88C869.016 259.88 869.869 259.859 870.68 259.816C871.491 259.773 872.237 259.731 872.92 259.688L872.6 260.968C871.576 261.267 870.616 261.651 869.72 262.12C868.867 262.589 867.992 263.315 867.096 264.296C866.2 265.277 865.219 266.707 864.152 268.584L843.224 305.32H838.424L833.368 265.064C833.197 263.528 832.813 262.483 832.216 261.928C831.661 261.331 831.149 261.011 830.68 260.968L831 259.688C832.152 259.731 833.667 259.773 835.544 259.816C837.421 259.859 839.277 259.88 841.112 259.88C843.416 259.88 845.528 259.859 847.448 259.816C849.411 259.773 851.011 259.731 852.248 259.688L851.928 260.968C849.88 261.053 848.451 261.416 847.64 262.056C846.872 262.696 846.595 264.125 846.808 266.344L849.752 293.544L846.808 296.424L863.064 268.072ZM929.56 248.296C931.48 248.296 932.995 248.872 934.104 250.024C935.256 251.133 935.832 252.392 935.832 253.8C935.832 255.379 935.363 256.765 934.424 257.96C933.528 259.112 932.205 260.051 930.456 260.776C929.048 261.331 927.405 261.757 925.528 262.056C923.693 262.355 921.645 262.504 919.384 262.504C917.976 262.504 916.355 262.44 914.52 262.312C912.685 262.184 910.744 262.035 908.696 261.864C906.691 261.693 904.707 261.544 902.744 261.416C900.824 261.288 899.096 261.224 897.56 261.224C896.024 261.224 894.616 261.309 893.336 261.48C892.099 261.651 891.075 261.928 890.264 262.312C891.885 262.525 893.229 263.187 894.296 264.296C895.405 265.363 895.96 266.771 895.96 268.52C895.96 270.355 895.363 271.891 894.168 273.128C892.973 274.323 891.501 274.92 889.752 274.92C887.917 274.92 886.488 274.301 885.464 273.064C884.483 271.784 883.992 270.333 883.992 268.712C883.992 267.56 884.312 266.323 884.952 265C885.592 263.635 886.829 262.504 888.664 261.608C889.688 261.096 890.733 260.733 891.8 260.52C892.909 260.307 893.933 260.179 894.872 260.136C895.853 260.093 896.643 260.072 897.24 260.072C899.928 260.072 902.616 260.179 905.304 260.392C907.992 260.563 910.595 260.755 913.112 260.968C915.629 261.139 917.933 261.224 920.024 261.224C921.517 261.224 922.755 261.16 923.736 261.032C924.76 260.904 925.677 260.755 926.488 260.584L926.296 261.16C925.528 260.563 924.824 259.709 924.184 258.6C923.544 257.491 923.224 256.189 923.224 254.696C923.224 252.733 923.821 251.176 925.016 250.024C926.211 248.872 927.725 248.296 929.56 248.296ZM904.984 261.032C904.984 261.032 905.411 261.075 906.264 261.16C907.117 261.203 908.163 261.267 909.4 261.352C910.68 261.437 911.939 261.523 913.176 261.608C914.456 261.693 915.523 261.779 916.376 261.864C917.229 261.907 917.656 261.928 917.656 261.928L908.248 297.576C907.864 299.069 907.736 300.243 907.864 301.096C907.992 301.949 908.461 302.568 909.272 302.952C910.125 303.336 911.384 303.592 913.048 303.72L912.792 305C911.299 304.915 909.336 304.872 906.904 304.872C904.515 304.829 902.019 304.808 899.416 304.808C896.941 304.808 894.573 304.829 892.312 304.872C890.051 304.872 888.237 304.915 886.872 305L887.128 303.72C888.92 303.635 890.328 303.421 891.352 303.08C892.419 302.696 893.229 302.077 893.784 301.224C894.381 300.328 894.872 299.112 895.256 297.576L904.984 261.032ZM955.628 259.944C953.964 259.944 952.343 260.541 950.764 261.736C949.185 262.888 947.713 264.509 946.348 266.6C944.983 268.648 943.788 271.016 942.764 273.704C941.74 276.349 940.929 279.187 940.332 282.216C939.777 285.245 939.5 288.296 939.5 291.368C939.5 295.549 940.033 298.835 941.1 301.224C942.167 303.571 943.511 304.744 945.132 304.744C946.796 304.744 948.417 304.168 949.996 303.016C951.575 301.821 953.047 300.2 954.412 298.152C955.777 296.061 956.972 293.693 957.996 291.048C959.02 288.36 959.809 285.501 960.364 282.472C960.961 279.443 961.26 276.392 961.26 273.32C961.26 269.139 960.727 265.875 959.66 263.528C958.593 261.139 957.249 259.944 955.628 259.944ZM925.676 290.536C925.676 287.72 926.145 284.819 927.084 281.832C928.023 278.845 929.367 275.987 931.116 273.256C932.865 270.525 934.977 268.072 937.452 265.896C939.969 263.72 942.807 261.992 945.964 260.712C949.121 259.432 952.535 258.792 956.204 258.792C962.092 258.792 966.721 260.136 970.092 262.824C973.463 265.469 975.148 269.267 975.148 274.216C975.148 277.032 974.679 279.933 973.74 282.92C972.801 285.864 971.436 288.701 969.644 291.432C967.895 294.163 965.761 296.616 963.244 298.792C960.727 300.968 957.889 302.696 954.732 303.976C951.617 305.256 948.225 305.896 944.556 305.896C938.668 305.896 934.039 304.573 930.668 301.928C927.34 299.24 925.676 295.443 925.676 290.536ZM1033.35 272.232C1034.12 269.373 1034.57 267.197 1034.7 265.704C1034.87 264.168 1034.57 263.059 1033.8 262.376C1033.07 261.693 1031.73 261.224 1029.77 260.968L1030.15 259.688C1031 259.731 1032.09 259.773 1033.42 259.816C1034.78 259.859 1036.06 259.88 1037.26 259.88C1038.24 259.88 1039.2 259.859 1040.14 259.816C1041.12 259.773 1041.95 259.731 1042.63 259.688L1042.25 260.968C1040.88 261.224 1039.79 261.672 1038.98 262.312C1038.17 262.952 1037.47 263.955 1036.87 265.32C1036.32 266.643 1035.72 268.52 1035.08 270.952L1031.11 286.376C1029.58 292.264 1027.48 296.787 1024.84 299.944C1023.3 301.736 1021.38 303.187 1019.08 304.296C1016.82 305.363 1014.36 305.896 1011.72 305.896C1007.84 305.896 1004.74 305.32 1002.44 304.168C1000.14 303.016 998.493 301.565 997.512 299.816C996.658 298.195 996.21 296.339 996.168 294.248C996.168 292.115 996.573 289.555 997.384 286.568L1002.7 266.472C1003.12 264.893 1003.29 263.741 1003.21 263.016C1003.12 262.248 1002.74 261.736 1002.06 261.48C1001.42 261.181 1000.37 261.011 998.92 260.968L999.304 259.688C1000.54 259.731 1002.25 259.773 1004.42 259.816C1006.64 259.859 1008.97 259.88 1011.4 259.88C1013.53 259.88 1015.56 259.859 1017.48 259.816C1019.4 259.773 1021.11 259.731 1022.6 259.688L1022.22 260.968C1020.76 261.011 1019.63 261.181 1018.82 261.48C1018.01 261.736 1017.37 262.248 1016.9 263.016C1016.48 263.741 1016.05 264.893 1015.62 266.472L1009.99 287.656C1009.22 290.6 1008.73 293.096 1008.52 295.144C1008.31 297.149 1008.35 298.792 1008.65 300.072C1008.99 301.309 1009.52 302.227 1010.25 302.824C1010.97 303.379 1011.87 303.656 1012.94 303.656C1016.14 303.656 1018.8 302.952 1020.94 301.544C1023.07 300.093 1024.82 298.109 1026.18 295.592C1027.55 293.075 1028.64 290.237 1029.45 287.08L1033.35 272.232ZM1078.16 259.24C1077.73 260.349 1077.16 261.971 1076.43 264.104C1075.71 266.195 1075.03 268.925 1074.39 272.296H1073.11C1073.23 271.699 1073.32 271.08 1073.36 270.44C1073.45 269.8 1073.49 269.245 1073.49 268.776C1073.49 267.027 1073.11 265.555 1072.34 264.36C1071.61 263.123 1070.57 262.184 1069.2 261.544C1067.84 260.861 1066.19 260.52 1064.27 260.52C1062.44 260.52 1060.82 260.989 1059.41 261.928C1058.04 262.867 1057.36 264.467 1057.36 266.728C1057.36 268.179 1057.7 269.608 1058.39 271.016C1059.07 272.381 1059.94 273.747 1061.01 275.112C1062.12 276.477 1063.27 277.864 1064.47 279.272C1065.7 280.637 1066.85 282.045 1067.92 283.496C1069.03 284.904 1069.93 286.397 1070.61 287.976C1071.29 289.555 1071.63 291.219 1071.63 292.968C1071.63 295.315 1071.01 297.32 1069.78 298.984C1068.54 300.605 1066.96 301.928 1065.04 302.952C1063.12 303.976 1061.09 304.723 1058.96 305.192C1056.83 305.661 1054.84 305.896 1053.01 305.896C1050.79 305.896 1048.98 305.789 1047.57 305.576C1046.16 305.363 1044.95 305.043 1043.92 304.616C1042.9 304.147 1041.79 303.592 1040.59 302.952C1040.17 302.696 1039.76 302.483 1039.38 302.312C1038.99 302.099 1038.67 301.992 1038.42 301.992C1037.86 301.992 1037.41 302.227 1037.07 302.696C1036.73 303.165 1036.26 304.083 1035.66 305.448H1034.38C1034.77 304.509 1035.17 303.421 1035.6 302.184C1036.03 300.947 1036.5 299.368 1037.01 297.448C1037.52 295.485 1038.1 293.032 1038.74 290.088H1040.02C1039.8 290.728 1039.63 291.539 1039.51 292.52C1039.42 293.459 1039.4 294.312 1039.44 295.08C1039.57 298.195 1040.55 300.541 1042.39 302.12C1044.22 303.656 1046.72 304.424 1049.87 304.424C1052.86 304.424 1054.84 303.869 1055.83 302.76C1056.85 301.608 1057.36 300.2 1057.36 298.536C1057.36 296.744 1057.04 295.08 1056.4 293.544C1055.8 291.965 1055.01 290.493 1054.03 289.128C1053.05 287.72 1052.01 286.355 1050.9 285.032C1049.83 283.667 1048.81 282.301 1047.83 280.936C1046.84 279.571 1046.03 278.141 1045.39 276.648C1044.8 275.112 1044.5 273.491 1044.5 271.784C1044.5 269.523 1045.01 267.581 1046.03 265.96C1047.1 264.339 1048.49 262.995 1050.19 261.928C1051.9 260.861 1053.73 260.072 1055.7 259.56C1057.66 259.048 1059.54 258.792 1061.33 258.792C1064.36 258.792 1066.77 259.176 1068.56 259.944C1070.35 260.669 1071.72 261.267 1072.66 261.736C1073 261.907 1073.38 262.099 1073.81 262.312C1074.24 262.525 1074.56 262.632 1074.77 262.632C1075.37 262.632 1076.07 261.501 1076.88 259.24H1078.16ZM1091.11 282.856L1091.37 281.576H1105.07L1104.81 282.856H1091.11ZM1097.96 281.576C1098.99 281.576 1099.97 281.384 1100.91 281C1101.89 280.616 1102.76 280.083 1103.53 279.4C1104.34 278.717 1105.04 277.949 1105.64 277.096C1106.28 276.243 1106.77 275.347 1107.11 274.408H1108.52C1107.97 276.072 1107.54 277.459 1107.24 278.568C1106.99 279.635 1106.69 280.851 1106.35 282.216C1106.13 283.069 1105.94 283.837 1105.77 284.52C1105.6 285.16 1105.43 285.885 1105.26 286.696C1105.13 287.507 1104.94 288.616 1104.68 290.024H1103.27C1103.27 289.299 1103.17 288.531 1102.95 287.72C1102.78 286.867 1102.46 286.077 1101.99 285.352C1101.52 284.627 1100.88 284.029 1100.07 283.56C1099.26 283.091 1098.26 282.856 1097.07 282.856L1097.96 281.576ZM1115.18 271.208C1115.22 268.691 1114.94 266.707 1114.35 265.256C1113.75 263.763 1112.87 262.717 1111.72 262.12C1110.57 261.48 1109.14 261.16 1107.43 261.16H1107.24C1105.83 261.16 1104.72 261.288 1103.91 261.544C1103.15 261.757 1102.55 262.248 1102.12 263.016C1101.69 263.741 1101.27 264.893 1100.84 266.472L1092.39 298.216C1092.01 299.752 1091.84 300.904 1091.88 301.672C1091.92 302.44 1092.27 302.952 1092.91 303.208C1093.59 303.421 1094.63 303.528 1096.04 303.528H1096.87C1098.92 303.528 1100.73 303.165 1102.31 302.44C1103.89 301.715 1105.36 300.541 1106.73 298.92C1108.14 297.256 1109.52 295.016 1110.89 292.2H1112.3C1112.08 292.755 1111.85 293.437 1111.59 294.248C1111.38 295.059 1111.17 295.912 1110.95 296.808C1110.74 297.619 1110.46 298.792 1110.12 300.328C1109.78 301.821 1109.5 303.379 1109.29 305C1107.11 304.915 1104.68 304.872 1101.99 304.872C1099.35 304.829 1096.96 304.808 1094.83 304.808C1093.67 304.808 1092.22 304.808 1090.47 304.808C1088.72 304.808 1086.8 304.829 1084.71 304.872C1082.67 304.872 1080.6 304.893 1078.51 304.936C1076.41 304.936 1074.43 304.957 1072.55 305L1072.81 303.72C1074.26 303.635 1075.39 303.464 1076.2 303.208C1077.01 302.952 1077.65 302.44 1078.12 301.672C1078.59 300.904 1079.02 299.752 1079.4 298.216L1087.85 266.472C1088.28 264.893 1088.45 263.741 1088.36 263.016C1088.28 262.248 1087.89 261.736 1087.21 261.48C1086.57 261.181 1085.52 261.011 1084.07 260.968L1084.39 259.688C1086.23 259.731 1088.19 259.773 1090.28 259.816C1092.37 259.816 1094.44 259.837 1096.49 259.88C1098.58 259.88 1100.5 259.88 1102.25 259.88C1104 259.88 1105.45 259.88 1106.6 259.88C1108.56 259.88 1110.76 259.88 1113.19 259.88C1115.63 259.837 1117.84 259.773 1119.85 259.688C1119.29 261.181 1118.83 262.461 1118.44 263.528C1118.1 264.552 1117.76 265.789 1117.42 267.24C1117.25 268.008 1117.08 268.733 1116.91 269.416C1116.78 270.099 1116.67 270.696 1116.59 271.208H1115.18Z" fill="#FF0000"/>
</svg>
