<?xml version="1.0" encoding="UTF-8"?>
<svg id="Layer_1" data-name="Layer 1" xmlns="http://www.w3.org/2000/svg" viewBox="0 0 215 216.75">
  <defs>
    <style>
      .cls-1 {
        fill: none;
        stroke: #000;
        stroke-miterlimit: 10;
        stroke-width: 2px;
      }
    </style>
  </defs>
  <path class="cls-1" d="m64.44,62.47c-2.94-.52-5.79,1.29-7.94,3.37-3.08,2.98-5.44,6.7-6.85,10.75"/>
  <path class="cls-1" d="m63.12,72.79c-4.41,1.39-7.57,5.45-9.07,9.83s-1.61,9.09-1.7,13.72c-.14,7.17-.28,14.33-.41,21.5"/>
  <path class="cls-1" d="m82.12,100.57c-3.96,2.58-5.6,7.6-5.95,12.32s.31,9.49-.39,14.17"/>
  <path class="cls-1" d="m107.47,99.39c1.72.73,2.54,2.65,3.2,4.39,2.68,7.03,5.39,14.29,5.19,21.8"/>
  <path class="cls-1" d="m116.83,68c7.56,13.06,11.72,28.06,11.99,43.14"/>
  <path class="cls-1" d="m115.2,56.11c2.42.8,4.18,2.85,5.81,4.8,3.63,4.35,7.34,8.84,9.08,14.23"/>
  <path class="cls-1" d="m42,78.42c-2.59,7-4.24,14.37-4.57,21.83-.14,3.15-.01,6.42,1.38,9.25,1.39,2.83,4.34,5.09,7.47,4.81,1.42-.13,2.83-.81,3.6-2"/>
  <path class="cls-1" d="m135.33,71.04c3.2,8.99,5.71,18.23,7.51,27.61.61,3.17.96,6.93-1.39,9.15-.91.86-2.13,1.35-3.37,1.56-2.78.48-5.76-.43-7.81-2.37"/>
  <path class="cls-1" d="m85.05,87.12l-8-.43c-.98-.05-2-.1-2.93.23-1.32.48-2.25,1.64-3.11,2.75-1.85,2.4-3.77,4.95-4.16,7.95"/>
  <path class="cls-1" d="m99.99,87.62c2.4-1.28,5.11-1.98,7.83-2.04,1.49-.03,3.03.15,4.31.91,1.15.68,2,1.78,2.75,2.9,1.67,2.47,3.02,5.14,4.03,7.95"/>
  <path class="cls-1" d="m88.16,101.05l8.78-.02c.85,0,1.74.01,2.46.46.68.43,1.09,1.2,1.29,1.99.53,2.08-.19,4.27-1.07,6.23-.24.54-.5,1.08-.9,1.51-.48.52-1.13.84-1.8,1.06-1.06.36-2.22.51-3.31.27-2.17-.47-3.8-2.38-4.55-4.47s-.77-4.36-.78-6.59"/>
  <path class="cls-1" d="m64.44,125.47c-.07,5.13,3.24,10.15,7.98,12.11"/>
  <path class="cls-1" d="m124.01,121.48c-1.35,3.92-2.19,8.2-4.91,11.32-1.24,1.42-2.82,2.53-4.58,3.21"/>
  <path class="cls-1" d="m84.84,88.13c.11.88.16,1.88-.44,2.52-.48.51-1.24.62-1.94.66-2.63.14-5.32-.39-7.87.29-1.41.37-2.69,1.1-3.95,1.83-1.79,1.04-3.74,2.37-4.09,4.41"/>
  <path class="cls-1" d="m98.92,87.94c1.6,1.23,3.68,1.67,5.69,1.77s4.04-.13,6.05-.05c.94.04,1.88.14,2.76.46.77.28,1.48.72,2.18,1.16.85.53,1.71,1.07,2.37,1.83s1.1,1.77.94,2.76"/>
  <path class="cls-1" d="m76.08,90.1c-2.15.9-4.39,1.56-6.68,1.98-.08-.5.32-.93.7-1.28,1.18-1.09,2.39-2.14,3.64-3.16.95-.77,2.01-1.56,3.24-1.55.46,0,1.03.27.98.73-.03.28-.28.48-.52.64-1.56,1.08-3.11,2.17-4.67,3.25,1.38-1.17,3.18-1.84,4.99-1.85-.57.02-1.15.05-1.72.07,1.71-.37,3.49-.43,5.22-.18-.81.29-1.7.36-2.55.21,1.04.07,2.09.15,3.13.22.52.04,1.22.28,1.13.79-1.66.12-3.33.13-4.99,0,1.16-.49,2.41-.77,3.68-.83.47-.02.96-.02,1.36-.25s.68-.78.43-1.17"/>
  <path class="cls-1" d="m106.17,87.57l-1.82-.02,4.2.1c-2.6.08-5.21.15-7.81.23,3.72-.47,7.5-.45,11.21.06.17.02.35.05.49.16.39.32.09,1.04.44,1.4"/>
  <path class="cls-1" d="m75.36,91.65c1.44,1.65,3.9,1.82,6.1,1.87.39,0,.79.02,1.15-.12.7-.27,1.1-1.04,1.24-1.78s.09-1.51.23-2.25c.06-.3.32-.67.57-.5.22.14.09.48-.05.69-.71,1.05-1.44,2.12-2.44,2.89s-2.35,1.22-3.56.84c1.29-.06,2.62.15,3.84-.25s2.3-1.74,1.8-2.93"/>
  <path class="cls-1" d="m98.38,89.02c1.09.89,2.24,1.71,3.42,2.48.8.52,1.64,1.02,2.58,1.17,1.31.22,2.65-.26,3.8-.93s2.18-1.52,3.35-2.17c-.87.15-1.57.78-2.34,1.23-2.03,1.17-4.55.98-6.88.74"/>
  <path class="cls-1" d="m64.26,62.09c5.13-.24,10.26-.48,15.38-.72,6.02-.28,12.11-.58,17.92-2.19,2.16-.6,4.27-1.38,6.45-1.87,3.6-.8,7.32-.81,11-.81"/>
  <path class="cls-1" d="m56.11,133.17c-1.25,4.65-1.28,9.56-.81,14.35,1.03,10.6,4.45,20.86,9.01,30.49,4.56,9.62,10.26,18.66,16.08,27.58.22.34.46.7.82.9.4.22.88.21,1.34.2,3.12-.1,6.34-.22,9.2-1.48s5.31-3.97,5.3-7.1c0-1.14-.32-2.25-.64-3.34-2.1-7.22-4.21-14.43-6.31-21.65"/>
  <path class="cls-1" d="m92.66,182.06c3.87-.39,7.79-.27,11.62.35"/>
  <path class="cls-1" d="m105.52,172.5c-1.1,10.26-1.43,20.6-.96,30.9.05,1.02.11,2.07.52,3,.72,1.64,2.39,2.65,4.04,3.35,3.97,1.69,8.43,2.2,12.68,1.45.39-.07.79-.15,1.12-.38.37-.26.6-.68.8-1.09,4.93-9.6,8.71-19.74,12.07-29.99,1.08-3.3,2.13-6.62,2.67-10.05.75-4.76.5-9.62.16-14.42-.8-11.3-2.12-22.7-6.02-33.34"/>
  <path class="cls-1" d="m137.03,122.64c3.78,10.06,7.62,20.11,12.25,29.8,3.06,6.39,6.5,12.76,7.58,19.76,1.08,7-.75,14.96-6.48,19.13-5.47,3.98-12.87,3.57-19.61,2.99"/>
  <path class="cls-1" d="m76.46,60.56c-.3-2.55.01-5.16.9-7.57.53-1.44,1.37-2.9,2.79-3.47,2.33-.94,4.8.95,6.39,2.89,1.73,2.12,3.17,4.47,4.27,6.98,1.35-5.08,5.28-9.4,10.2-11.24.93-.35,2-.6,2.89-.17.52.26.92.72,1.25,1.2,1.52,2.16,2.22,4.89,1.93,7.52"/>
  <path class="cls-1" d="m88.62,54.04c-.27-3.36-.5-6.78.23-10.07s2.54-6.49,5.47-8.15c2.53-1.43,5.57-1.57,8.47-1.68.63-.02,1.31-.03,1.84.3.99.62.98,2.15.33,3.13s-1.7,1.58-2.64,2.28c-3.14,2.35-5.1,6.21-5.14,10.14"/>
</svg>