<?xml version="1.0" encoding="UTF-8"?>
<svg id="Layer_1" data-name="Layer 1" xmlns="http://www.w3.org/2000/svg" viewBox="0 0 228 202.25">
  <defs>
    <style>
      .cls-1 {
        fill: none;
        stroke: #000;
        stroke-miterlimit: 10;
        stroke-width: 3px;
      }
    </style>
  </defs>
  <path class="cls-1" d="m19.1,27.26c.56,51.2,1.12,102.4,1.68,153.6"/>
  <path class="cls-1" d="m19.59,28.32c57.33-3.59,114.88-3.6,172.21-.05"/>
  <path class="cls-1" d="m193.19,28.49c4.42,50.36,8.84,100.71,13.26,151.07"/>
  <path class="cls-1" d="m205.46,180.65c-58.1-6.85-117.2-5.13-174.81,5.08-3.39.6-7.06,1.19-10.12-.38-3.06-1.58-4.58-6.33-1.9-8.48"/>
  <path class="cls-1" d="m133.57,91.41c1.04,7.21,1.05,14.58.05,21.8-.49,3.57-1.29,7.23-3.42,10.13-3.31,4.53-9.15,6.36-14.67,7.33-4.94.87-9.95,1.29-14.97,1.24-3.3-.03-6.68-.29-9.72-1.58-4.9-2.09-8.31-6.6-11.07-11.15s-5.21-9.43-9.11-13.06"/>
  <path class="cls-1" d="m90.64,99.57c-.39-.44-1.03-.63-1.6-.46.58-.29.26-1.39-.39-1.32"/>
  <path class="cls-1" d="m117.43,94.14c-.7.43-.75,1.62-.07,2.07s1.79-.14,1.75-.97-1.28-1.27-1.81-.64"/>
  <path class="cls-1" d="m107.3,125.18c-3.43-.71-6.46-3.13-7.89-6.32-.09-.2-.17-.41-.13-.62.05-.29.31-.48.56-.64,4.14-2.73,9.16-4.1,14.11-3.87.68.03,1.37.1,1.96.44.9.51,1.37,1.58,1.44,2.61s-.2,2.06-.48,3.06c-.29,1.05-.6,2.13-1.28,2.99-1.55,1.94-4.4,2.06-6.88,2.01"/>
  <path class="cls-1" d="m91.25,100.56c-1.07.04-2.16.08-3.18-.27s-1.94-1.16-2.09-2.22c-.03-.21-.03-.43.06-.62.07-.14.18-.25.29-.35.86-.73,2.18-.87,3.16-.32s1.57,1.74,1.41,2.85c-.03.21-.1.45-.28.56-.35.23-.8-.11-1.06-.45-.26-.35-.49-.73-.56-1.16s.05-.91.4-1.17c.3-.23.73-.26,1.06-.07s.51.58.46.95c-.07.48-.51.85-.99.94s-.97-.04-1.41-.25c-.53-.25-1.02-.61-1.41-1.05-.16-.18-.32-.41-.28-.65.04-.26.3-.43.54-.53.85-.35,1.96-.16,2.49.6s.15,2.03-.75,2.22c-.89.18-1.68-.67-1.96-1.54-.09-.28-.14-.62.03-.86.28-.4.89-.29,1.35-.12.84.3,1.8.72,2.02,1.59.02.09.04.19-.01.27-.05.08-.15.12-.24.15-1.24.35-2.7-.29-3.26-1.46-.19-.4-.28-.91-.02-1.27.1-.14.25-.24.4-.32,1.22-.65,2.82.14,3.48,1.36s.61,2.69.41,4.05"/>
  <path class="cls-1" d="m64.28,90.86c-3.2-.91-3.76,1.46-7.08,1.37-3.32-.09-7.2-2.48-6.61-5.75.46-2.56,3.31-3.84,5.79-4.64,19.14-6.21,39.17-9.78,59.29-10.07,6.62-.09,13.3.17,19.74,1.71,2.26.54,4.54,1.27,6.37,2.7s3.14,3.72,2.86,6.03c-.26,2.18-1.87,4.02-3.78,5.11s-4.1,1.56-6.25,2.01"/>
  <path class="cls-1" d="m62.24,79.68c3.04-9.45,6.16-18.87,9.35-28.26.91-2.66,2.08-5.61,4.66-6.71,3.3-1.4,6.91.94,9.72,3.16,2.06,1.62,4.11,3.24,6.17,4.86,1.63,1.28,4.02,2.56,5.56,1.18.82-.73.98-1.93,1.08-3.02.22-2.2.44-4.4.66-6.6.13-1.26.27-2.58.96-3.64,1.25-1.93,3.99-2.43,6.18-1.74s3.96,2.29,5.62,3.88c9.25,8.86,17.55,18.71,24.71,29.33"/>
  <path class="cls-1" d="m65.87,72.55c14.86-4.94,29.92-9.92,45.55-11.03,6.38-.45,12.92-.23,18.94,1.93"/>
  <path class="cls-1" d="m69.37,57.7c-5.17-4.24-9.84-9.41-12.06-15.72,1.14,6.07,2.53,12.1,4.16,18.06.65,2.38,1.38,4.82,2.91,6.77"/>
  <path class="cls-1" d="m122.82,53.79c2.5-7.65,5.01-15.36,6.01-23.35,1.69,2.38,2.03,5.44,2.26,8.35.57,7.4.72,14.82.47,22.24"/>
  <path class="cls-1" d="m70.43,106.03c-4.17-5.44-3.09-4.31-3.51-5.03-2.46-4.34-3.39-9.53-2.58-14.45"/>
  <path class="cls-1" d="m133.77,91.2c.11-4.94.08-9.88-.09-14.82"/>
  <path class="cls-1" d="m121.67,105.56c-3.97.47-8.45.81-11.54-1.73-2.86-2.35-3.55-6.42-3.63-10.12-.1-4.7.66-9.8,3.99-13.11,4.02-3.99,10.79-4.08,15.81-1.46,1.57.82,3.05,1.9,4,3.39,1.37,2.14,1.48,4.83,1.42,7.38-.04,1.62-.14,3.25-.6,4.8-.8,2.65-2.62,4.86-4.39,6.98-1.61,1.93-2.46,1.97-4.86,3.57"/>
  <path class="cls-1" d="m77.93,116.16c-6.18,1.77-10.98,7.58-11.55,13.98-.04.44-.06.91.14,1.3.25.49.77.76,1.27.99,7.02,3.18,15.03,3.05,22.73,2.7.58-.03,1.22-.03,1.65.35.79.7.26,1.98-.29,2.88-3.16,5.21-5.49,10.92-6.86,16.86-2.43.58-4.97-.42-7.09-1.77-6.72-4.27-10.84-12.34-10.35-20.29"/>
  <path class="cls-1" d="m135.32,103.96c2.93,3.15,6.08,7.07,5.12,11.26-.28,1.23-.91,2.35-1.61,3.39-4.29,6.31-12.09,10.06-19.7,9.47-.67-.05-1.5-.06-1.83.52,6.22,4.72,12.13,9.85,17.68,15.33,3.24-.23,5.97-2.56,7.83-5.22,5.56-7.96,4.62-19.81-2.13-26.79"/>
  <path class="cls-1" d="m144.1,136.61c3.9,5.57,7.81,11.17,10.77,17.3s4.93,12.85,4.72,19.64"/>
  <path class="cls-1" d="m67.33,140.64c-6.15,10.07-9.45,21.86-9.42,33.67"/>
  <path class="cls-1" d="m92.03,136.62c3.92,14.67,9.24,28.97,15.87,42.64"/>
  <path class="cls-1" d="m119.21,128.85c1.63,17.64,1.65,35.43.08,53.07"/>
  <path class="cls-1" d="m101.18,118.76c.2.72.65,1.37,1.27,1.79.12.08.26.16.41.13.17-.04.26-.21.33-.36.5-1.2.13-2.71-.86-3.55.07,1.82.61,3.62,1.54,5.18.59-1.39.12-3.14-1.08-4.05.71,1.76,1.73,3.39,2.98,4.81.65-1.94.43-4.16-.6-5.94-.16,2.18.48,4.41,1.75,6.19.84-2.15.27-4.78-1.38-6.38-.5,2.61.65,5.46,2.82,7,.31-2.56-.24-5.23-1.54-7.45-.18,2.31.72,4.68,2.4,6.28.8-2.11.43-4.63-.96-6.42-.03,2.1.68,4.21,1.99,5.86.51-1.98.12-4.17-1.03-5.87-.1,2.05.81,4.12,2.39,5.44.17.14.35.27.56.3.58.08.96-.61,1.05-1.19.35-2.18-.81-4.51-2.74-5.56.22,1.86.91,3.66,1.98,5.18.09.12.18.25.33.29.31.1.58-.24.7-.54.69-1.81-.17-3.81-1.02-5.56.33-.49,1.06-.65,1.57-.35s.72,1.02.45,1.54c-.27-.13.1-.58.37-.43s.3.5.3.81c0,.94.01,1.89.02,2.83,0,.88,0,1.83-.53,2.53-.63.86-1.82,1.09-2.89,1.06s-2.15-.26-3.19-.04"/>
  <path class="cls-1" d="m64.75,75.97c1.94-.27,3.87-.55,5.81-.82-2.06,1.36-4.6,1.99-7.06,1.74,1.16-1.74,3.15-2.9,5.23-3.05.33-.02.68-.02.95.17.81.56-.38,1.98-1.23,1.49s-.74-1.86-.04-2.55,1.74-.88,2.71-1.04c3.36-.55,6.71-1.11,10.07-1.66-3.49,1.86-7.17,3.36-10.96,4.47,7.6-.69,15.16-1.77,22.65-3.24-7.25-1.02-15.2-1.89-21.37,2.06,5.08-.88,10.07-2.22,14.91-4-5.49,2.82-11.23,5.7-17.4,5.8,9.97-4.42,20.23-8.17,30.7-11.21-7.31,1.6-14.52,3.71-21.54,6.32,7.89-1.9,16.09-1.87,24.21-1.83-3.47,1.17-6.93,2.34-10.4,3.52,13.44-1.9,27.01-3.8,40.53-2.69.72.06,1.48.14,2.05.59s.79,1.39.26,1.89c-.25.24-.61.32-.96.36-2.56.32-5.06-.81-7.6-1.23-4.1-.68-8.67.41-12.19-1.8,5.92-.18,11.98-.35,17.62,1.44.6.19,1.46.27,1.65-.33.07-.22,0-.45-.07-.66-.95-2.66-3.73-4.3-6.5-4.81s-5.63-.14-8.45.01c-9.34.5-18.89-1.54-27.97.73,2.71.53,5.49.69,8.25.46-2.25.4-4.5.8-6.75,1.19,1.04-.7,2.65.02,2.97,1.24s-.54,2.55-1.73,2.95-2.56-.06-3.45-.95c.75-1.36,2.47-1.78,4-2.07,4.62-.86,9.24-1.73,13.86-2.59-5.58,1.51-11.22,2.8-16.9,3.86,7.28-.54,14.52-1.58,21.66-3.1-3.47,1.14-7.05,1.96-10.67,2.47,3.39-.62,6.72-1.52,9.96-2.7-4.82-.15-9.64-.3-14.45-.44,6.94-1.5,13.99-2.47,21.08-2.9l-4.68-.13c5.93-.96,12.24.74,16.89,4.54-6.5-.02-13.01-.06-19.51-.11,4.86-.09,9.71-.18,14.57-.26-.78-.77-1.85-1.23-2.94-1.26-.27-.27.49-.52.58-.15s-.28.69-.61.88c-3.02,1.8-6.5,2.81-10.02,2.92"/>
  <path class="cls-1" d="m75.4,86.05l18.55-4.23c6.43-1.47,12.97-2.94,19.56-2.59"/>
</svg>