<?xml version="1.0" encoding="UTF-8"?>
<svg id="Layer_1" data-name="Layer 1" xmlns="http://www.w3.org/2000/svg" viewBox="0 0 456.5 208.62">
  <defs>
    <style>
      .cls-1, .cls-2 {
        stroke-width: 3px;
      }

      .cls-1, .cls-2, .cls-3 {
        stroke: #000;
        stroke-miterlimit: 10;
      }

      .cls-2, .cls-3 {
        fill: none;
      }

      .cls-3 {
        stroke-width: 2px;
      }
    </style>
  </defs>
  <path class="cls-2" d="m22.2,26.01l1.68,153.6"/>
  <path class="cls-2" d="m22.69,27.06c57.33-3.59,114.88-3.6,172.21-.05"/>
  <path class="cls-2" d="m196.29,27.24c4.42,50.36,8.84,100.71,13.26,151.07"/>
  <path class="cls-2" d="m208.56,179.39c-58.1-6.85-117.2-5.13-174.81,5.08-3.39.6-7.06,1.19-10.12-.38s-4.58-6.33-1.9-8.48"/>
  <path class="cls-2" d="m226.59,26.52c-.11,37.07-.21,74.29,5.12,110.98,2.32,16,5.68,31.94,5.92,48.11"/>
  <path class="cls-2" d="m226.29,26.52c30.19-.61,60.38-1.22,90.56-1.83,28.94-.59,57.99-1.18,86.61-5.55"/>
  <path class="cls-2" d="m237.54,185.27c24.46.33,48.99.25,73.31-2.47,29.22-3.26,58.01-10.31,87.38-11.61,7.63-.34,15.38-.27,22.76,1.7"/>
  <path class="cls-2" d="m403.95,20.76c.68,19.92,1.05,39.85,1.1,59.78.04,14.7-.08,29.48,2.24,44,2.76,17.24,8.97,34,9.42,51.45"/>
  <path class="cls-2" d="m81.94,91.47c-2.94-.52-5.79,1.29-7.94,3.37-3.08,2.98-5.44,6.7-6.85,10.75"/>
  <path class="cls-2" d="m80.62,101.79c-4.41,1.39-7.57,5.45-9.07,9.83s-1.61,9.09-1.7,13.72c-.14,7.17-.28,14.33-.41,21.5"/>
  <path class="cls-2" d="m99.62,129.57c-3.96,2.58-5.6,7.6-5.95,12.32s.31,9.49-.39,14.17"/>
  <path class="cls-2" d="m124.97,128.39c1.72.73,2.54,2.65,3.2,4.39,2.68,7.03,5.39,14.29,5.19,21.8"/>
  <path class="cls-2" d="m134.33,97c7.56,13.06,11.72,28.06,11.99,43.14"/>
  <path class="cls-2" d="m132.7,85.11c2.42.8,4.18,2.85,5.81,4.8,3.63,4.35,7.34,8.84,9.08,14.23"/>
  <path class="cls-2" d="m59.5,107.42c-2.59,7-4.24,14.37-4.57,21.83-.14,3.15-.01,6.42,1.38,9.25,1.39,2.83,4.34,5.09,7.47,4.81,1.42-.13,2.83-.81,3.6-2"/>
  <path class="cls-2" d="m152.83,100.04c3.2,8.99,5.71,18.23,7.51,27.61.61,3.17.96,6.93-1.39,9.15-.91.86-2.13,1.35-3.37,1.56-2.78.48-5.76-.43-7.81-2.37"/>
  <path class="cls-2" d="m102.55,116.12l-8-.43c-.98-.05-2-.1-2.93.23-1.32.48-2.25,1.64-3.11,2.75-1.85,2.4-3.77,4.95-4.16,7.95"/>
  <path class="cls-2" d="m117.49,116.62c2.4-1.28,5.11-1.98,7.83-2.04,1.49-.03,3.03.15,4.31.91,1.15.68,2,1.78,2.75,2.9,1.67,2.47,3.02,5.14,4.03,7.95"/>
  <path class="cls-2" d="m105.66,130.05l8.78-.02c.85,0,1.74.01,2.46.46.68.43,1.09,1.2,1.29,1.99.53,2.08-.19,4.27-1.07,6.23-.24.54-.5,1.08-.9,1.51-.48.52-1.13.84-1.8,1.06-1.06.36-2.22.51-3.31.27-2.17-.47-3.8-2.38-4.55-4.47s-.77-4.36-.78-6.59"/>
  <path class="cls-2" d="m81.94,154.47c-.07,5.13,3.24,10.15,7.98,12.11"/>
  <path class="cls-2" d="m141.51,150.48c-1.35,3.92-2.19,8.2-4.91,11.32-1.24,1.42-2.82,2.53-4.58,3.21"/>
  <path class="cls-2" d="m102.34,117.13c.11.88.16,1.88-.44,2.52-.48.51-1.24.62-1.94.66-2.63.14-5.32-.39-7.87.29-1.41.37-2.69,1.1-3.95,1.83-1.79,1.04-3.74,2.37-4.09,4.41"/>
  <path class="cls-2" d="m116.42,116.94c1.6,1.23,3.68,1.67,5.69,1.77s4.04-.13,6.05-.05c.94.04,1.88.14,2.76.46.77.28,1.48.72,2.18,1.16.85.53,1.71,1.07,2.37,1.83s1.1,1.77.94,2.76"/>
  <path class="cls-2" d="m93.58,119.1c-2.15.9-4.39,1.56-6.68,1.98-.08-.5.32-.93.7-1.28,1.18-1.09,2.39-2.14,3.64-3.16.95-.77,2.01-1.56,3.24-1.55.46,0,1.03.27.98.73-.03.28-.28.48-.52.64-1.56,1.08-3.11,2.17-4.67,3.25,1.38-1.17,3.18-1.84,4.99-1.85-.57.02-1.15.05-1.72.07,1.71-.37,3.49-.43,5.22-.18-.81.29-1.7.36-2.55.21,1.04.07,2.09.15,3.13.22.52.04,1.22.28,1.13.79-1.66.12-3.33.13-4.99,0,1.16-.49,2.41-.77,3.68-.83.47-.02.96-.02,1.36-.25s.68-.78.43-1.17"/>
  <path class="cls-2" d="m123.67,116.57l-1.82-.02,4.2.1c-2.6.08-5.21.15-7.81.23,3.72-.47,7.5-.45,11.21.06.17.02.35.05.49.16.39.32.09,1.04.44,1.4"/>
  <path class="cls-2" d="m92.86,120.65c1.44,1.65,3.9,1.82,6.1,1.87.39,0,.79.02,1.15-.12.7-.27,1.1-1.04,1.24-1.78s.09-1.51.23-2.25c.06-.3.32-.67.57-.5.22.14.09.48-.05.69-.71,1.05-1.44,2.12-2.44,2.89s-2.35,1.22-3.56.84c1.29-.06,2.62.15,3.84-.25s2.3-1.74,1.8-2.93"/>
  <path class="cls-2" d="m115.88,118.02c1.09.89,2.24,1.71,3.42,2.48.8.52,1.64,1.02,2.58,1.17,1.31.22,2.65-.26,3.8-.93s2.18-1.52,3.35-2.17c-.87.15-1.57.78-2.34,1.23-2.03,1.17-4.55.98-6.88.74"/>
  <path class="cls-2" d="m282.49,108.62c2.4-1.28,5.11-1.98,7.83-2.04,1.49-.03,3.03.15,4.31.91,1.15.68,2,1.78,2.75,2.9,1.67,2.47,3.02,5.14,4.03,7.95"/>
  <path class="cls-2" d="m281.42,108.94c1.6,1.23,3.68,1.67,5.69,1.77s4.04-.13,6.05-.05c.94.04,1.88.14,2.76.46.77.28,1.48.72,2.18,1.16.85.53,1.71,1.07,2.37,1.83s1.1,1.77.94,2.76"/>
  <path class="cls-2" d="m288.67,108.57l-1.82-.02,4.2.1c-2.6.08-5.21.15-7.81.23,3.72-.47,7.5-.45,11.21.06.17.02.35.05.49.16.39.32.09,1.04.44,1.4"/>
  <path class="cls-2" d="m280.88,110.02c1.09.89,2.24,1.71,3.42,2.48.8.52,1.64,1.02,2.58,1.17,1.31.22,2.65-.26,3.8-.93s2.18-1.52,3.35-2.17c-.87.15-1.57.78-2.34,1.23-2.03,1.17-4.55.98-6.88.74"/>
  <path class="cls-2" d="m81.76,91.09c5.13-.24,10.26-.48,15.38-.72,6.02-.28,12.11-.58,17.92-2.19,2.16-.6,4.27-1.38,6.45-1.87,3.6-.8,7.32-.81,11-.81"/>
  <path class="cls-3" d="m73.61,162.17c-1.25,4.65-1.28,9.56-.81,14.35"/>
  <path class="cls-2" d="m160.13,174.5c-.8-11.38-2.12-22.86-6.02-33.57"/>
  <path class="cls-2" d="m93.96,89.56c-.3-2.55.01-5.16.9-7.57.53-1.44,1.37-2.9,2.79-3.47,2.33-.94,4.8.95,6.39,2.89,1.73,2.12,3.17,4.47,4.27,6.98,1.35-5.08,5.28-9.4,10.2-11.24.93-.35,2-.6,2.89-.17.52.26.92.72,1.25,1.2,1.52,2.16,2.22,4.89,1.93,7.52"/>
  <path class="cls-2" d="m106.12,83.04c-.27-3.36-.5-6.78.23-10.07s2.54-6.49,5.47-8.15c2.53-1.43,5.57-1.57,8.47-1.68.63-.02,1.31-.03,1.84.3.99.62.98,2.15.33,3.13-.64.98-1.7,1.58-2.64,2.28-3.14,2.35-5.1,6.21-5.14,10.14"/>
  <path class="cls-2" d="m163.03,155.66c3.68,5.38,6.64,11.25,8.75,17.42"/>
  <path class="cls-2" d="m306.89,85.12c-7.23.04-14.77,1.7-20.22,6.45-3.29,2.86-5.62,6.65-7.89,10.38-4.91,8.05-9.82,16.1-14.73,24.15-1.62,2.65-3.3,5.58-2.88,8.66.54,4.01,4.13,15.62,7.83,17.24,9.31,4.09,26.22,9.78,36,7"/>
  <path class="cls-2" d="m305.35,85.12c-3.15-2.03-5.96-4.6-8.25-7.57-.72-.93-1.42-2.14-.96-3.22.61-1.44,2.65-1.42,4.16-1.01,3.54.95,6.82,2.67,10.07,4.38.7.37,1.4.74,2.1,1.1,3.61,1.89,7.36,3.83,11.43,4.05,1.22.07,2.5-.04,3.53-.69s1.72-1.96,1.33-3.12c-.61-1.82-3.08-2-4.99-1.84-1.2.1-2.44.21-3.53.72-1.79.83-2.93,2.59-4.38,3.92-2.55,2.34-6.25,3.37-9.65,2.69-.38-4.77,1.89-9.67,5.78-12.45s7.59-11.97,11.98-10.07c.27.12,7.85-3.25,8-3,.41.66-6.7,8.76-7,9-5,4-8.72,4.8-7.83,13.53"/>
  <path class="cls-2" d="m317,112c-1.19,4.25,3.94,16.49,4.07,20.9.05,1.83.23,3.69,1.01,5.35,2.06,4.42,7.57,5.98,12.45,6.1,6.48.16,12.99-1.36,18.73-4.37.81-.43,1.65-.92,2.12-1.7.35-.59.46-1.3.52-1.98.31-4.1-1.28-8.15-3.63-11.52s-3.21-14.02-6.26-16.77"/>
  <path class="cls-2" d="m332.09,83.17c6.71-1.17,22.37,3.86,27.91,7.83,13.65,9.79,14.57,22.38,21.5,37.68,6.94,15.3,9.32,24.05,13.5,40.32"/>
  <path class="cls-2" d="m277.56,120.07c5.16-.26,10.39.91,14.94,3.36,3.3,1.77,6.53,4.8,6.3,8.53"/>
  <path class="cls-2" d="m289.77,133.56c2.25,1.13,4.01,3.17,4.8,5.55"/>
  <path class="cls-2" d="m278.29,137.51c.76.78,1.82,1.15,2.78,1.66s1.9,1.29,2.04,2.37"/>
  <path class="cls-1" d="m252.04,126.66c-.36-1.71.57-3.49,1.94-4.57s3.13-1.54,4.85-1.8c3.39-.51,7.02-.28,9.98,1.45,2.45,1.44,4.38,4.1,4.53,7,.18,3.73-4.29,3.69-7.2,3.98-4.08.41-13.08-1.27-14.09-6.06Z"/>
  <path class="cls-2" d="m271,153c1.42,12.69-.56,17.28-5.8,28.92-.36.81-.77,1.64-1.48,2.17"/>
</svg>