<?xml version="1.0" encoding="UTF-8"?>
<svg id="Layer_1" data-name="Layer 1" xmlns="http://www.w3.org/2000/svg" viewBox="0 0 438.5 204.62">
  <defs>
    <style>
      .cls-1 {
        fill: none;
        stroke: #000;
        stroke-miterlimit: 10;
        stroke-width: 3px;
      }
    </style>
  </defs>
  <g>
    <path class="cls-1" d="m86.21,95.75c-.21-3.45-2.87-6.2-5.35-8.6-1.04-1-2.09-2.02-3.38-2.67-1.43-.72-3.05-.95-4.62-1.24-5.61-1.05-11.03-3.13-15.9-6.1-.26,4.94-.53,9.92.17,14.82.7,4.9,2.43,9.77,5.72,13.47,3.29,3.7,8.29,6.06,13.2,5.41"/>
    <path class="cls-1" d="m87.13,95.75c3.73-6.09,10.34-10.33,17.44-11.17s14.52,1.73,19.57,6.78"/>
    <path class="cls-1" d="m124.45,92.02c.97-5.39,5.13-9.66,9.59-12.84,4.46-3.18,9.45-5.67,13.43-9.44.58,2.29.61,4.68.65,7.04.07,4.84.13,9.71-.66,14.48-.8,4.77-2.52,9.49-5.65,13.18-1.91,2.25-4.71,4.18-7.62,3.67"/>
    <path class="cls-1" d="m113.9,122.32c-.79.29-1.6.6-2.2,1.18-.6.58-.95,1.52-.6,2.28.41.88,1.51,1.17,2.47,1.28,2.29.26,4.62.12,6.87-.4.4-.09.8-.2,1.13-.44,1.02-.74.85-2.44-.06-3.31-.91-.87-2.27-1.07-3.53-1.04-1.26.03-2.53.23-3.77.01"/>
    <path class="cls-1" d="m133.96,107.77c-1.78,4.95-2.22,10.27-3.41,15.4-1.19,5.12-3.35,10.34-7.59,13.46-4.45,3.27-10.87,3.57-15.6.73-4.94-2.97-8.32-9.03-14.06-9.6"/>
    <path class="cls-1" d="m99.47,110.54c-.46,1.05.19,2.43,1.3,2.75.4.11.88.07,1.13-.26.3-.41.05-1.03-.39-1.29s-.97-.26-1.48-.25"/>
    <path class="cls-1" d="m123.35,111.22c1.2.23,2.43.3,3.65.19.58-.05,1.28-.25,1.42-.82.08-.33-.08-.67-.29-.93-.54-.67-1.5-.97-2.33-.73s-1.48.99-1.59,1.85"/>
    <path class="cls-1" d="m75.58,111.78c3.84,9.94,5.11,20.42,4.49,31.02-.59,10.1-2.24,20.44.45,30.39"/>
    <path class="cls-1" d="m129.14,127.39c.91,17.71,17.39,30.51,28.99,41.99"/>
    <path class="cls-1" d="m131.49,98.54c-1.11-4.93.88-10.42,4.88-13.49"/>
    <path class="cls-1" d="m80.9,99.43c-.86-3.09-3.22-5.73-6.19-6.93"/>
  </g>
  <path class="cls-1" d="m25.2,20.01c.56,51.2,1.12,102.4,1.68,153.6"/>
  <path class="cls-1" d="m25.69,21.06c57.33-3.59,114.88-3.6,172.21-.05"/>
  <path class="cls-1" d="m199.29,21.24l13.26,151.07"/>
  <path class="cls-1" d="m211.56,173.39c-58.1-6.85-117.2-5.13-174.81,5.08-3.39.6-7.06,1.19-10.12-.38s-4.58-6.33-1.9-8.48"/>
  <path class="cls-1" d="m229.59,20.52c-.11,37.07-.21,74.29,5.12,110.98,2.32,16,5.68,31.94,5.92,48.11"/>
  <path class="cls-1" d="m229.29,20.52c30.19-.61,60.38-1.22,90.56-1.83,28.94-.59,57.99-1.18,86.61-5.55"/>
  <path class="cls-1" d="m240.54,179.27c24.46.33,48.99.25,73.31-2.47,29.22-3.26,58.01-10.31,87.38-11.61,7.63-.34,15.38-.27,22.76,1.7"/>
  <path class="cls-1" d="m406.95,14.76c.68,19.92,1.05,39.85,1.1,59.78.04,14.7-.08,29.48,2.24,44,2.76,17.24,8.97,34,9.42,51.45"/>
  <path class="cls-1" d="m358.8,113.97c-7.3-21.47-32.8-48.97-57.8-43.97-16,3-31,18-26.5,30.5,3.66,10.18-15,22-6,32,16,3,31-3,47-6,5-1,6,6,7.7,9.54"/>
  <path class="cls-1" d="m266.79,126.53c-1.65-1.22-3.17-2.62-4.52-4.17-.38-.43-.76-.95-.69-1.52.12-.89,1.2-1.23,2.09-1.34,2.16-.27,4.34-.31,6.51-.14,1,.08,2.11.26,2.74,1.04,1.17,1.45-.17,3.62-1.75,4.61-1.6,1.01-3.49,1.57-5.39,1.58"/>
  <path class="cls-1" d="m286.02,109.24c-.89.07-1.34,1.28-.89,2.05s1.45,1.06,2.33.94c1.13-.16,2.24-1.5,1.49-2.35-.77-.26-1.59-.52-2.39-.34s-1.51.98-1.28,1.76c.95.44,2.16.27,2.94-.43s1.1-1.87.78-2.87c-.61-.28-1.4-.09-1.82.43s-.42,1.34,0,1.87"/>
  <path class="cls-1" d="m318.11,87.03c-1.1-5.57,3.1-11.04,8.2-13.55,5.09-2.51,10.94-2.83,16.56-3.59s11.53-2.16,15.52-6.21c-3.46,5.23-5.41,11.33-8.88,16.54s-9.28,9.67-15.48,8.8"/>
  <path class="cls-1" d="m325.95,85.27c3.81-4.57,10.16-5.95,16.04-6.88"/>
  <path class="cls-1" d="m321.43,132.41c.08,3.49,2.3,6.5,4.09,9.49,4.86,8.12,6.94,18.63,2.64,27.07-.8,1.58-1.84,3.15-1.86,4.92"/>
  <path class="cls-1" d="m358.35,111.21c-.21,2.22,1.06,4.28,2.29,6.13,10.32,15.48,22.21,30.76,25.9,49"/>
</svg>