<svg width="1425" height="539" viewBox="0 0 1425 539" fill="none" xmlns="http://www.w3.org/2000/svg">
<circle cx="241" cy="271" r="166" fill="#F94143"/>
<circle cx="750" cy="271" r="166" fill="#F94143"/>
<circle cx="1259" cy="271" r="166" fill="#F94143"/>
<circle cx="743" cy="271" r="166" fill="#F94143"/>
<circle cx="241" cy="271" r="166" fill="#F94143"/>
<ellipse cx="1258.5" cy="271" rx="166.5" ry="166" fill="#F94143"/>
<ellipse cx="742.5" cy="271" rx="166.5" ry="166" fill="#F94143"/>
<ellipse cx="240.5" cy="271" rx="166.5" ry="166" fill="#F94143"/>
<circle cx="1086" cy="202" r="68" fill="#F9C650"/>
<circle cx="1102" cy="309" r="68" fill="#F9C650"/>
<circle cx="1119.5" cy="387.5" r="67.5" fill="#F9C650"/>
<circle cx="570" cy="202" r="68" fill="#F9C650"/>
<circle cx="586" cy="309" r="68" fill="#F9C650"/>
<circle cx="603.5" cy="387.5" r="67.5" fill="#F9C650"/>
<circle cx="68" cy="202" r="68" fill="#F9C650"/>
<circle cx="84" cy="309" r="68" fill="#F9C650"/>
<circle cx="101.5" cy="387.5" r="67.5" fill="#F9C650"/>
<ellipse cx="730.5" cy="271" rx="166.5" ry="166" fill="#F94143"/>
<ellipse cx="696.5" cy="160" rx="79.5" ry="80" fill="#F9C650"/>
<ellipse cx="715.5" cy="286" rx="79.5" ry="80" fill="#F9C650"/>
<ellipse cx="616" cy="269.5" rx="80" ry="269.5" fill="#F9C650"/>
<circle cx="735.5" cy="389.5" r="79.5" fill="#F9C650"/>
</svg>
