<?xml version="1.0" encoding="UTF-8"?>
<svg id="Layer_1" data-name="Layer 1" xmlns="http://www.w3.org/2000/svg" viewBox="0 0 558 172">
  <path d="m67.93,60.84c-.64,15.66,1.91,31.56,7.53,46.19,1.42,3.69,2.91,7.46,4.84,10.92,1.66,2.98,4.01,6.05,7.14,7.59,3.78,1.85,8.26,1.63,11.72-.87s5.55-5.89,7.16-9.7c2.99-7.09,3.35-14.86,4.26-22.41.03-.21.05-.42.08-.64,0-.05.1-.74.03-.25s.1-.77.17-.79c-.04.01-.33.62-.39.68-.89,1.09-2.77-.13-3.65.81.02-.02.61.43.2.11-.37-.29.25.24.31.3,1.29,1.16,2.53,2.37,3.76,3.6,2.41,2.42,4.74,4.91,7.21,7.27,2.6,2.5,5.37,4.86,8.39,6.84,3.3,2.16,7.19,4.13,11.21,4.22,9.31.2,12.17-10.51,14.41-17.6,4.74-15.05,6.38-31.23,4.63-46.92-.25-2.21-.55-4.42-.9-6.62-.37-2.33-3.4-3.83-5.54-3.14-2.53.82-3.54,3.04-3.14,5.54.52,3.24.89,6.64,1.1,10.58.19,3.64.2,7.29.04,10.94-.08,1.82-.21,3.64-.38,5.46-.09.91-.18,1.81-.29,2.72-.05.45-.11.91-.17,1.36.11-.82-.14.91-.16,1.06-.55,3.61-1.28,7.18-2.18,10.72s-1.98,7.02-3.22,10.45c-.31.86-.63,1.71-.97,2.56-.04.1-.6,1.42-.13.35-.15.34-.3.67-.46,1-.32.66-.69,1.28-1.1,1.88.59-.87-.05.02-.2.18-.16.17-.34.32-.51.47.45-.35.47-.38.05-.11l-.31.16c.48-.2.46-.21-.07-.04.88.18-.28,0-.49.01-.16.01-.87-.1-.09.03-.43-.07-.86-.18-1.28-.31s-.84-.27-1.25-.44c.8.32-.4-.2-.45-.23-.83-.4-1.64-.84-2.43-1.32-.67-.4-1.33-.83-1.98-1.28-.32-.22-.64-.46-.96-.69-1.06-.75.67.56-.34-.25-1.23-1-2.43-2.03-3.59-3.12-2.44-2.28-4.74-4.71-7.08-7.1-1.03-1.05-2.07-2.09-3.14-3.1-1.58-1.51-3.23-3.26-5.37-3.93-2.74-.85-5.65.37-7.06,2.82-1.06,1.85-1.1,4.11-1.35,6.17-.19,1.64-.36,3.28-.54,4.92-.09.86-.19,1.71-.3,2.57-.01.09-.2,1.49-.06.51-.08.57-.16,1.13-.26,1.69-.27,1.68-.6,3.34-1.04,4.99-.18.68-.38,1.35-.59,2.02-.13.4-.27.8-.41,1.19-.1.26-.2.52-.3.78.19-.43.17-.4-.04.08-.36.77-.73,1.52-1.15,2.26-.2.34-.4.68-.62,1.01-.07.11-.82,1.13-.2.34-.48.61-1.03,1.13-1.58,1.67-.81.79.7-.32-.29.21-.23.13-1.58.68-.57.37-.35.11-.69.21-1.06.29.23-.05.88,0,.09-.06h-.35c-.52-.05-.45-.04.19.03-.07.05-.89-.21-.95-.27l.47.2c-.2-.1-.39-.2-.58-.31-.19-.11-1.05-.78-.19-.07-.63-.53-1.18-1.11-1.72-1.73-.77-.88.46.76-.17-.24-.19-.31-.41-.6-.6-.91-.38-.62-.74-1.25-1.07-1.89-.79-1.52-1.47-3.09-2.16-4.66-.6-1.35.31.78-.25-.59-.23-.56-.46-1.12-.68-1.68-.39-.98-.76-1.97-1.12-2.96-.72-1.98-1.39-3.99-1.99-6.01-1.17-3.9-2.13-7.86-2.87-11.86-.19-1.04-.37-2.08-.53-3.12-.07-.45-.13-.89-.2-1.34-.08-.55-.08-.6-.03-.15-.04-.3-.08-.6-.12-.9-.24-1.95-.43-3.9-.57-5.85-.3-4.21-.35-8.44-.18-12.66.1-2.35-2.14-4.61-4.5-4.5-2.52.11-4.4,1.98-4.5,4.5h0Z"/>
  <path d="m202.31,127.24c-.81-11.31-1.57-22.64-1.25-33.98.08-2.85.23-5.69.46-8.53.11-1.3.23-2.59.37-3.89.08-.73.17-1.46.26-2.18.1-.81-.08.55.03-.26.05-.33.09-.65.14-.98.65-4.32,1.62-8.63,3.21-12.71.09-.23.19-.46.28-.69-.34.85-.1.23-.02.05.21-.45.41-.89.63-1.34.49-.98,1.02-1.94,1.6-2.87.29-.46.59-.91.91-1.36.14-.2.28-.39.43-.58.42-.58-.69.78.08-.08.72-.81,1.43-1.62,2.23-2.36.36-.33.73-.64,1.1-.95-.73.62.33-.24.56-.39.48-.33.98-.64,1.49-.91.26-.14.52-.27.78-.39-.73.34.48-.15.55-.17.28-.08.56-.13.84-.21-.67.2-.17,0,.08,0,.29,0,.57,0,.86,0-.86.01-.22-.04.09.03.22.05.44.14.66.18.6.11-.67-.37-.14-.08.2.11.4.2.6.31.11.06,1.07.67.53.31-.5-.33.09.09.21.19.17.15.34.31.51.48.38.38.72.78,1.07,1.18-.63-.74.21.31.37.55.34.51.66,1.03.96,1.56,1.16,2.03,2.12,4.19,3.07,6.32.25.56.5,1.12.74,1.68.12.28.24.56.36.84.59,1.36-.16-.4.17.41.53,1.27,1.05,2.55,1.54,3.84.97,2.5,1.88,5.02,2.73,7.57,1.87,5.6,3.44,11.29,4.71,17.05.64,2.92,1.21,5.85,1.69,8.8.25,1.51.48,3.03.68,4.55-.03-.2-.1-.76.02.17.05.38.1.76.14,1.14.1.84.2,1.67.28,2.51.25,2.33,1.89,4.62,4.5,4.5,2.22-.1,4.77-1.99,4.5-4.5-1.23-11.53-3.51-22.93-7-33.99-1.78-5.64-3.88-11.15-6.2-16.59-2.04-4.77-4.09-9.89-7.73-13.71-1.79-1.87-4.18-3.46-6.75-4-3.41-.71-6.71,0-9.76,1.6-4.49,2.35-8.14,6.42-10.68,10.74-5.32,9.07-6.67,20.03-7.39,30.32-.95,13.6-.05,27.24.92,40.81.17,2.34,1.95,4.61,4.5,4.5,2.29-.1,4.68-1.99,4.5-4.5h0Z"/>
  <path d="m186.6,104.47c10.93-1.34,21.87-2.68,32.8-4.02,2.33-.29,4.62-1.87,4.5-4.5-.1-2.19-2-4.81-4.5-4.5-10.93,1.34-21.87,2.68-32.8,4.02-2.33.29-4.62,1.87-4.5,4.5.1,2.19,2,4.81,4.5,4.5h0Z"/>
  <path d="m272.27,113.58c-2.14-16.76-4.29-33.67-3.22-50.6.14-2.15.32-4.29.57-6.42.05-.47.11-.95.17-1.42-.08.62.07-.53.1-.7.16-1.1.34-2.21.53-3.31.34-1.91.64-3.89,1.25-5.73-.13.39-.39.38.02.03-.11.09-.34.31-.42.42-.26.33,0,.03.14-.07-.03.02-.72.32-.23.15.47-.16-.21.03-.29.03.18.01.38-.01.56,0s.38.03.57.03c-.93,0-.18-.02.1.03,1.55.29,3.07.73,4.53,1.29.17.06.33.13.5.2-.04-.02-.71-.32-.25-.1.38.18.76.35,1.13.53.75.37,1.48.78,2.19,1.21.61.37,1.21.77,1.8,1.18.29.21.58.43.87.64-.82-.59.3.25.51.42,1.22,1.02,2.37,2.11,3.45,3.27.55.59,1.08,1.19,1.6,1.8.24.28.48.57.71.86.12.15.23.29.35.44-.58-.72-.02-.03.09.13.98,1.31,1.89,2.66,2.76,4.05,1.76,2.82,3.29,5.79,4.62,8.83.14.32.43,1.02.13.29.19.46.38.92.57,1.38.35.86.68,1.72,1.01,2.58.68,1.8,1.34,3.61,1.98,5.43,1.24,3.5,2.44,7.01,3.76,10.47,1.41,3.73,2.94,7.44,4.74,11.01s3.7,7.07,6.3,9.93c3.47,3.82,9.27,2.53,11.4-1.92,1.82-3.79,1.45-8.17,1.51-12.26.22-17.37-.66-34.75-2.61-52.01-.24-2.13-.5-4.25-.77-6.37-.3-2.33-1.86-4.62-4.5-4.5-2.18.1-4.82,2-4.5,4.5,2.21,17.23,3.36,34.59,3.42,51.96.01,4.36.04,8.74-.17,13.09,0,.14-.04.31-.03.45.04.54,0-.49.06-.43.09.09-.23.99-.25,1.08-.01.05-.1.44-.15.45-.07.02.46-.8.15-.37-.08.11-.15.27-.21.39-.24.52.04-.03.21-.23-.26.29-.47.25.33-.2-.05.03.98-.34.52-.21.3-.08,1.16-.09,1.78.28,1.17.68.4.28.28.07-.04-.07-.47-.51-.11-.1s-.07-.11-.12-.17c-.2-.29-.41-.58-.61-.87-2.12-3.08-3.9-6.38-5.45-9.77-.35-.77-.7-1.55-1.03-2.33.28.66-.12-.29-.2-.49-.21-.53-.42-1.05-.63-1.58-.68-1.72-1.32-3.46-1.95-5.2-4.87-13.52-9.27-27.65-19.8-38.01-4.87-4.79-11.11-8.69-17.92-9.84-2.46-.42-4.82-.46-7.12.67s-3.63,3.44-4.26,5.81c-1.13,4.23-1.68,8.7-2.18,13.04-1.92,16.84-.2,33.83,1.89,50.57.26,2.07.52,4.14.79,6.21.3,2.33,1.86,4.62,4.5,4.5,2.18-.1,4.82-2,4.5-4.5h0Z"/>
  <path d="m341.02,42.94c14.88-1.53,29.85-2.06,44.8-1.6,2.36.07,4.61-2.12,4.5-4.5-.11-2.5-1.98-4.42-4.5-4.5-14.95-.46-29.92.07-44.8,1.6-2.33.24-4.62,1.9-4.5,4.5.1,2.23,1.99,4.76,4.5,4.5h0Z"/>
  <path d="m360.31,36.85c1.11,17.42,2.21,34.84,3.32,52.25.32,4.98.63,9.95.95,14.93.15,2.34,1.96,4.61,4.5,4.5,2.31-.1,4.66-1.98,4.5-4.5-1.11-17.42-2.21-34.84-3.32-52.25-.32-4.98-.63-9.95-.95-14.93-.15-2.34-1.96-4.61-4.5-4.5-2.31.1-4.66,1.98-4.5,4.5h0Z"/>
  <path d="m437.44,108.51c-.73-.12-1.42-.32-2.13-.54-1.09-.33.73.46-.25-.12-.26-.15-.53-.28-.79-.43s-.52-.32-.77-.49c-.15-.1-1.05-.86-.26-.18-.61-.53-1.21-1.07-1.77-1.66-.48-.5-.93-1.03-1.37-1.57-.8-.96.49.73-.22-.3-.22-.31-.44-.62-.66-.94-.87-1.28-1.66-2.61-2.42-3.95-.84-1.48-1.62-2.98-2.37-4.51-.32-.66-.64-1.33-.94-2-.18-.4-.36-.81-.54-1.21-.21-.49-.23-.54-.07-.15-.11-.27-.23-.55-.34-.82-1.27-3.15-2.36-6.37-3.24-9.65s-1.55-6.61-2.06-9.97c-.21-1.4.04.5-.05-.34-.04-.37-.09-.73-.13-1.1-.1-.88-.18-1.76-.25-2.65-.14-1.75-.22-3.51-.25-5.27-.02-1.59.02-3.19.13-4.78.05-.72.12-1.44.2-2.16.15-1.41-.17.87.07-.52.1-.57.19-1.14.31-1.7.31-1.54.73-3.07,1.26-4.55.14-.4.29-.81.46-1.2-.29.68,0,.01.06-.11.43-.87.86-1.73,1.36-2.56.2-.32.4-.63.61-.94.07-.1.81-1.1.19-.3.54-.69,1.13-1.35,1.75-1.97.53-.53,1.1-1.03,1.67-1.51-.79.67.16-.11.28-.2.41-.29.82-.56,1.25-.81.64-.38,1.3-.71,1.97-1.03-.98.46.12-.03.29-.09.46-.16.93-.31,1.4-.43.24-.06.47-.12.71-.17.24-.05.48-.1.72-.13-.59.07-.63.08-.11.02.87-.04,1.71-.07,2.58-.01,2.35.17,4.6-2.19,4.5-4.5-.12-2.58-1.98-4.32-4.5-4.5-7.05-.5-14.09,3.18-18.53,8.53-5.1,6.14-7.14,13.86-7.56,21.71s.54,15.42,2.27,22.84,4.53,14.76,8.14,21.54,8.75,14.67,16.98,16.05c2.31.39,4.96-.61,5.54-3.14.5-2.18-.66-5.12-3.14-5.54h0Z"/>
  <path d="m410.62,77.32c10.94-.12,21.88.17,32.8.88,2.35.15,4.6-2.18,4.5-4.5-.12-2.57-1.98-4.34-4.5-4.5-10.92-.71-21.86-1.01-32.8-.88-2.35.03-4.61,2.05-4.5,4.5s1.98,4.53,4.5,4.5h0Z"/>
  <path d="m457.39,32.03c1.36,22.64,3.03,45.26,5.03,67.85.56,6.37,1.15,12.74,1.77,19.11.19,1.92,1.26,3.87,3.3,4.34s3.83-.39,5.08-2.07c9.69-12.95,17.94-26.96,24.52-41.73,1.73-3.89,3.42-7.82,4.89-11.82s2.47-8.49,1.73-12.9c-1.42-8.47-10.26-12.66-17.07-16.25-8.55-4.51-17.5-8.28-26.68-11.3-2.24-.73-5.01.85-5.54,3.14-.56,2.47.75,4.75,3.14,5.54,3.75,1.23,7.45,2.58,11.11,4.08.43.18.86.35,1.29.53.71.3-.5-.22.21.09.21.09.43.18.64.28.92.4,1.84.81,2.76,1.23,1.83.83,3.64,1.7,5.44,2.6,3.45,1.73,6.87,3.56,10.18,5.56.66.4,1.32.82,1.96,1.26.24.17.94.69.34.21.35.28.69.57,1.02.87s.64.61.94.94c.23.25.64.9.25.26.2.32.42.63.61.96.09.17.17.34.26.51.29.49-.11-.52.03.08.09.41.25.8.34,1.21.04.2.09.41.12.61-.02-.11-.02-.66-.05-.16s.04.98.02,1.47c0,.21-.02.42-.04.63,0,.08-.11.94-.04.46s-.04.21-.05.25c-.04.21-.08.43-.13.64-.09.43-.19.85-.31,1.27-.24.92-.53,1.83-.85,2.73-.63,1.81-1.36,3.59-2.09,5.37-.17.42-.34.83-.51,1.25,0,0-.29.69-.12.29s-.12.28-.12.29c-.41.96-.83,1.93-1.25,2.88-3.09,6.98-6.56,13.8-10.37,20.41-4.34,7.52-9.13,14.78-14.33,21.73l8.39,2.27c-2.18-22.57-4.04-45.18-5.58-67.81-.43-6.38-.84-12.77-1.22-19.15-.14-2.35-1.97-4.61-4.5-4.5-2.32.1-4.65,1.98-4.5,4.5h0Z"/>
</svg>