<?xml version="1.0" encoding="UTF-8"?>
<svg id="Layer_1" data-name="Layer 1" xmlns="http://www.w3.org/2000/svg" viewBox="0 0 934 1196">
  <path d="m64.76,106.77c103.12,4.53,206.25,9.06,309.37,13.58,51.41,2.26,102.86,4.93,154.34,4.02,51.01-.91,101.54-6.9,152.19-12.48,56.29-6.2,113.09-11.29,169.66-5.6,3.84.39,3.81-5.62,0-6-101.48-10.2-202.01,13.92-303.16,17.59-51.44,1.86-102.89-.44-154.28-2.69-51.56-2.26-103.12-4.53-154.68-6.79-57.81-2.54-115.62-5.08-173.43-7.62-3.86-.17-3.85,5.83,0,6h0Z"/>
  <path d="m59.97,102.17c3.82,67.41,7.64,134.81,11.47,202.22,3.8,67.07,7.61,134.14,11.41,201.21s7.71,134.43,9.9,201.73c2.12,65.33,1.18,130.52.83,195.85-.33,62.3,1.72,125.46,17.93,185.97,2.02,7.54,4.27,15.01,6.72,22.42.55,1.66,2.02,2.37,3.69,2.1,49.15-8.16,99.15-5.89,148.62-2.47,48.89,3.37,97.53,6.81,146.58,5.25,96.41-3.07,192.02-18.51,288.5-20.26,53.82-.97,107.81,2.6,160.3,15.03,3.75.89,5.36-4.89,1.6-5.79-94.24-22.31-191.6-16-287.14-7.34-48.61,4.41-97.2,9.42-145.98,11.67-49.19,2.28-97.96.14-147.04-3.38-55.63-3.99-111.7-7.69-167.03,1.5l3.69,2.1c-19.81-59.94-24.09-123.27-24.44-186-.36-64.88,1.55-129.67-.17-194.55-3.56-134.06-13.06-268.01-20.65-401.89-4.26-75.12-8.52-150.24-12.78-225.36-.22-3.84-6.22-3.86-6,0h0Z"/>
  <path d="m881.92,1108.89c15.42-72.12,5.19-146.33-10.68-217.43-16.18-72.48-38.26-144.06-44.7-218.36-6.28-72.52-.08-145.67.06-218.33.11-55.69-1.8-111.33-3.57-166.99-1.9-59.85-2.76-119.69-1.52-179.56.19-9.25.43-18.5.69-27.74.11-3.86-5.89-3.86-6,0-1.79,62.27-1.59,124.53.2,186.79,1.57,54.23,3.77,108.43,4.14,162.68.22,33.48-.15,66.96-1.04,100.43-1,37.54-2.36,75.1-.84,112.64,2.99,73.88,21.64,144.91,38.94,216.41,17.31,71.58,32.43,145.67,23.34,219.6-1.17,9.49-2.8,18.91-4.8,28.25-.81,3.77,4.98,5.38,5.79,1.6h0Z"/>
</svg>